<svg id="e6Wb5nIQpBC1" xmlns="http://www.w3.org/2000/svg" xmlns:xlink="http://www.w3.org/1999/xlink" viewBox="0 0 5333.3335 5333.3335" shape-rendering="geometricPrecision" text-rendering="geometricPrecision"><g transform="matrix(1.33333 0 0-1.33333 0 5333.33)"><g transform="matrix(.1 0 0 0.1 0 0)"><g id="e6Wb5nIQpBC4" transform="matrix(.999391-.034899 0.034899 0.999391-746.757707 662.066742)"><g id="e6Wb5nIQpBC5"><path d="M29416.2,14922.2c-3.1-333.1-118.9-655.5-328-914.8-490.9-609.9-1557.5-1586.7-3267.6-1436-391.6,34.3-736,305.4-1038.3,736.4-1601.6,2279.1-2036.7,9038.4-2036.7,9038.4l2216.5,1819.3c0,0,2165.3-76.3,2959.7-787.7c346.9-310.6,693.4-1340.7,965.5-2711.6c135.3-681.6,252.7-1447.8,341.9-2251.9c71.2-639.6,124.5-1303.3,155.8-1966.9c24.6-512,35.3-1024,31.2-1525.2" fill="#f8f8f8"/><path d="M26171.5,12371c-119.2,0-241.4,5.3-367.2,16.4-1112.5,98-1995.7,1820-2625.2,5118.1-458.1,2400.1-616.4,4804.8-617.9,4828.8-6.5,101.8,70.7,189.7,172.5,196.3c102,6,189.7-70.7,196.3-172.6c1.5-23.8,158.6-2408.4,612.7-4786.2c577.9-3026.4,1392.6-4736.9,2294.1-4816.3c1629.3-143.2,2646.2,795.3,3107.4,1367.6c182.7,226.8,284.7,511.1,287.1,800.7c31.7,3759.5-761.3,7715.1-1432.8,8316.3-735.1,658.3-2821.7,740-2842.7,740.7-102,3.7-181.7,89.3-178.1,191.3s90.5,181.2,191.1,178.1c91.2-3.3,2241.6-87.4,3076.2-834.8c830.7-743.8,1586.8-4920.7,1555.8-8594.7-3.1-372.5-134.1-738.1-368.8-1029.5-471.9-585.7-1474.1-1520-3060.5-1520.2" fill="#371a45"/><path d="M29385,16447.4c-692.4-446.9-1895.2-768.3-2360.1-417.7l58.4,2464.1l29.8,1237.6c0,0,869.2,638.6,1774.2,934.8c418.2,136.9,651.4-476.1,787.7-1240.2c1.6-9.2,3.1-19.5,5.2-29.7c153.7-883.6,180.9-1955.7,214.7-2303.2c20-206-190.7-439.2-509.9-645.7" transform="translate(.000001 0)" fill="#f8f8f8"/><path d="M27600.3,15696c-269.8-.1-511.5,54-686.7,186.2-81.4,61.5-97.6,177.4-36.2,258.8c61.5,81.5,177.4,97.7,258.8,36.2c318-239.9,1252.5-82.8,2000,336.4c410.2,229.9,585.5,452.2,574.8,561.5-9.4,96.2-18,240.3-28.9,422.8-43.4,731.6-158.9,2674.9-601,2975.8-43.3,29.4-82.7,34.3-136.2,16.8-865.1-283.2-1714.2-901.8-1722.7-908.1-82.2-60.3-197.9-42.5-258.3,39.7-60.3,82.3-42.6,197.9,39.6,258.3c36.5,26.8,904,659.4,1826.5,961.4c162.1,53,320.8,31.4,459-62.6c546.6-371.9,680-1877.5,762.1-3259.4c10.6-178.5,18.9-319.5,27.7-408.7c29.5-301.2-241-627.9-761.8-919.9-454.6-254.8-1147.8-495.2-1716.7-495.2" fill="#371a45"/><path d="M26979.4,12836.5c107.6,223.4,193.5,460.2,257.6,710.1c163.9,639.6,189.7,1358.1,76.1,2173c90.6-16.2,187-23.7,287.2-23.6c527.6,0,1162,206.7,1613.9,440c14.4-403.3,20.5-809,17.1-1212.2-2.4-289.6-104.4-573.9-287.1-800.7-341.9-424.3-989.1-1049.7-1964.8-1286.6m68.1,4145.8c-14.9,54.4-30.2,109-46.1,164.2c18.3,35.4,35.8,71.7,52.6,108.7l-6.5-272.9" fill="#c8c0cb"/><path d="M26867,12621.8c39.8,70.1,77.3,141.7,112.4,214.7c975.7,236.9,1622.9,862.3,1964.8,1286.6c182.7,226.8,284.7,511.1,287.1,800.7c3.4,403.2-2.7,808.9-17.1,1212.2c35.4,18.3,69.7,36.7,102.8,55.2c26.4,14.8,52.2,29.7,77.3,44.7c17.9-441.3,25.4-881.5,21.9-1313.7-3.1-333.1-118.9-655.5-328-914.8-381.7-474.2-1111.5-1170.2-2221.2-1385.6" fill="#371a45"/><path d="M27603.5,16064.4c-138.8,0-260.2,17.2-355.4,53.1-51.9,277.3-118.7,565.5-200.6,864.8l6.5,272.9c129.5,286.4,213.8,620.2,258.6,978.4c113.9-124.8,310.5-238.4,649.1-238.4c17.8,0,35.8.3,54.4.9c412,14.4,876.9,164,1213.1,418.2c144.5,109.5,265.1,238.3,347.2,384.1c58.6-505.9,88.1-1003.2,105.7-1300.5c10.9-182.5,19.5-326.6,28.9-422.8c10.7-109.3-164.6-331.6-574.8-561.5-508.7-285.3-1104-449.2-1532.7-449.2" fill="#c8c0cb"/><path d="M27600.3,15696c-100.2-.1-196.6,7.4-287.2,23.6-18.1,130.2-39.8,262.7-65,397.9c95.2-35.9,216.6-53.1,355.4-53.1c428.7,0,1024,163.9,1532.7,449.2c410.2,229.9,585.5,452.2,574.8,561.5-9.4,96.2-18,240.3-28.9,422.8-17.6,297.3-47.1,794.6-105.7,1300.5c99,175.9,142.1,376.5,103.8,597.9c153.7-883.6,180.9-1955.7,214.7-2303.2c20-206-190.7-439.2-509.9-645.7c3.3-70.5,6.5-141,9.3-211.5-25.1-15-50.9-29.9-77.3-44.7-33.1-18.5-67.4-36.9-102.8-55.2-451.9-233.3-1086.3-440-1613.9-440" fill="#371a45"/><path d="M29476.6,19964.7c-285.2-87.2-573.8-186-850.2-298.9-189.4-83.3-408.8-166.2-553.7-304.5-6.9-6.7-8.7-11.5-14-17.3-.5-3.6-2.6-2.4-3.7-6.1-9.5-41.1-14.6-93.7-18.2-137.5-16.9-297.1-7.9-605.2-.2-909.4c9.3-305.2,22.6-610.7,38.9-916-46.1,302.3-89.1,605.1-128.3,908.9-37.5,304.7-76.8,606.4-89.8,920.4-.2,50.1-1.6,107.7,5.7,158.9c3,41.8,24.9,87,48.8,120.1c165.3,202.2,385.9,303.6,599.8,425.9c276.9,146,556.5,273.4,845.6,393.9c234.1,87.3,357.7-258.6,119.3-338.4" fill="#371a45"/><path d="M25811.9,22349.3c-40,0-80.3,12.9-114.1,39.6-80.2,63.1-94.1,179.2-31,259.4c876.6,1114,2226,920.8,2283.1,912.1c100.8-15.5,170-109.8,154.5-210.7-15.5-100.7-109.7-169.8-210.3-154.6-49.1,7.3-1196.4,165.8-1936.9-775.3-36.4-46.3-90.6-70.5-145.3-70.5" fill="#371a45"/></g><g id="e6Wb5nIQpBC16" transform="translate(22.48635 0.785241)"><path d="M19943.8,12275.7c-90.2-1.6-187.1-7.7-289.6-18-1101.8-108.6-2811-673.9-2811-673.9L14899.3,8757.4c-108.6-157.3-310.6-221.4-489.9-155.3-1502.7,556.1-2821.3,1262.3-3922.6,2147.4-141,113.2-193.3,303.9-129.2,473c24.1,63,52.3,133.7,84.6,209.6c180.9,419.7,496.6,994.8,951.7,1266.4c762.6,454.6,1785.5-159.9,1785.5-159.9s1366.3,2004.9,1814.7,2504.5c448.5,499.7,1956.2,1114.7,1956.2,1114.7L19645,14252.9c0,0,1358.1-1960.3,298.8-1977.2" fill="#f8f8f8"/><path d="M14554.9,8391.4c-70,0-140.8,12.2-209.4,37.6-1556.4,575.6-2893.6,1307.8-3974.5,2176.4-204,163.9-278.9,438.3-186.3,682.7c165.3,436.3,529.8,1220.2,1114.5,1569.1c669.3,399.2,1484.8,85.2,1820.7-78.2c318.5,464.3,1348.9,1955.4,1736.7,2387.5c471.4,525.3,1960.6,1136.6,2023.7,1162.4c94.5,38.6,202.4-6.8,240.9-101.3c38.6-94.5-6.8-202.3-101.3-240.9-408.4-166.7-1544-683.4-1888.2-1067-435.2-484.9-1786.2-2465.2-1799.8-2485.2-55.1-80.9-163.8-104.8-247.8-54.3-9.1,5.4-938.8,551.4-1595.5,159.6-488.5-291.4-810.1-991.3-958.3-1382.6-35.7-94.4-6.7-200.4,72.1-263.7c1049.8-843.6,2352.3-1556.2,3871.2-2117.9c100.5-37.1,212.8-1.5,273.5,86.6l1944,2826.3c22.9,33.2,56,58.1,94.3,70.7c84.4,27.9,2080.6,683.9,3155.6,701.2c160.4,2.6,189.6,59.4,199.2,78.1c135.7,264-305.9,1116.4-647.1,1609.3-58.1,83.9-37.1,199,46.7,257.1c83.9,58.1,199,37.2,257.1-46.7c162.4-234.4,958-1431.7,672-1988.5-63.8-124.4-206.2-273.7-522-278.8-920.3-14.8-2647.3-554.6-2986.8-663.6L15051.6,8652.8c-115.1-167.3-302.6-261.4-496.7-261.4" fill="#371a45"/><path d="M14554.8,8761c-27.1,0-54.5,4.8-81.2,14.6-1518.9,561.7-2821.4,1274.3-3871.2,2117.9-78.8,63.3-107.8,169.3-72.1,263.7c20.8,54.8,44.9,115.6,72.4,180.4l336.6-198.1c848.7-461.9,1584.2-712.7,2184.9-712.7c621.7,0,1099,268.5,1408.7,849.5c0,0,1178.7,1588.7,2119.7,2244.7c508.7,355,705.3,823.4,778.7,1178.9c498.9-1448.3,1398.3-2037.6,1819.6-2242.5l-51.6-75.4c-1062.4-178.5-2346.5-600.5-2413.9-622.8-38.3-12.6-71.4-37.5-94.3-70.7l-1944-2826.3c-44.6-64.8-117.1-101.2-192.3-101.2" fill="#c8c0cb"/><path d="M14553.9,8576.3c-48.3,0-97.2,8.4-144.5,25.8-1502.7,556.1-2821.3,1262.3-3922.6,2147.4-141,113.2-193.3,303.9-129.2,473c24.1,63,52.3,133.7,84.6,209.6l160.5-94.5c-27.5-64.8-51.6-125.6-72.4-180.4-35.7-94.4-6.7-200.4,72.1-263.7c1049.8-843.6,2352.3-1556.2,3871.2-2117.9c26.7-9.8,54.1-14.6,81.2-14.6c75.2,0,147.7,36.4,192.3,101.2l1944,2826.3c22.9,33.2,56,58.1,94.3,70.7c67.4,22.3,1351.5,444.3,2413.9,622.8l-25.9-37.8c-37.8-55.2-70.6-112.7-98.2-171.9-1036-193-2232-588.5-2232-588.5L14899.3,8757.4c-80-115.8-210.5-181.1-345.4-181.1" fill="#371a45"/><path d="M16864.9,11481.3c-12,0-24.3,1.4-36.5,4.3-1876.4,456.1-3011.6,1924.4-3059,1986.7-51.4,67.6-38.3,164.1,29.2,215.5c67.6,51.4,164,38.3,215.4-29.2c12.4-16.1,1120.6-1444.8,2887-1874.2c82.6-20,133.2-103.2,113.1-185.7-17.1-70.3-79.9-117.4-149.2-117.4" fill="#371a45"/></g><path d="M13130.8,15449.4c0,0,1452.8,298.2,2604.1,1144l-2829.4-215.5l225.3-928.5" fill="#f8f8f8"/><path d="M13175.8,15649.2c11.6,126.5-6.4,256.7-53.2,382.3l1323.6,47.3c-576.6-250.3-1079-383.5-1270.4-429.6" fill="#c8c0cb"/><path d="M13130.6,15264.6c-85.9,0-162.8,60.1-180.8,147.5-20.5,100,43.8,197.7,143.7,218.2c14.2,3,1428.4,301.3,2532,1112c82.2,60.5,197.8,42.8,258.3-39.5c60.4-82.2,42.7-197.9-39.5-258.3-1170.4-859.9-2615.4-1163.6-2676.4-1176.1-12.5-2.6-25-3.8-37.3-3.8" fill="#371a45"/><path d="M25077.4,11208.1L23071,8586.2c-500.2-653.4-1418.6-827.1-2114-387.4-617,390.5-1138.2,1118.2-1459.1,1886-240.8,574.5-369,1171.5-342.3,1667.1c9.2,175.3,71.2,343.4,170.1,487.9l206.1,300.8c0,0-1804.5,549.9-2193,3365.1v734.9c0,0-939.4,62.5-1008.1,185-68.1,122.5-937.3,3111.8-937.3,3111.8s1176.7,1914.2,2867.9,2656.8c797.4,350,1911.1,484.3,2864.8,528.9c1069.1,49.7,1937.8-13.8,1937.8-13.8l1503.6,79.4c0,0,1278.7-364.4,1961.8-1576.9c683.7-1213.1,888.7-3353.3,273.7-4444.4c799-2718.2,456.1-4828.2-1725.6-5959.3" fill="#f8f8f8"/><path d="M21791.9,7774.3c-322.8,0-647,87.1-933.7,268.5-1189.6,753.1-1949.3,2564.5-1887.1,3719.1c11,203.8,80.9,405.2,202.3,582.3l77.5,113.2c-521.2,253.4-1773.7,1094.9-2095.1,3423.2-1.2,8.3-1.8,16.8-1.8,25.2v563.1c-876,72.3-945.9,197.4-984.4,266.5-68.4,122.5-627,2026.4-953.9,3150.5-14.6,50-7.3,103.9,20,148.3c49.3,80.2,1227,1971.9,2951.3,2729.2c1713.5,752.6,4761.2,539.4,4890.1,530c101.8-7.5,178.3-96,170.8-197.8-7.4-101.8-95.4-178.7-197.7-170.8-30.7,2.2-3085.4,215.8-4714.6-499.8-1440.9-632.8-2516.3-2175.2-2741.5-2516.8c308.3-1058.8,784.1-2669.9,887.6-2962.5c128.5-46.5,534.2-98.5,869.4-120.9c97.1-6.5,172.5-87.1,172.5-184.4v-721.8c371.8-2656.3,2045.2-3196.3,2062.1-3201.4c56.3-17.2,101-60.1,120.5-115.6s11.3-117-21.9-165.6l-206-300.6c-83.1-121.3-130.8-257.3-138.1-393.4-56.7-1050.2,665.1-2721.8,1715.7-3386.9c606.4-383.9,1427-233,1868.2,343.4l2006.6,2621.8c16.5,21.6,37.6,39.2,61.7,51.7c1939.6,1005.5,2473.8,2884.2,1633.2,5743.4-14.1,47.9-8.2,99.4,16.3,142.9c547.1,970.5,414.3,3042-273.4,4262.6-635.8,1128.6-1839.7,1486.8-1851.8,1490.2-98,28.3-154.7,130.6-126.6,228.6s130,154.6,228.1,126.8c55.2-15.7,1359.9-399.7,2072.3-1664.2c666.7-1183.3,930.8-3355.3,310.9-4555.8c412.2-1432.1,489.2-2610.4,235.6-3599.9-276.8-1079.9-962.2-1915.2-2037.7-2483.4L23217.6,8473.9c-348.4-455.1-885-699.6-1425.7-699.6" fill="#371a45"/><path d="M18706.1,19396.4h3897.9c349.5,0,632.7-283.3,632.7-632.7v-2360.2c0-343.3-273.8-624-617-632.6l-3897.9-96.7c-355.5-8.8-648.4,277-648.4,632.6v2456.9c0,349.4,283.3,632.7,632.7,632.7" fill="#f8f8f8"/><path d="M18706.1,19211.6c-247,0-447.9-200.9-447.9-447.9v-2456.9c0-121.8,47.9-235.7,135.1-320.7s201.7-130.7,323.9-127.2l3897.9,96.7c245,6.1,436.8,202.9,436.8,447.9v2360.2c0,247-200.9,447.9-447.9,447.9h-3897.9m-.7-3722.4c-214.3,0-416.1,82.1-570.2,232.3-159,155.2-246.6,363.1-246.6,585.3v2456.9c0,450.7,366.7,817.5,817.5,817.5h3897.9c450.8,0,817.5-366.8,817.5-817.5v-2360.2c0-447.2-350.2-806.2-797.2-817.3l-3897.9-96.7c-7-.2-14-.3-21-.3" fill="#371a45"/><path d="M17582.9,19353.7h3897.9c349.4,0,632.7-283.3,632.7-632.8v-2360.1c0-343.4-273.8-624.1-617-632.6l-3897.9-96.7c-355.5-8.8-648.5,277-648.5,632.6v2456.8c0,349.5,283.3,632.8,632.8,632.8" fill="#f8f8f8"/><path d="M20093.4,16909.7v-.1.1m0-.1c-.9-3.9-1.6-7.8-2.2-11.7.7,4.4,1.4,8.3,2.2,11.7m69.2-172.6h.5-.5m106.1-1218.6c-97.1,0-176.9,77.4-179.3,175-7.7,316.9-17.1,813.5-8,1069.4-281,70.3-1123.9,181.5-1881.3,259.9-88.2,9.1-156.5,81.3-160.7,169.9l-102.5,2152.5c-4.7,99,71.7,183.1,170.6,187.8c99.3,4.3,183-71.7,187.7-170.7l95.2-1998.8c1893.9-201.1,1973.1-311.2,2021.1-377.8c32.2-44.6,43.9-100.6,32.1-153.5-12.3-78.3-7.6-637,4.5-1130c2.4-99-75.9-181.2-174.9-183.7-1.5,0-3,0-4.5,0" fill="#371a45"/><path d="M17582.9,19168.9c-247,0-448-200.9-448-448v-2456.8c0-121.8,48-235.7,135.2-320.7s203-129.9,323.9-127.2l3897.9,96.7c245,6.1,436.8,202.8,436.8,447.9v2360.1c0,247.1-200.9,448-447.9,448h-3897.9m-.6-3722.4c-214.4,0-416.2,82.1-570.3,232.4-159,155.1-246.7,363-246.7,585.2v2456.8c0,450.8,366.8,817.6,817.6,817.6h3897.9c450.8,0,817.5-366.8,817.5-817.6v-2360.1c0-447.2-350.2-806.2-797.2-817.3l-3897.9-96.7c-7-.2-14-.3-20.9-.3" fill="#371a45"/><path d="M21991.2,17083.4l-14.3-270.6c-9.3-174.8-150.2-313.7-325.5-320.3L16692,16315.7l-6855.09-245c-187.06-6.7-343.88,139.9-350.03,327.5l-8.71,281.3c-3.6,110.2,46.63,209.6,126.58,273.7h.51c54.83,44.6,123.52,72.3,199.36,74.8l6836.68,237.3l13.8.5l4986.6,173.2c198.3,6.7,359.8-157.3,349.5-355.6" fill="#bcc4cc"/><path d="M16816.7,16983.3l-8.7,131.4l3503.8,121.7c81.5-20.7,166.9-36.2,256.2-45.3c106.5-10.8,206.9-15.7,301.5-15.7c283.9,0,514.9,44.2,697.9,104.6l79.8,2.8c2.5.1,5,.1,7.5.1c48.9,0,94-19.4,128.4-54.4c34.6-35.2,53-81.3,52.1-130.4-52.5,33.6-114.8,53.1-181.6,53.1-4,0-7.9,0-11.9-.2l-4825-167.7" fill="#e5e8eb"/><path d="M16702.3,16341.3l-11.3,1-7085.74,610.9h-.51l-269.06,588.9-2045.36,4475c-53.3,116.4-39.47,251.7,36.39,354.7l158.86,216.3c62.53,84.5,159.9,137.3,264.96,142.4l5938.76,314.2c404.4,21.5,776.4-218.3,924-595.5l12.3-30.8l2015.7-5153.1l34.8-529.4l26.2-394.6" fill="#bcc4cc"/><path d="M7443.41,22058l-11.06,24.2c-29.45,64.4-21.66,139.9,20.33,197l159.01,216.1c34.79,47.4,88.4,76.3,147.04,79.4l5938.67,314.1c13.9.7,27.6,1.1,41.4,1.1c262,0,503.5-130.5,647.6-342.8l-87.7,47.1v0c-136.9,76.4-293.5,118.7-456.6,118.7-16.7,0-33.5-.4-50.3-1.3l-5938.76-314.2c-105.06-5.1-202.43-57.9-264.96-142.5L7443.41,22058" fill="#e5e8eb"/><path d="M9809.91,16871.7c-99.78-3.5-178.45-87.5-175.32-187.3l8.74-281.6c1.51-48.6,21.95-93.8,57.52-127.1c35.58-33.2,81.96-50.3,130.61-48.8l11814.34,422c94.8,3.4,170,77.4,175,172.2l14.2,270.6c2.6,51.5-15.8,100.1-51.9,136.8-36.1,36.8-84.1,56.4-135.9,54.3L9809.91,16871.7m14.62-957.7c-125.78,0-244.92,47-337.27,133.4-96.78,90.5-152.35,213.3-156.47,345.7l-8.75,281.6c-8.47,271.5,205.52,500.1,477.03,509.5l11837.23,411.1c138.5,5,272.9-49,369.8-147.6s148.3-234.3,141.1-372.4l-14.2-270.6c-13.5-257.7-218.1-459.1-476-468.3l-11814.35-422c-6.06-.3-12.11-.4-18.12-.4" fill="#371a45"/><path d="M16702.3,16185.1c-81.7,0-150.4,63.4-155.9,146.1l-59.4,899.7-2019.2,5161.4c-123.2,314.9-433.2,514.1-770.4,496.5l-5938.67-314.1c-58.64-3.1-112.25-32-147.04-79.4l-159.01-216.1c-41.99-57.1-49.78-132.6-20.33-197L9746.7,17018.1c35.92-78.5,1.34-171.2-77.2-207.1-78.53-36.1-171.31-1.4-207.18,77.2l-2314.35,5064c-76.59,167.5-56.34,363.8,52.81,512.2l159.01,216.2c90.5,123,229.9,198.2,382.44,206.3l5938.67,314.2c472.8,24.3,905.7-254.3,1078.1-694.9l2028-5183.9c5.8-14.9,9.3-30.6,10.4-46.6l61-923.9c5.7-86.2-59.5-160.7-145.7-166.3-3.4-.3-6.9-.4-10.4-.4" fill="#371a45"/><path d="M9829.21,16226.8c-79.49,70-140.36,140.6-186.82,206.2l-7.8,251.4c-1.77,56.6,22.76,108.1,62.52,142.8c3.82,2.7,7.48,5.7,10.98,8.8c28.59,21.3,63.66,34.4,101.82,35.7L10338,16890l1139.5-98.2c-367.4-85.8-600.4-320.6-741.2-532.6l-904.84-32.3c-.75-.1-1.5-.1-2.25-.1M12941.1,16338c-130.9,154.2-314.9,286.5-549.2,374.9l3236.2-279-2687-95.9" fill="#9b99aa"/><path d="M15628.1,16433.9l-3236.2,279c-103.7,39.2-217.1,69.7-340.3,89.8-95.9,15.6-186,22.8-270.7,22.8-110.1,0-211-12.1-303.4-33.7L10338,16890l6157.4,213.9l42.1-637.5-909.4-32.5m-5948.61,731.3l-174.64,382.1c3081.75,116,5006.75,1282.4,4793.85,4175.7v871.2c34-19,66.8-40,98.2-63c27.8-43.2,51.6-89.7,70.9-138.9L16415.4,17414l-6616.33-229.8c-41.4-1.5-81.45-8-119.58-19" fill="#9b99aa"/><path d="M14396.9,22531.2c-31.4,23-64.2,44-98.2,63v0l87.7-47.1c3.5-5.3,7-10.6,10.5-15.9" fill="#b9b4c1"/><path d="M10033,16077.7c-78.78,47.9-146.2,98.4-203.79,149.1.75,0,1.5,0,2.25.1l904.84,32.3c-37.1-55.9-67.8-110.2-92.8-159.7l-610.5-21.8m3016.4,107.8c-30.7,52.5-66.8,103.6-108.3,152.5l2687,95.9l909.4,32.5l8.9-135.2c.5-7.1,1.4-13.9,2.8-20.6l-3499.8-125.1M9642.39,16433c-122.16,172.4-144.76,309.9-144.76,309.9-7.09-44.3-12.87-87.7-17.39-130.3l-2.07,66.9c-1.75,53.6,9.23,104.7,30.17,150.3c27.41-21.3,61.36-33.1,96.22-33.1c21.75,0,43.87,4.6,64.94,14.3c9.93,4.5,19.15,9.9,27.61,16.2-39.76-34.7-64.29-86.2-62.52-142.8l7.8-251.4m65.7,403c50.26,44.4,67.95,118,38.61,182.1l-67.21,147.1c38.13,11,78.18,17.5,119.58,19L16415.4,17414l71.6-183.1l8.4-127L10338,16890l-528.09-18.3c-38.16-1.3-73.23-14.4-101.82-35.7" fill="#371a45"/><path d="M16549.2,16310.6c-1.4,6.7-2.3,13.5-2.8,20.6l-8.9,135.2-42.1,637.5-8.4,127-71.6,183.1-1947.6,4978.3c-19.3,49.2-43.1,95.7-70.9,138.9-3.5,5.3-7,10.6-10.5,15.9l239.2-128.7l2015.7-5153.1l13.8.5c7.7-188.6,14.9-367.4,21-529.9c5.7-146.6,10.8-279.3,14.9-393.6.5-9.2.5-17.9,1-26.6l-142.8-5.1m-6944.64,486.1c-34.86,0-68.81,11.8-96.22,33.1c22.12,48.3,55.34,90.5,96.41,123.4l-269.06,588.9c56.68,1.4,113.24,3.1,169.16,5.2l174.64-382.1l67.21-147.1c29.34-64.1,11.65-137.7-38.61-182.1-3.5-3.1-7.16-6.1-10.98-8.8-8.46-6.3-17.68-11.7-27.61-16.2-21.07-9.7-43.19-14.3-64.94-14.3" fill="#371a45"/><path d="M10548.2,15863.1c0,0,299,1136,1503.4,939.6c1204.3-196.5,1486.2-1392.3,640.6-1827.9s-3536.22-367.3-3194.57,1768.1c0,0,102.5-623.5,1050.57-879.8" fill="#f8f8f8"/><path d="M11581.9,14761.2c-596.3,0-1254.7,150.6-1675.8,547.9c270.5-72.4,556.8-104,829.9-104c447.6,0,859.9,84.8,1110.4,213.7c569.9,293.6,627.8,932.7,235.7,1378.1c1178.3-211.2,1448.4-1389.9,609.9-1821.9-250.4-129-662.8-213.8-1110.1-213.8" fill="#c8c0cb"/><path d="M9675.02,16117.1c56.84-325.9,221.88-589.1,493.88-786.1c702.4-508.8,1933-452.5,2438.7-191.9c282.3,145.4,423.9,403,378.6,689-47.6,300.6-328.7,688.5-964.4,792.2-1026.8,167.7-1284.4-764.5-1294.9-804.2-12.5-47.6-43.5-88.2-86.1-112.9-42.6-24.6-93.2-31.3-140.8-18.5-386.4,104.5-648.2,267.1-824.98,432.4ZM11585,14578.4c-566.9,0-1184.4,128.4-1632.85,453.3-374.25,271.1-788.55,793.1-636.97,1740.4c14.31,89.5,91.41,155.4,182.06,155.6h.39c90.45,0,167.65-65.5,182.32-154.8c3.37-17.3,93.02-444.1,752.65-680.2c191.6,452,700.4,1047.1,1648.7,892.4c683.4-111.5,1181.9-543,1269.9-1099.3c70.4-444.5-149.7-856.5-574.4-1075.2-274.2-141.3-715.1-232.2-1191.8-232.2" fill="#371a45"/><g id="e6Wb5nIQpBC46"><path d="M24352.8,18569.6c-67.7-573-315.7-1129-671.9-1402.2l-1689.2,566.3c0,0-399.2-461.2-1404.7-358.7-1006.1,102.5-1467.3,1121.3-1467.3,1121.3s-429-890.7-948.1-532c-141.5,97.9-209.6,218.4-232.2,344.4-29.2,164,18.5,337.8,83.6,483.8c77.4,173.8,190.6,329.1,326.4,462.3l962.5,947.6c811.3,1067.5,1947.5,298.8,2733.1-153.7h1921.9c346.4-342.9,452.5-918.9,385.9-1479.1" fill="#f8f8f8"/><path d="M21991.7,17918.5c19.6,0,39.4-3.1,58.7-9.6l1590.3-533c293.2,276.2,507.1,804.5,541.7,1354.1c29.6,471.3-77.6,879.1-295.7,1133.7h-1841.5c-32.4,0-64.2,8.5-92.2,24.7-50.1,28.8-101.5,58.9-154.2,89.7-951.1,556.5-1727.4,918.1-2339.8,112.3-5.3-7-11.2-13.7-17.5-19.9l-962.6-947.3c-125.4-123.4-222-260-287.1-405.9-184.9-414.4,11.1-550,84.9-601c92.2-63.8,160.1-56,203.3-44.8c213.3,56,418.4,391.8,473.4,505c31.3,64.5,98.2,105.3,168.7,104.2c71.7-1,136.4-43.2,165.9-108.4c4.1-8.9,432.7-923.3,1317.4-1013.5c885.3-90.2,1243.2,292,1246.5,295.8c35.8,41.3,87.1,63.9,139.8,63.9m1689.2-935.8c-19.7,0-39.5,3.2-58.7,9.6l-1587.2,532c-185.3-147.2-646.3-416.8-1467-333.2-754.4,76.9-1225.1,605.8-1452.8,944.6-123.8-168.4-309-360.2-540.4-421.3-173.5-46-349.2-12-508.3,97.9-336.7,232.8-412,607.7-212.2,1055.6c84,188.2,206.9,362.8,365.4,518.7l953.3,938.2c858.5,1115.5,2033.8,427.8,2812.4-27.7c37.1-21.7,73.6-43,109.4-63.8h1872.2c48.7,0,95.4-19.2,130-53.5c327.2-323.8,492.7-860.7,454.2-1473-44.4-705-341.9-1366.8-757.8-1685.9-32.7-25.1-72.4-38.2-112.5-38.2" fill="#371a45"/><path d="M18957.8,18585.1l687.2,865.5-363.4-1043.6c-34.1-97.8-140.9-149.4-238.6-115.4-120.6,39.4-165.2,196.1-85.2,293.5" fill="#371a45"/><path d="M21823,17809.3l435.7,449.7-98.4-600.8-337.3,151.1" fill="#371a45"/><path d="M23640.7,17375.9l-1447.2,485l65.2,398.1-347.9-359.1c-22-10.8-42.2-26-58.9-45.3-3-3.4-289.6-309.6-983.6-309.6-81.8,0-169.4,4.3-262.9,13.8-752.1,76.7-1174.6,749.1-1286.8,954.3l326.4,937.5-649.7-818.2c-14.8-13.4-27.5-29.3-37.4-47.2l-.1-.1c-15.6-19-26.5-40.3-33-62.5-79.6-141.4-259.1-402.3-444.8-451.1-15.5-4-34.1-7.6-55.9-7.6-39.1,0-88.3,11.5-147.4,52.4-41.5,28.7-121.8,84.2-151,201c26.9-5.3,57.4-8.8,91-8.8c150.4,0,361.8,71.3,582.7,373.3c410,560.7,943,1031.2,964.5,1049.6-13.3-32.8-429.5-1074.2,410.5-1562.1c131.8-76.4,267.9-108.8,403.8-108.8c744.9,0,1484.2,971.4,1484.2,971.4s535.9-468.7,1815.6-468.8c91.4,0,186.5,2.4,285.7,7.5c1.2.1,2.4.2,3.6.2-61.8-490.6-261.9-945.5-526.6-1194.9" fill="#c8c0cb"/><path d="M23505.7,17226.1l-1307.3,438.3-12.4,4.2v0l-22.7,7.6l30.2,184.7l1447.2-485c264.7,249.4,464.8,704.3,526.6,1194.9c29.2,1.5,57.5,2.2,84.9,2.2c35,0,68.5-1.1,100.6-3.4v0l-501.1-1240.9c-6.7-7.7-13.6-15.3-20.5-22.8-28,11-54.4,21.7-79,32-23.3,9.7-47.5,14.3-71.2,14.3-72.3,0-140.9-42.6-170.5-113.5-1.8-4.1-3.4-8.3-4.8-12.6m-2635.1,134c-88.6,0-183,4.6-283.6,14.9-740.6,75.4-1186,647.4-1369.4,944.1c28.6,21.5,51.3,51.5,64,87.9l37,106.1c112.2-205.2,534.7-877.6,1286.8-954.3c93.5-9.5,181.1-13.8,262.9-13.8c694,0,980.6,306.2,983.6,309.6c16.7,19.3,36.9,34.5,58.9,45.3l-87.8-90.6l168.7-75.6c-1.1-1.3-324.8-373.6-1121.1-373.6m-2447.1,519.1c-80.4,0-164.9,25-251.9,85.1-141.5,97.9-209.6,218.4-232.2,344.4l56.9,56.9c0,0,48.3-32.2,129.4-48.3c29.2-116.8,109.5-172.3,151-201c59.1-40.9,108.3-52.4,147.4-52.4c21.8,0,40.4,3.6,55.9,7.6c185.7,48.8,365.2,309.7,444.8,451.1-23.3-80.1,10.3-172.4,83.9-215.5-121.6-181.4-333.1-427.9-585.2-427.9m534.4,706c9.9,17.9,22.6,33.8,37.4,47.2l-37.4-47.2" transform="translate(.261747-7.49545)" fill="#371a45"/><path d="M19008.7,18307.1c-73.6,43.1-107.2,135.4-83.9,215.5c6.5,22.2,17.4,43.5,33,62.5l.1.1l37.4,47.2l649.7,818.2-326.4-937.5-37-106.1c-12.7-36.4-35.4-66.4-64-87.9-65.8,106.3-97.9,177.2-97.9,177.2s-40.3-83.6-111-189.2" transform="translate(-90.136365 11.86155)" fill="#371a45"/><path d="M22163.3,17676.2l-171.6,57.5v0l-168.7,75.6l87.8,90.6l347.9,359.1-65.2-398.1-30.2-184.7" fill="#371a45"/></g><path d="M19419.4,12687.1c527.9,380.1,1369.8,762.1,2004,433.2c292.7-176,545.7-415,766.4-671.4c216.4-251.9,403.3-524.7,555.8-813.9-384.6,409-800.2,781.4-1287.9,1052.7-183.4,100.1-375.2,177.5-586.8,181.5-438.8-2.1-872.5-226.5-1226.7-475.4-198.5-146.5-418.8,138.5-224.8,293.3" fill="#371a45"/><path d="M22141.6,7814.3c-71.9,0-139.8,43.5-167.3,114.6-35.8,92.4,10.1,196.3,102.5,232.1c47.1,18.3,114,57.6,150,187.5c183.8,665.1-660,2426.8-1296.9,3244.7-661.6,849.5-1194,766.6-1216.3,762.7-96.8-20.8-190.7,41.4-211.4,138.3-20.6,96.9,42.7,192.5,139.6,213.1c30.7,6.6,759.8,148.1,1571.2-893.7c603.7-775.2,1602.7-2681.3,1359.5-3560.7-57.6-208.5-184.2-355.9-366.2-426.4-21.2-8.3-43.2-12.2-64.7-12.2" fill="#371a45"/><path d="M20999.7,13178.3c-3.6-3.5-6.9-7.4-9.8-11.5-.9-1.2-3.8-6-2.9-4.4c6.1,9.7,20.9,35.5,27.1,45.8c268.1,453.7,588.8,874,947.6,1260.3c495,542.8,1196.3,933,1932.3,1004.7c183.7,10.4,366.1,3.5,542.8-28.6-179.4-13.8-354.2-39.7-522.3-87.7-499.8-143.8-936.2-439.8-1307.4-796.8-123.7-118.1-250.6-232.7-373.7-353.4-305.2-306.2-566.4-656.7-799.5-1020.6-21-33.9-82.2-132.3-101.9-166.4l-16.9-28.6-9-15.3c-136.3-241.6-477.6-16.4-306.4,202.5" transform="translate(.000001 0)" fill="#371a45"/><path d="M24246.2,9968.3c-73.9,0-139,53.4-151.5,128.6-303.4,1827.8-1445.5,3314.8-2546.1,3314.8-84.9,0-153.7,68.8-153.7,153.7c0,85,68.8,153.8,153.7,153.8c1265.4,0,2517-1569,2849.4-3571.9c13.9-83.8-42.7-163-126.5-176.9-8.5-1.4-17-2.1-25.3-2.1" fill="#371a45"/><path d="M23935.8,20230.6l1026.5-11.3-964-352.9c-283.3-83.1-357.4,348-62.5,364.2" fill="#371a45"/><path d="M25631.5,16552.6c-944.3,0-1957.2,417.3-2022,444.4-94.1,39.4-138.4,147.6-99,241.7s147.5,138.6,241.7,99.2c610.2-255.1,2322.1-761.6,2908.2-52.7c65,78.7,181.6,89.8,260.2,24.7c78.6-65,89.7-181.5,24.7-260.1-309.5-374.4-801.7-497.2-1313.8-497.2" fill="#371a45"/><path d="M23396.4,20062.3l-44.3,831.8l399.8-730.7c50.2-91.8,16.5-207-75.3-257.2-118.4-68.6-275.9,20.6-280.2,156.1" fill="#371a45"/><path d="M17051.5,19329.7c30.2,275.6,78.6,537,142.2,803.8c63.9,260.5,145.3,519.2,260.4,760.6-83-389-87.2-781.9-67-1174.8c7.5-129.2,18.1-262.1,34-385.1c21.5-274.1-384.2-279.6-369.6-4.5" fill="#371a45"/><path d="M21793.4,8143.1c-255.1,0-511.2,68.8-737.5,212-489.8,310-908.1,838.8-1209.4,1421.5c448.8-387.3,780.9-535.5,1025.9-535.5c619,0,683.8,944.4,682.3,1362.2c441.7-828.9,798-1799.2,672.1-2254.8-27-97.4-71.3-143.8-111.7-168.7-105.5-24.3-213.5-36.7-321.7-36.7" fill="#c8c0cb"/><path d="M21796.4,7955.8c-288.7,0-579.5,78.7-839.4,243-617,390.5-1138.2,1118.2-1459.1,1886c60-48.2,120.5-101,181.5-157.9c57.4-53.7,113.1-103.7,167.1-150.3c301.3-582.7,719.6-1111.5,1209.4-1421.5c226.3-143.2,482.4-212,737.5-212c108.2,0,216.2,12.4,321.7,36.7-13.5-8.3-26.5-14.2-38.3-18.8-80.6-31.2-125.8-114.3-112.3-196.3-55.8-5.9-111.9-8.9-168.1-8.9" fill="#371a45"/><path d="M22599.8,8391.5c66,521.6-199.2,1305.4-546,2022.7c194-121.2,340.3-172.8,448.8-172.8c531.1,0,156,1237.1,30.2,1612.4c72.1-71.4,143-144.5,212.8-218.8-41.6,79-85.8,156.7-132.5,233l623.5-489.2c0,0,45.4,119.5,294.2,415.7c246.5-468.2,437.8-1011.2,545.2-1591l-1151.9-1505c-93.1-121.6-203-224.2-324.3-307" fill="#c8c0cb"/><path d="M22528.8,8133.1c17.3,37.3,32,77.3,43.7,119.8c12.1,43.7,21.2,90.1,27.3,138.6c121.3,82.8,231.2,185.4,324.3,307l1151.9,1505c6.5-35.4,12.8-70.9,18.7-106.6c6.6-40.1,28.3-74,58.2-96.9L23071,8586.2c-149.2-194.9-335.6-347.1-542.2-453.1" fill="#371a45"/><path d="M24323.1,10526.4c-127.6,555.5-325.7,1069.6-573,1515.7c257.8,278.5,641.9,656.6,1212,1156c1550.8,1358.2,640.7,2972.5,640.7,2972.5-131.2-25.9-264.8-37.3-398.2-37.3-485.2,0-969,150.8-1335.5,301.6-183.4,75.4-337.4,150.9-447.6,207.4v417.3l193.2-64.8c101.1-41.9,1091.8-442.2,2016.8-442.2c394.8,0,777.7,73,1074.2,277.9c722.9-2699.4,161-4486.8-1713.3-5458.5-24.1-12.5-45.2-30.1-61.7-51.7l-607.6-793.9" fill="#c8c0cb"/><path d="M24373.1,10287.7c-15.2,80.3-31.9,160-50,238.7l607.6,793.9c16.5,21.6,37.6,39.2,61.7,51.7c1874.3,971.7,2436.2,2759.1,1713.3,5458.5c55.3,38.2,107.7,81.1,156.5,129c721-2618,341-4649.3-1784.8-5751.4l-704.3-920.4" fill="#371a45"/><path d="M23051.9,16748.1c-90.1,10.2-203.7,24.3-318.5,38.4-164.4,20.3-331.3,40.5-435.1,49.1v600.5l753.6-252.7v-435.3" fill="#c8c0cb"/><path d="M23421.5,16642.3c-109.9,56.5-176.1,94.1-184.1,94.1-.6,0-.8-.1-.8-.5c0-1.8-5.6-2.6-15.9-2.6-27.6,0-88.9,5.9-168.8,14.8v435.3l369.6-123.8v-417.3" transform="translate(0 0.000001)" fill="#371a45"/><path d="M22298.3,16835.6c-32.8,2.7-59.3,4.2-77.5,4.2-14.1,0-23.1-.9-26.1-2.9-.6-.4-1.2-.6-1.7-.6-24.7,0-18.8,393.4-12.6,639.3l117.9-39.5v-600.5" fill="#371a45"/><path d="M23614.7,16994.8l-193.2,64.8-369.6,123.8-753.6,252.7-117.9,39.5c2.7,110.3,5.5,190.9,5.6,193l12.4-4.2l1306-442.2c-28-90,16.5-188.1,105.1-225.2c1.3-.6,3.1-1.3,5.2-2.2" fill="#371a45"/><path d="M22198.4,17664.4l-12.4,4.2v0l12.4-4.2" fill="#371a45"/><g><path d="M25634.4,16923.1c-561.6,0-1194.9,166.6-1618,314.4c273.2,327.1,466.2,813.3,523.2,1334.4c457.8,4.7,1155.9,7.4,1155.9,7.4c1053.2,2203.8-899.4,3410.7-899.4,3410.7-961.6-423.1-2011.4-551-2928.6-551-536.6,0-1027.9,43.8-1429.6,97.8c51.4-1.1,102.7-1.7,154-1.7c984.8,0,1967.3,208.7,2892.4,624.5c461.8,207.5,894.3,459.8,1293.1,752.2c392.4-171.4,1136.8-584.4,1591.1-1390.9c684.2-1214.5,819.2-3271.4,281.6-4247.9-222.9-258.4-599.6-349.9-1015.7-349.9" fill="#c8c0cb"/><path d="M26650.1,17273c537.6,976.5,402.6,3033.4-281.6,4247.9-454.3,806.5-1198.7,1219.5-1591.1,1390.9c55.8,40.9,111.2,82.7,165.7,125.2c236.8-115.7,467.9-265,694.6-441.3-25.6-72.6-3.8-156.6,60.1-206.8c33.8-26.7,74.1-39.6,114.1-39.6c32.3,0,64.4,8.4,92.8,24.9c80.1-70.5,159.6-144.2,238.7-220.7c139.5-158.1,271.2-338,385.9-541.7c650.7-1154.6,867.9-3149,357-4279.4-26.3,13.3-54.9,19.9-83.4,19.9-53.1,0-105.9-22.9-142.5-67.1-3.4-4.1-6.8-8.2-10.3-12.2" fill="#371a45"/><path d="M24016.4,17237.5c-63.5,22.1-122.3,43.9-175.4,64.6l10.7,26.6c264,300.2,444.9,764.7,501.1,1240.9v0c54.7.8,118,1.6,186.8,2.3-57-521.1-250-1007.3-523.2-1334.4" fill="#371a45"/><path d="M23851.7,17328.7l501.1,1240.9c-56.2-476.2-237.1-940.7-501.1-1240.9" fill="#371a45"/></g><path d="M22745.6,11635c-69.8,74.3-140.7,147.4-212.8,218.8-21,62.5-35,101.1-36.8,106.2l117.1-92c46.7-76.3,90.9-154,132.5-233" fill="#371a45"/><path d="M21964.5,7964.7c-13.5,82,31.7,165.1,112.3,196.3c11.8,4.6,24.8,10.5,38.3,18.8c40.4,24.9,84.7,71.3,111.7,168.7c125.9,455.6-230.4,1425.9-672.1,2254.8-.5,118.7-6.3,194.8-6.3,194.8c196.5-169.7,363.7-295.4,505.4-383.9c346.8-717.3,612-1501.1,546-2022.7-6.1-48.5-15.2-94.9-27.3-138.6-11.7-42.5-26.4-82.5-43.7-119.8-176.9-90.8-368.5-147.6-564.3-168.4" transform="translate(.000001 0)" fill="#371a45"/><path d="M24152.9,10000c-29.9,22.9-51.6,56.8-58.2,96.9-5.9,35.7-12.2,71.2-18.7,106.6-107.4,579.8-298.7,1122.8-545.2,1591c60.4,71.9,132.7,154.1,219.3,247.6c247.3-446.1,445.4-960.2,573-1515.7c18.1-78.7,34.8-158.4,50-238.7l-220.2-287.7" fill="#371a45"/><path d="M25631.5,16552.6c-925,0-1915.7,400.3-2016.8,442.2-2.1.9-3.9,1.6-5.2,2.2-88.6,37.1-133.1,135.2-105.1,225.2l267.7-90.7l68.9,170.6c53.1-20.7,111.9-42.5,175.4-64.6c423.1-147.8,1056.4-314.4,1618-314.4c416.1,0,792.8,91.5,1015.7,349.9c3.5,4,6.9,8.1,10.3,12.2c36.6,44.2,89.4,67.1,142.5,67.1c28.5,0,57.1-6.6,83.4-19.9-25.9-57.3-53.6-112.4-83.3-165c20.5-69.7,40.3-139.1,59.2-207.9-48.8-47.9-101.2-90.8-156.5-129-296.5-204.9-679.4-277.9-1074.2-277.9" fill="#371a45"/><path d="M28596.7,23371.2c0,0-5.1,2-15.3,6.1.6.3,1.4.5,2.2.5c5.4,0,13.1-6.6,13.1-6.6" fill="#bb96d0"/><g id="e6Wb5nIQpBC84"><path d="M26997.9,26167.6c-1344.6-3539.5-5304-5318.9-8843.6-3974.2-3539.5,1344.6-5318.9,5304-3974.2,8843.5c1344.6,3539.6,5304,5319,8843.5,3974.3c3539.6-1344.6,5319-5304,3974.3-8843.6" fill="#f8f8f8"/><path d="M20591.8,21950.5c-296.1,0-592.3,20-887.1,60.2c2.3,0,4.5,0,6.8,0c554.8,0,1105.7,79.9,1637.4,242.3c1733.1,529.4,3134.2,1895.1,3949,3848c105-70.2,216-127,332-168.8l.9-27.8c-69.5-179.9-466.6-1149.9-1285-2077.8-1013.6-1149.3-2234.2-1777.9-3638-1875.1-38.7-.6-77.3-1-116-1m3016.6,728.6c400.1,295.5,733.8,619.3,1005,927.8c942.4,1072.2,1338,2164.9,1354.4,2210.9c4.3,12.1,7.3,24.6,8.8,37.3c40.5-3.7,81.3-5.5,122.4-5.5c6,0,11.9,0,17.9.1c40.8.5,81,2.9,120.6,6.9c168.5,17.2,325.3,65.8,468.4,141.2-295.8-696.7-701.6-1328-1199.1-1874.5l-49.2,5.9-321.9-382c-451.5-422.1-964.1-781.8-1527.3-1068.1m3524.3,7089.2c-249.4,306.7-576.2,501.9-959.2,530.1-91.5,1147.7-472,2251.5-1094.6,3207.2c1079-990.5,1797.2-2311.1,2053.8-3737.3" fill="#c8c0cb"/><path d="M14223.6,25974.1c383.6-882.9,1026.5-1831.6,2085.6-2729.6c3034-2020.9,7120.8-1239.5,8849.1,2961.2l-273,3481.6c-145.4,536.7-442.6,1045.7-850.3,1506.9-2499.6,2825.8-9143.8,3855.8-10233-1617.9c0,0-432.8-1635.8,421.6-3602.2" fill="#371a45"/><path d="M19711.6,22348.9c-994.4,0-2003.7,272.8-2929.3,801.9-922.9,644.7-1650.5,1504.9-2138.2,2482.3c1217.8-968.3,2485.3-1380.9,3682.6-1380.9c1139.5,0,2215.6,373.7,3124.3,997.4-54.8-100-114.3-200.1-179-299.9-198.4-306.5-102-716.7,211.2-904.2v0c103.8-62.2,218.5-92.1,332-92.1c201.4,0,398.8,94,524.3,268.2c303.3,420.7,713.5,1109.4,931.8,1987.9c61.2,246.6-30.4,494.1-212.4,646.9c797.8,1154.2,1211.5,2573.6,1029.2,4005.1c301.2-386.3,516.4-793.5,629.7-1203.6l14.5-185c-241.5-387.8-383.1-882.6-376-1419.9c5.6-429.5,105.5-829.4,273.9-1167.3c94.8-190.3,211.3-361,344.9-506.2l11.5-146.6c-775.3-1859.2-2101-3156.9-3736.4-3656.5-499.4-152.4-1016.9-227.5-1538.6-227.5" fill="#1c1a31"/><path d="M20307.8,21592.6c-132.3,0-267.1,4.4-404.9,13.4-95.4,6.2-167.6,88.5-161.4,183.9c6.3,95.3,88.1,168.3,183.9,161.3c1736-113.5,3222.9,517.6,4420.4,1875.4c818.4,927.9,1215.5,1897.9,1285,2077.8l-145.8,4292c-672.1,1523.5-2031.5,2749.2-3831.5,3453.9-1842.7,721.4-3840.8,756.5-5344.9,94.1-87.4-38.5-189.5,1.1-228,88.6-38.5,87.4,1.1,189.5,88.6,228c1586.5,698.8,3683.9,665.7,5610.4-88.5c1898.2-743.1,3331.4-2045.9,4035.8-3668.2c8.7-19.9,13.5-41.3,14.2-63l148.1-4359.6c.8-21.8-2.6-43.5-9.9-63.9-16.4-46-412-1138.7-1354.4-2210.9-823.1-936.5-2223.4-2014.1-4305.6-2014.3" fill="#371a45"/><path d="M19711.5,22010.7c-1198.3,0-2414.6,372.8-3496.2,1093.3-77.7,51.8-98.7,156.7-46.9,234.4c51.7,77.8,156.7,98.7,234.4,47c1497.6-997.6,3264.4-1292.4,4847.4-809c1635.4,499.6,2961.1,1797.3,3736.4,3656.5l-268.8,3425c-270.2,978-1119.8,1939.5-2333.5,2640.2-1211.4,699.4-2662.8,1074.8-3981.8,1030.6-1384.2-46.7-3801-600.5-4435-3785.5-18.2-91.6-107.3-151.2-198.8-132.8-91.6,18.2-151.1,107.2-132.9,198.8c496.4,2493.4,2229.6,3972.3,4755.3,4057.5c2954.1,99.1,6063.9-1739.6,6657.2-3935.6c2.7-10.1,4.5-20.4,5.3-30.8l273.3-3481.4c2-26.4-2.2-53-12.2-77.5-812.4-1974.5-2220.8-3355.4-3965.8-3888.4-531.7-162.4-1082.6-242.3-1637.4-242.3" fill="#371a45"/><path d="M20586.3,35254.1c-927,0-1851.6-196.4-2722.5-587.8-1619.7-727.9-2859.1-2043-3489.7-3703.1-1301.8-3426.9,427.1-7274,3854-8575.8c1660.1-630.6,3466.3-577,5086,150.9c1619.8,727.9,2859.1,2043,3489.8,3703l194-73.7-194,73.7c1301.8,3426.9-427.1,7274.1-3854,8575.9-767.5,291.6-1566.5,436.9-2363.6,436.9m5.6-13719c-847,0-1695.7,154.4-2511.3,464.2-3640.9,1383.2-5477.7,5470.5-4094.6,9111.4c670,1763.7,1986.8,3160.9,3707.7,3934.3s3640,830.3,5403.7,160.3c3640.9-1383.2,5477.7-5470.5,4094.6-9111.4-670-1763.7-1986.8-3160.9-3707.7-3934.3-925.1-415.8-1907.6-624.5-2892.4-624.5" fill="#371a45"/><path d="M27667.9,28082.1c16.2-1229.4-594.4-2219.8-1550.8-2232.4-956.3-12.5-1744.6,973.9-1760.8,2203.3s746,2236.3,1702.3,2248.8c956.3,12.6,1593.2-990.3,1609.3-2219.7" fill="#f8f8f8"/><path d="M26099,25849.6c-41.1,0-81.9,1.8-122.4,5.5v0c40.5-3.6,81.3-5.5,122.5-5.5c6,0,12,.1,18,.1c40.8.6,80.9,2.9,120.4,6.9-39.6-4-79.8-6.4-120.6-6.9-6-.1-11.9-.1-17.9-.1m-469.1,82.6c-116,41.8-227,98.6-332,168.8v0c105-70.2,216.1-127,332-168.7v-.1" fill="#a496a9"/><path d="M25976.6,25855.1c-119.1,10.7-235.2,36.9-346.7,77.1v.1c111.5-40.2,227.5-66.5,346.7-77.2v0" fill="#371a45"/><path d="M24975.1,26379.5c-133.6,145.2-250.1,315.9-344.9,506.2c94.8-190.3,211.3-360.9,344.9-506.2v0" fill="#231a36"/><path d="M25297.9,26101c-115.7,77.4-224,171-322.8,278.5v0c98.8-107.5,207.1-201.1,322.8-278.5v0" fill="#371a45"/><path d="M27667.9,28082.1c-1.4,106.7-7.5,211.7-18,314.4c0,.5,0,.3,0,.7c10.7-103,16.7-208.4,18-315.1" fill="#bb96d0"/><path d="M27649.9,28396.5c-.7,7-1.5,14.1-2.2,21.1v.1c.8-6.8,1.5-13.6,2.2-20.5c0-.4,0-.2,0-.7" fill="#371a45"/><path d="M26099.1,25849.6c-41.2,0-82,1.9-122.5,5.5-119.2,10.7-235.2,37-346.7,77.2-115.9,41.7-227,98.5-332,168.7-115.7,77.4-224,171-322.8,278.5-133.6,145.3-250.1,315.9-344.9,506.2-168.3,337.9-268.1,737.6-273.7,1167.1-5.1,389.6,67.7,757.5,200.8,1077.7c157.4-1031,867-1807.3,1709.9-1807.3c5.9,0,11.7,0,17.6.1c632.7,8.6,1114.1,444.3,1362.9,1094.3.7-7,1.5-14.1,2.2-21.1c10.5-102.7,16.6-207.7,18-314.4v0c15.3-1176.9-543.2-2134.7-1430.4-2225.5-39.5-4-79.6-6.3-120.4-6.9-6,0-12-.1-18-.1" fill="#c8c0cb"/><path d="M26076.5,30094.4c-5,0-10-.1-15.1-.1-840.4-11.1-1512.2-925.5-1497.5-2038.5c7.2-548.7,178.5-1060.3,482.4-1440.6c291.7-365,671-563.2,1068.1-557.9c795.2,10.5,1361.2,860.8,1345.9,2022-7.4,568.2-154.7,1086.6-414.8,1459.7-177.1,254.2-488.5,555.4-969,555.4Zm22.3-4452.4c-520.2,0-1008.3,253-1376.8,714-361.3,452.1-564.8,1053.8-573.3,1694.3-17.6,1341.9,837.9,2445,1907.2,2459.1c521.5,5.5,996-253.4,1330.2-733c307-440.5,480.8-1041.3,489.4-1691.6c18.4-1401.7-719.9-2429-1755.6-2442.6-7.1-.1-14.1-.2-21.1-.2" transform="translate(.000001 0)" fill="#371a45"/><path d="M26695.3,25994.7c-836.9,0-1527.7,934.6-1543.2,2093-7.1,553.6,138.4,1078.1,409.6,1477c284.2,418,672.3,651.1,1092.9,656.5c84.9,1.1,170.6-8,254.3-26.6c7.3-1.6,14.5-3.7,21.5-6.2c89.8-32.7,136.4-132,103.8-221.8-30.7-84.3-119.9-130.3-204.8-108.7-56.3,12.2-114.2,17.9-170.6,17.3-304.1-3.8-592.2-183.2-811-505-231.7-340.8-356-794.7-349.8-1277.9c13-969.2,548.9-1751.6,1196.8-1751.6c3.7,0,7.2,0,10.9,0c88.6,1.2,174,16.9,253.6,46.7c89.7,33.4,189.2-12.1,222.6-101.6s-12.1-189.1-101.6-222.5c-117-43.7-241.5-66.7-370-68.5-4.9-.1-10.1-.1-15-.1" fill="#371a45"/><path d="M15258.9,26767c-68.7,0-137.3,39.1-161.1,121.5-846.8,2934.4-430.7,5471.4,3656.1,5681.8c3.4.2,6.7.3,10,.3c167.9,0,234.9-222.5,88.9-313.5-2033.1-1267.2-3214.2-3023.3-3424-5336.6-9-100-89.5-153.5-169.9-153.5" fill="#9b8da2"/><path d="M22717.9,27965.1c-309.7,0-579.3,222-635.6,531.7-6.9,37.5-13.9,73.8-21,108.9-71.2,348.9,150.3,690.2,499.1,761.8l27.4,5.6c43.7,8.9,87.3,13.3,130.4,13.3c278.7,0,533.1-181.2,618.1-457.1c14.4-46.8,28-93.5,41-139.9c109.1-391.5-164.5-785.7-569.5-819.1l-36.3-3c-18-1.5-35.9-2.2-53.6-2.2" fill="#9b8da2"/><path d="M21451,25249.6c233.5,426.3,380.4,852.4,467.2,1258.8c65.5,306.6,333,518.9,633.6,518.9c44.7,0,90.1-4.7,135.7-14.5c30.2-6.5,60.5-13,90.7-19.4c107.1-23,202.3-71.2,280.7-137-433.7-627.4-981.1-1176.6-1607.9-1606.8" fill="#9b8da2"/><path d="M21815.2,23953.4c-113.5,0-228.2,29.9-332,92.1v0c-313.2,187.5-409.6,597.7-211.2,904.2c64.7,99.8,124.2,199.9,179,299.9c626.8,430.2,1174.2,979.4,1607.9,1606.8c182-152.8,273.6-400.3,212.4-646.9-218.3-878.5-628.5-1567.2-931.8-1987.9-125.5-174.2-322.9-268.2-524.3-268.2" fill="#8e8d98"/></g><path d="M19506.4,12747.8c-192.7,82.1-703.3,345.9-1167.3,986.3c234.1-43.7,607.1-95.7,1054.1-95.7c688.6,0,1552.8,123.5,2355.7,591.7-266.2-310.7-507.7-641.7-717.6-993.1-49.7,5.6-99.9,8.3-150.5,8.3-481.2,0-993.9-240.4-1374.4-497.5" fill="#c8c0cb"/><path d="M19381.3,12648.7c-539.3,234.7-987.6,598.5-1307.9,1144c0,0,96.7-27.1,265.7-58.6c464-640.4,974.6-904.2,1167.3-986.3-29.8-20.2-58.8-40.4-87-60.7-15.1-12.1-27.8-25-38.1-38.4" fill="#371a45"/><path d="M19510.5,12595.6c-43.6,16.9-86.7,34.6-129.2,53.1c10.3,13.4,23,26.3,38.1,38.4c28.2,20.3,57.2,40.5,87,60.7c380.5,257.1,893.2,497.5,1374.4,497.5c50.6,0,100.8-2.7,150.5-8.3-5.7-9.6-11.5-19.2-17.2-28.8-5.9-9.8-19.5-33.5-26-44.2-.7-1-1.3-1.9-1.2-1.9c0,0,0,.1.1.3.4.5.7,1,1.1,1.6.6,1.1,1.4,2.3,1.8,2.8c2.9,4.1,6.2,8,9.8,11.5-33.3-42.5-47.2-85.2-47-124.8-488-32.1-900.3-133.2-1200.4-336.3-65-.8-103.9-8.5-110.5-9.9-61.8-13.1-109.9-56.7-131.3-111.7" fill="#371a45"/><path d="M19574.5,12571.5c-21.4,7.8-42.8,15.9-64,24.1c21.4,55,69.5,98.6,131.3,111.7c6.6,1.4,45.5,9.1,110.5,9.9-64.6-43.8-123.9-92.2-177.8-145.7" fill="#371a45"/><path d="M20952.7,13053.5c-.2,39.6,13.7,82.3,47,124.8-3.6-3.5-6.9-7.4-9.8-11.5-.4-.5-1.2-1.7-1.8-2.8c6.5,10.7,20.1,34.4,26,44.2c5.7,9.6,11.5,19.2,17.2,28.8c209.9,351.4,451.4,682.4,717.6,993.1c123.3,71.8,245.1,151.8,364.6,240.7l-504.6-752.8c-20.1.8-40.2,1.2-60.3,1.2-84.9,0-153.7-68.8-153.7-153.8c0-40.5,15.7-77.4,41.4-104.9l-141.5-211.1-291.7-192.8c-16.9-.9-33.7-2-50.4-3.1m34.2,108.6c-.1,0,.5.9,1.2,1.9-.4-.6-.7-1.1-1.1-1.6-.1-.2-.1-.3-.1-.3" fill="#371a45"/><path d="M21436.3,13460.5c-25.7,27.5-41.4,64.4-41.4,104.9c0,85,68.8,153.8,153.7,153.8c20.1,0,40.2-.4,60.3-1.2l-172.6-257.5" fill="#371a45"/><path d="M16746.6,17425.5l-493.1,1260.6c333.9,973.3,837.7,1555.8,1022.9,1747.2-30.8-99.1-58.1-199.3-82.7-299.8-62.6-262.5-110.5-519.8-140.7-790.5-175.9-150-287.7-373.2-287.7-622.1v-1294.8l-18.7-.6" transform="translate(0 0.000001)" fill="#c8c0cb"/><path d="M16765.3,17426.1v1294.8c0,248.9,111.8,472.1,287.7,622.1-.5-4.4-1-8.8-1.5-13.3-3.8-72.3,21.4-125.2,60.2-159-84.5-168.1-174.7-274.4-161.6-290.3c21.4-25.6-64-1441.1-64-1441.1l-14-9.5-106.8-3.7" fill="#371a45"/><path d="M16771.5,17361.9l-24.9,63.6l18.7.6l106.8,3.7-100.6-67.9" fill="#371a45"/><path d="M16702.4,17315.2l-524.2,1134.2c23.9,81.3,49,160.2,75.3,236.7l493.1-1260.6l24.9-63.6-69.1-46.7" transform="translate(0 0.000001)" fill="#371a45"/><path d="M17111.7,19170.7c-38.8,33.8-64,86.7-60.2,159c.5,4.5,1,8.9,1.5,13.3c30.2,270.7,78.1,528,140.7,790.5c24.6,100.5,51.9,200.7,82.7,299.8c45.3,46.8,71.5,70.2,71.5,70.2l-58.1-346c0,0,4.1-232.9-53.6-610.8-22.1-144.4-72.2-272-124.5-376" fill="#371a45"/><path d="M26307.4,21990.1c-54.4,55.8-109.1,110.3-164,163.4-72.9,82.6-147.8,159.2-223.8,230.3c12.6,9,24.1,19.7,34.4,32.1c97.3-132.3,214-274,353.4-425.8" fill="#371a45"/><path d="M26143.4,22153.5c-79.1,76.5-158.6,150.2-238.7,220.7c5.1,2.9,10.1,6.2,14.9,9.6c76-71.1,150.9-147.7,223.8-230.3" transform="translate(0 0.000001)" fill="#371a45"/><path d="M25709.7,22800.3c-216.5,160.2-426.4,280.5-603.2,368c145.7,120.8,286,247,421.1,378.9-22.7-187.8,16.4-432.9,182.1-746.9" fill="#c8c0cb"/><path d="M25646,22615.3c-256.4,195.8-505.7,333-700,424c54.2,42.2,107.6,85.3,160.5,129c176.8-87.5,386.7-207.8,603.2-368c10.5-19.9,21.4-39.8,32.8-60.2-25.6-29.6-50.8-60.1-75.7-91.8-8.3-10.4-15.2-21.5-20.8-33" fill="#371a45"/><path d="M25637.7,22595.7c-226.7,176.3-457.8,325.6-694.6,441.3.9.8,1.9,1.5,2.9,2.3c194.3-91,443.6-228.2,700-424-3.2-6.5-5.9-13-8.3-19.6" fill="#371a45"/><path d="M25135.7,23747.2l321.9,382l49.2-5.9c-118.5-130.2-242.3-255.7-371.1-376.1" fill="#a496a9"/><path d="M24943.1,23037c-98.7,48.2-198.4,90.6-299.1,126.7l491.7,583.5c128.8,120.4,252.6,245.9,371.1,376.1l378.2-45c0,0-310.5-143-357.4-531.1-135.1-131.9-275.4-258.1-421.1-378.9-52.9-43.7-106.3-86.8-160.5-129-1-.8-2-1.5-2.9-2.3" transform="translate(0 0.000001)" fill="#371a45"/><path d="M25904.7,22374.2c-88.3,77.8-177.3,151.8-267,221.5c2.4,6.6,5.1,13.1,8.3,19.6c5.6,11.5,12.5,22.6,20.8,33c24.9,31.7,50.1,62.2,75.7,91.8c57-101.1,126.9-209.1,211.5-324.2-10.3-12.4-21.8-23.1-34.4-32.1-4.8-3.4-9.8-6.7-14.9-9.6" fill="#371a45"/><path d="M12658.7,20851.3c23.3-50.9,43.1-102.4,59.4-154.5-215-175.4-640.3-421.6-1148.7-654.2-508.2-232.5-972.6-393.3-1246-441.3-28.7,46.4-54.8,95.1-78,146-1.1,2.4-2.2,4.7-3.3,7.1-10.1,22.5-19.5,45.1-28.3,67.8-20.6,53.2-37.5,106.9-50.8,161-.5,2.2-1.1,4.4-1.6,6.6-19.4,80.4-30.9,161.5-35,242.3-7.7,153.7,11.6,306.3,55.4,451.2c106.5,351.7,357.7,657.8,718.2,822.7c357.5,163.5,749.9,155,1083.8,9c137.1-59.9,264.4-143,375.4-246.8c59.3-55.5,114-117,163.1-184c4-5.4,7.9-10.8,11.7-16.3c32.2-45.5,61.9-93.4,88.7-143.7c9.9-18.7,19.4-37.7,28.6-57c2.5-5.3,5-10.5,7.4-15.9" fill="#fff"/><path d="M12774.2,20184.7c-4.7-54.2-12.8-107.8-24.1-160.7-15.7-74.3-37.9-147.1-66.1-217.5-122.1-305.4-357.3-566.2-680-713.8-323.4-148-675.3-155.1-986.7-47.1-68.4,23.7-134.9,53-198.6,87.6-50,27-98.2,57.4-144.5,90.8c325.1,83.2,700.7,216.9,1089.2,394.6s735.2,374.5,1010.8,566.1" fill="#fff"/><path d="M12718.1,20696.9c-215-175.5-640.3-421.8-1148.6-654.3s-972.8-393.3-1246.2-441.3c-28.6,46.4-54.7,95.1-78,146-1.1,2.4-2.1,4.7-3.2,7.1-10.1,22.5-19.6,45.1-28.3,67.8-20.6,53.1-37.4,106.9-50.8,161-.6,2.2-1.1,4.4-1.6,6.6-19.3,80.4-30.9,161.5-35,242.3-7.7,153.7,11.6,306.3,55.4,451.2c86.2,284.5,266.9,539,523.6,713.2-66.8-104-118.7-216.7-154.3-334.4-43.9-144.9-63.2-297.5-55.5-451.2c4.1-80.8,15.6-161.9,35-242.3.5-2.2,1.1-4.4,1.6-6.6.7-2.9,1.7-6.5,3-10.7c67.6-228,313.1-323.4,550-301.9c451.4,40.9,1429,569.3,1637,691.2c14.4-35-15.3-8.2-4.1-43.7" transform="translate(0 0.000001)" fill="#fff"/><path d="M11763.4,19618.6c388.5,177.7,735.2,374.5,1010.8,566.1-4.7-54.2-12.8-107.8-24.1-160.7-212-155.4-551-347.7-946-528.4-378.3-173.1-731.1-300.3-985.4-362.4-50,27-98.2,57.4-144.5,90.8c325.1,83.2,700.7,216.9,1089.2,394.6" fill="#fff"/><path d="M12651.3,20867.2c2.5-5.3,5-10.5,7.4-15.9c23.3-50.9,43.1-102.4,59.4-154.5-215-175.4-640.3-421.6-1148.7-654.2-508.2-232.5-972.6-393.3-1246-441.3-28.7,46.4-54.8,95.1-78,146-1.1,2.4-2.2,4.7-3.3,7.1c259.4,29.8,732.1,185.5,1250.3,422.5c538.6,246.4,978.7,513.3,1158.9,690.3" fill="#fff"/><path d="M10124.3,20187.4l4.2,89.4c180.9-8.6,653.3,143.7,1148.8,370.4c591.1,270.4,972.5,528.9,1043.8,644.5l76.1-47c-94.3-152.9-529.4-425.7-1082.7-678.9-515.2-235.7-993.5-387.7-1190.2-378.4" fill="#fff"/><path d="M10188.6,20639.1l-13.5,88.4c203.2,31.1,555.4,153.7,919,320.1c381,174.3,710.5,366.1,859.8,500.6l59.9-66.4c-155.6-140.2-493.8-337.8-882.5-515.6-370.6-169.5-731.8-294.9-942.7-327.1" fill="#fff"/><path d="M10161.4,19945.1v89.4c207.6-.1,695.7,159.4,1214.6,396.8c544.4,249,1000.8,528.3,1110,679.1l72.5-52.4c-119.2-164.7-579.4-449.2-1145.2-708.1-537.9-246-1029.3-404.9-1251.9-404.8" fill="#fff"/><path d="M11019,19023.3l-1.7,22.2-10.5,19.8l4.1,2.2l4.7.4c179.4,13.7,521.1,125.8,870.4,285.6c351.4,160.7,651.1,340.4,782.4,469l31.3-32c-134.7-131.9-439.4-314.9-795-477.6-359.3-164.4-698.6-275.3-885.7-289.6" fill="#fff"/><path d="M12774.2,20184.7c-40.3-460.2-320.1-886.1-770.2-1092s-955.3-139.1-1329.8,131.3c325.1,83.2,700.7,216.9,1089.2,394.6s735.2,374.5,1010.8,566.1" fill="#fff"/><path d="M13421.5,20993.6c80.9-176.8-181.9-485.4-647.3-808.9-275.6-191.6-622.3-388.4-1010.8-566.1s-764.1-311.4-1089.2-394.6c-549.1-140.7-954.39-137.6-1035.26,39.1-73.44,160.6,136.45,429.7,524.06,720.1c13.3-54.1,30.2-107.8,50.8-161-107.1-88.4-159.8-158.4-141.2-198.9c18.9-41.4,109.3-46.8,250.8-22c273.4,48,737.8,208.8,1246,441.3c508.4,232.6,933.7,478.8,1148.7,654.2c111.3,90.9,166.2,162.8,147.3,204.1-18.5,40.5-105.9,46.5-242.7,23.3-26.8,50.3-56.5,98.2-88.7,143.7c473.2,103.4,814.1,86.2,887.5-74.3" fill="#fff"/><path d="M10205.6,19843.7c2.7-7.2,5.4-14.4,8.2-21.6-107.1-88.3-159.8-158.2-141.2-198.8c18.9-41.4,109.4-46.8,250.8-22c181.3,31.8,446.8,113.3,753.4,232.5-4.9-26.8-4.9-52.1.1-75.3-118.4-44.5-233.1-83.7-341.9-117.2-473.1-145.4-719.8-143.4-748.82-79.9-16.99,37,32.12,130.5,219.42,282.3" fill="#fff"/><path d="M10170.4,19908.1l11.3-14.1c-96.4-74.8-170.8-141.6-226.67-200.4c41.69,61.7,113.37,132.9,215.37,214.5" fill="#fff"/><path d="M10193,19879.9l-11.3,14.1c1.6,1.4,3.5,2.7,5.4,4.1l5.9-18.2" fill="#fff"/><path d="M9955.03,19693.6c-43.73-64.2-54.92-117.9-34.64-162.4c19.83-43.2,66.42-67.4,130.91-77.6c168.2-26.7,457.7,42.5,704.9,118.5c111.9,34.3,229.9,74.9,351.6,120.6c23.4-29.5,58.2-52.6,103.2-69.7-179.9-68.7-354.4-126.8-517.9-172.5-582.8-163-836.03-119.2-875.87-32.3-22.1,48.3,9.8,140.9,137.8,275.4" fill="#fff"/><path d="M11739.5,19607.7c-380-172.4-746.9-302.2-1065.4-383.7-549-140.7-954.36-137.6-1035.24,39.2-73.39,160.4,136.58,429.6,524.14,720c4-16.1,8.3-32.1,12.9-48.1l-22.1,28.9c-224.95-172.2-477.48-411.9-402.35-575.8c29.02-63.4,97.76-97.7,188.66-112.1c213.99-33.7,549.89,42.4,772.49,104.6c195.4,54.6,406.2,126.8,622.7,212.9c107.7-13.7,244.9-8.6,404.2,14.1" fill="#fff"/><path d="M11107.8,19692.7c-121.7-45.7-239.7-86.3-351.6-120.6-247.2-76-536.7-145.2-704.9-118.5-64.49,10.2-111.08,34.4-130.91,77.6-20.28,44.5-9.09,98.2,34.64,162.4c55.87,58.8,130.27,125.6,226.67,200.4l11.3-14.1c4.1-12.1,8.3-24.1,12.6-36.2-187.3-151.8-236.41-245.3-219.42-282.3c29.02-63.5,275.72-65.5,748.82,79.9c108.8,33.5,223.5,72.7,341.9,117.2c2.3-11.6,6-22.7,10.8-33.3c5.3-11.5,12-22.4,20.1-32.5" fill="#fff"/><path d="M10181.7,19894c-96.4-74.8-170.8-141.6-226.67-200.4c41.69,61.7,113.37,132.9,215.37,214.5l11.3-14.1" fill="#fff"/><path d="M10193,19879.9l22.6-28.2c-3.4-2.6-6.7-5.3-10-8-4.3,12.1-8.5,24.1-12.6,36.2" fill="#fff"/><path d="M12457.3,20350.2c-237.2-148.5-523.3-300.7-827.4-439.8-176.8-80.9-353-154.4-522.1-217.7-8.1,10.1-14.8,21-20.1,32.5-4.8,10.6-8.5,21.7-10.8,33.3c169.1,63.1,345.7,136.6,522.9,217.7c301.3,137.8,584.5,288.4,818.9,435.4c419.4,262.9,579.1,450.9,550.2,514.2-17.4,37.9-123.5,61.9-369.7,16.2l-9.9,53.5-3.3,17.7c129,24,230,31.7,304.1,22.9c76.5-9.2,124.3-35.9,144.6-80.1c71.6-156.5-274.6-415.8-577.4-605.8" fill="#fff"/><path d="M11335.3,19593.6c-216.5-86.1-427.3-158.3-622.7-212.9-222.6-62.2-558.5-138.3-772.49-104.6-90.9,14.4-159.64,48.7-188.66,112.1-75.13,163.9,177.4,403.6,402.35,575.8l22.1-28.9c3.6-12.4,7.2-24.8,11.2-37-1.9-1.4-3.8-2.7-5.4-4.1l-11.3,14.1c-102-81.6-173.68-152.8-215.37-214.5-128-134.5-159.9-227.1-137.8-275.4c39.84-86.9,293.07-130.7,875.87,32.3c163.5,45.7,338,103.8,517.9,172.5c35.3-13.5,76.9-23.3,124.3-29.4" fill="#fff"/><path d="M10170.4,19908.1l11.3-14.1c-96.4-74.8-170.8-141.6-226.67-200.4c41.69,61.7,113.37,132.9,215.37,214.5" fill="#fff"/><path d="M10175.9,19935.1l21.9-28.6c-3.6-2.9-7.2-5.6-10.7-8.4-4,12.2-7.6,24.6-11.2,37" fill="#fff"/><path d="M12630.4,20258.1c-263.7-175-584.4-350.4-927.5-507.4-123.2-56.4-246.3-108.9-367.6-157.1-47.4,6.1-89,15.9-124.3,29.4c151.3,57.6,306.5,122.6,461.9,193.6c339.6,155.3,656.8,328.9,917.6,501.8c504.4,334.5,636.8,554.7,597.1,641.7-22.1,48.2-112.7,84.6-297.5,76-81.3-3.9-180.8-16.5-300.8-40.6-6.6-1.4-13.3-2.7-20-4.1l-14.7,70.9c277.3,57.7,623.8,91.9,698.8-72c97.5-213.1-348.4-550.2-623-732.2" fill="#fff"/><path d="M13421.5,20993.6c80.9-176.8-181.9-485.4-647.3-808.9-275.6-191.6-622.3-388.4-1010.8-566.1s-764.1-311.4-1089.2-394.6c-549.1-140.7-954.39-137.6-1035.26,39.1-73.44,160.6,136.45,429.7,524.06,720.1c13.3-54.1,30.2-107.8,50.8-161-107.1-88.4-159.8-158.4-141.2-198.9c18.9-41.4,109.3-46.8,250.8-22c273.4,48,737.8,208.8,1246,441.3c508.4,232.6,933.7,478.8,1148.7,654.2c111.3,90.9,166.2,162.8,147.3,204.1-18.5,40.5-105.9,46.5-242.7,23.3-26.8,50.3-56.5,98.2-88.7,143.7c473.2,103.4,814.1,86.2,887.5-74.3" fill="#fff"/><path d="M12658.7,20851.3c23.3-50.9,43.1-102.4,59.4-154.5-215-175.4-640.3-421.6-1148.7-654.2-508.2-232.5-972.6-393.3-1246-441.3-28.7,46.4-54.8,95.1-78,146-11.4,24.8-21.9,49.8-31.6,74.9-20.6,53.2-37.5,106.9-50.8,161-149.5,606.8,147.9,1253.3,737,1522.8s1272.7,71.8,1634-438.1c32.2-45.5,61.9-93.4,88.7-143.7c12.6-23.8,24.6-48.1,36-72.9" fill="#fff"/><path d="M12551.1,20798.7c21.1-46,39-92.7,53.8-139.8-194.6-158.7-579.3-381.4-1039.2-591.8-459.8-210.4-880-355.9-1127.3-399.3-25.9,42-49.5,86.1-70.6,132.1-1,2.2-1.9,4.3-2.9,6.5-9.2,20.3-17.7,40.7-25.6,61.3-18.6,48.1-33.9,96.7-46,145.7-.5,1.9-1,3.9-1.4,5.9-17.5,72.8-28,146.1-31.7,219.2-7,139.1,10.5,277.1,50.2,408.2c96.3,318.2,323.6,595,649.7,744.2c323.4,148,678.4,140.3,980.5,8.2c124-54.1,239.1-129.3,339.5-223.2c53.8-50.2,103.2-105.9,147.6-166.5c3.6-4.9,7.1-9.8,10.6-14.8c29.2-41.1,56-84.5,80.2-130c9-16.9,17.7-34.1,25.9-51.5c2.3-4.8,4.5-9.6,6.7-14.4" fill="#ffb200"/><path d="M12655.6,20195.6c-4.3-49-11.5-97.5-21.8-145.4-14.2-67.2-34.3-133-59.8-196.7-110.4-276.4-323.2-512.3-615.1-645.8-292.6-133.9-611-140.3-892.7-42.6-61.9,21.5-122,48-179.6,79.2-45.3,24.5-88.9,52-130.8,82.2c294.1,75.3,633.9,196.2,985.4,357c351.4,160.8,665.1,338.8,914.4,512.1" fill="#ff9100"/><path d="M12604.9,20659c-194.5-158.8-579.3-381.6-1039.2-591.9-459.8-210.4-880-355.9-1127.3-399.3-25.9,42.1-49.5,86.1-70.6,132.1-1,2.2-1.9,4.3-2.9,6.5-9.2,20.3-17.7,40.7-25.6,61.3-18.6,48-33.9,96.7-46,145.7-.5,1.9-1,3.9-1.4,5.9-17.5,72.8-28,146.1-31.7,219.2-7,139,10.5,277.1,50.2,408.2c77.9,257.4,241.4,487.6,473.6,645.2-60.4-94-107.3-196-139.6-302.5-39.7-131.1-57.2-269.1-50.1-408.2c3.6-73.1,14.1-146.4,31.6-219.2.5-2,1-4,1.5-6c.6-2.6,1.5-5.8,2.6-9.6c61.2-206.3,283.3-292.6,497.6-273.2c408.4,37,1292.8,515.1,1480.9,625.4c13.1-31.7-13.8-7.5-3.6-39.6" fill="#ff9100"/><path d="M11741.2,19683.5c351.4,160.8,665.1,338.8,914.4,512.1-4.3-49-11.5-97.5-21.8-145.4-191.8-140.6-498.5-314.5-855.8-478-342.3-156.5-661.4-271.7-891.4-327.9-45.3,24.5-88.9,52-130.8,82.2c294.1,75.3,633.9,196.2,985.4,357" fill="#d66b09"/><path d="M12544.4,20813.1c2.3-4.8,4.5-9.6,6.7-14.4c21.1-46,39-92.7,53.8-139.8-194.6-158.7-579.3-381.4-1039.2-591.8-459.8-210.4-880-355.9-1127.3-399.3-25.9,42-49.5,86.1-70.6,132.1-1,2.2-1.9,4.3-2.9,6.5c234.6,26.9,662.3,167.8,1131.1,382.2c487.3,222.9,885.4,464.3,1048.4,624.5" fill="#d66b09"/><path d="M10258.3,20198.1l3.8,80.8c163.7-7.8,591,130,1039.3,335.1c534.8,244.6,879.8,478.5,944.3,583.1l68.9-42.5c-85.3-138.3-479-385.2-979.5-614.2-466.1-213.2-898.8-350.8-1076.8-342.3" fill="#d66b09"/><path d="M10316.5,20606.7l-12.3,80c183.9,28.1,502.5,139.1,831.5,289.5c344.7,157.7,642.7,331.3,777.8,453l54.2-60.1c-140.8-126.9-446.7-305.6-798.4-466.4-335.3-153.4-662.1-266.8-852.8-296" fill="#d66b09"/><path d="M10291.8,19978.8l.1,81c187.8-.1,629.3,144.1,1098.8,358.9c492.5,225.3,905.4,477.9,1004.2,614.4l65.6-47.4c-107.9-149-524.2-406.4-1036.1-640.6-486.6-222.6-931.1-366.4-1132.6-366.3" fill="#d66b09"/><path d="M11067.7,19144.9l-1.5,20.1-9.5,17.9l3.7,2l4.2.4c162.3,12.3,471.4,113.8,787.5,258.4c317.8,145.4,589,307.9,707.8,424.2l28.3-28.9c-121.9-119.3-397.5-284.9-719.2-432.1-325-148.7-632-249.1-801.3-262" fill="#d66b09"/><path d="M10877.1,19307.2c321.5-188.2,718.6-210.5,1060.9-53.9s585.1,471.6,652.9,838c-241.9-159.3-526.1-314.9-828.8-453.4-302.8-138.5-606.4-251.9-885-330.7Zm583-258.1c-259.2,0-516.9,80.2-733.7,236.7l-86.8,62.7l103.7,26.6c301.8,77.2,639.7,199.7,977,354s650.8,329.9,906.7,507.7l87.9,61.1-9.3-106.7c-39.2-447.9-317.3-842.2-725.9-1029.1-165.5-75.7-342.9-113-519.6-113" fill="#371a45"/><path d="M13241.2,20927.4c73.2-160-164.5-439.1-585.6-731.8-249.3-173.3-562.9-351.3-914.4-512.1s-691.3-281.7-985.4-357c-496.8-127.3-863.42-124.5-936.58,35.4-66.44,145.2,123.44,388.7,474.08,651.5c12.1-49,27.4-97.6,46-145.7-96.9-80-144.6-143.3-127.8-180c17.2-37.4,98.9-42.3,226.9-19.9c247.3,43.4,667.5,188.9,1127.3,399.3c459.9,210.4,844.6,433.1,1039.2,591.8c100.6,82.2,150.4,147.3,133.3,184.6-16.8,36.7-95.9,42.1-219.7,21.1-24.2,45.5-51,88.9-80.2,130c428.1,93.6,736.5,78,802.9-67.2" fill="#ffd766"/><path d="M10331.9,19887.1c2.4-6.5,4.9-13,7.4-19.5-96.9-79.9-144.6-143.2-127.8-179.9c17.2-37.5,99-42.3,226.9-19.9c164,28.8,404.2,102.6,681.6,210.4-4.4-24.3-4.4-47.1.1-68.2-107.1-40.2-210.9-75.7-309.3-106-428-131.5-651.2-129.7-677.4-72.3-15.4,33.5,29,118.1,198.5,255.4" transform="translate(0 0.000001)" fill="#ffaa39"/><path d="M10300,19945.4l10.2-12.8c-87.1-67.6-154.4-128.1-205-181.3c37.7,55.8,102.5,120.3,194.8,194.1" fill="#ff9100"/><path d="M10320.5,19919.9l-10.3,12.7c1.5,1.3,3.2,2.5,4.9,3.7l5.4-16.4" fill="#ff9100"/><path d="M10105.2,19751.3c-39.6-58-49.7-106.7-31.4-146.9c18-39.1,60.1-61,118.5-70.2c152.2-24.1,414.1,38.5,637.7,107.2c101.2,31.1,207.9,67.8,318.1,109.1c21.2-26.7,52.6-47.6,93.3-63-162.7-62.2-320.6-114.8-468.5-156.1-527.3-147.5-756.3-107.9-792.39-29.2-19.99,43.7,8.87,127.5,124.69,249.1" fill="#ffaa39"/><path d="M11719.5,19673.7c-343.7-156-675.6-273.5-963.8-347.2-496.7-127.3-863.38-124.5-936.55,35.5-66.4,145.1,123.55,388.6,474.15,651.4c3.6-14.6,7.6-29.1,11.7-43.6l-20,26.2c-203.5-155.8-431.97-372.7-363.99-521c26.25-57.4,88.39-88.3,170.69-101.4c193.5-30.5,497.4,38.4,698.8,94.7c176.8,49.4,367.5,114.7,563.4,192.6c97.4-12.5,221.5-7.8,365.6,12.8" fill="#ffaa39"/><path d="M11148.1,19750.5c-110.2-41.3-216.9-78-318.1-109.1-223.6-68.7-485.5-131.3-637.7-107.2-58.4,9.2-100.5,31.1-118.5,70.2-18.3,40.2-8.2,88.9,31.4,146.9c50.6,53.2,117.9,113.7,205,181.3l10.3-12.7c3.6-11,7.5-21.9,11.4-32.8-169.5-137.3-213.9-221.9-198.5-255.4c26.2-57.4,249.4-59.2,677.4,72.3c98.4,30.3,202.2,65.8,309.3,106c2.1-10.5,5.4-20.5,9.8-30c4.8-10.5,10.8-20.4,18.2-29.5" fill="#ffcf6e"/><path d="M10310.2,19932.6c-87.1-67.6-154.4-128.1-205-181.3c37.7,55.8,102.5,120.3,194.8,194.1l10.2-12.8" fill="#ffec90"/><path d="M10320.5,19919.9l20.4-25.5c-3-2.4-6.1-4.8-9-7.3-3.9,10.9-7.8,21.8-11.4,32.8" fill="#ffec90"/><path d="M12368.9,20345.4c-214.6-134.4-473.4-272.1-748.5-397.9-160-73.2-319.4-139.7-472.3-197-7.4,9.1-13.4,19-18.2,29.5-4.4,9.5-7.7,19.5-9.8,30c153,57.1,312.7,123.6,473.1,197c272.5,124.7,528.8,260.9,740.8,393.9c379.4,237.8,523.9,407.9,497.7,465.2-15.7,34.2-111.6,56-334.4,14.6l-9,48.4-2.9,16.1c116.7,21.7,208.1,28.6,275.1,20.6c69.2-8.3,112.4-32.4,130.8-72.4c64.7-141.6-248.4-376.2-522.4-548" fill="#ffec90"/><path d="M11353.9,19660.9c-195.9-77.9-386.6-143.2-563.4-192.6-201.4-56.3-505.3-125.2-698.8-94.7-82.3,13.1-144.44,44-170.69,101.4-67.98,148.3,160.49,365.2,363.99,521l20-26.2c3.2-11.2,6.5-22.4,10.1-33.5-1.7-1.2-3.4-2.4-4.9-3.7l-10.2,12.8c-92.3-73.8-157.1-138.3-194.8-194.1-115.82-121.6-144.68-205.4-124.69-249.1c36.09-78.7,265.09-118.3,792.39,29.2c147.9,41.3,305.8,93.9,468.5,156.1c31.9-12.3,69.6-21.1,112.5-26.6" fill="#ffcf6e"/><path d="M10300,19945.4l10.2-12.8c-87.1-67.6-154.4-128.1-205-181.3c37.7,55.8,102.5,120.3,194.8,194.1" fill="#ffaa39"/><path d="M10305,19969.8l19.8-25.9c-3.3-2.6-6.5-5.1-9.7-7.6-3.6,11.1-6.9,22.3-10.1,33.5" fill="#ffec90"/><path d="M12525.6,20262c-238.6-158.3-528.8-317-839.2-459-111.4-51-222.7-98.5-332.5-142.1-42.9,5.5-80.6,14.3-112.5,26.6c136.9,52.1,277.3,110.9,417.9,175.1c307.2,140.6,594.2,297.5,830.1,454c456.4,302.6,576.2,501.8,540.2,580.5-20,43.6-102,76.6-269.1,68.7-73.6-3.5-163.6-14.8-272.2-36.7-5.9-1.2-12-2.4-18.1-3.7l-13.3,64.1c250.9,52.2,564.4,83.2,632.2-65.1c88.2-192.7-315.2-497.7-563.5-662.4" fill="#ffec90"/><path d="M10265,19928.5c-351.38-275.1-438.78-461.3-400.18-545.8c43.94-96,300.48-155.7,878.48-7.6c301.8,77.2,639.7,199.7,977,354s650.8,329.9,906.7,507.7c490,340.6,612.6,573.6,568.6,669.7v0c-38.6,84.4-236.5,140-674.5,54.1c8.4-13.6,16.5-27.2,24.4-41.1c138.3,19.3,212.2,1.9,238.3-55.1c28.6-62.5-16.8-137.8-147.2-244.3-206.6-168.6-599.1-392.3-1050-598.6-451-206.3-877-357-1139.5-403.1-165.8-29-252.6-14.1-281.2,48.4-26,57,9.2,124.4,114.2,216.4-5.3,15-10.4,30.1-15.1,45.3m-105.4-743.3c-180.08,0-332.57,39.1-385.99,155.8-102.44,224,262.79,542.5,489.59,712.5l60.7,45.4l18.1-73.6c11.6-47,26.5-94,44.1-139.5l13-33.8-27.9-23c-83-68.5-105-105.1-110.8-118.9c14.6-4.8,58.3-12.3,169.4,7.1c250.7,44,678,195.6,1115,395.5s831.1,424.1,1028.4,585.1c87.3,71.3,110.1,109.2,116.1,123.4-14.3,4.7-56.5,12-162.4-6l-35.7-6.1-17,31.9c-22.9,43.1-48.7,85-76.8,124.7l-43.7,61.8l73.9,16.1c276.9,60.5,756.8,128.6,859.2-95.3c113.3-247.6-328.9-603.7-602.6-793.9-260.6-181.2-579.5-359.7-922.1-516.5-342.8-156.8-686.4-281.3-993.9-360-170.5-43.7-406.9-92.7-608.6-92.7" transform="translate(0 0.000001)" fill="#371a45"/><path d="M12465.7,20743.8c-2.3,4.3-4.5,8.6-6.8,12.9-24.2,45.5-51.1,88.9-80.2,130.1-1.9,2.7-3.8,5.4-5.8,8.1c16.5,14.3,31.5,28.1,44.6,41.4c20.4-30.8,39.4-62.7,56.7-95.3l17-31.9l35.7,6.1c4.7.8,9.3,1.5,13.8,2.2.9-1.8,1.7-3.6,2.6-5.4-21.8-21.4-47.8-44.2-77.6-68.2m-142.1,214.8c-29.8,35.9-61.5,69.8-94.9,101.6c35.2,31.1,62,59.5,79.5,84.7c33.5-33.4,65.2-69,94.8-106.6l-49.3-10.8l16.8-23.8c-13.1-14.2-28.8-29.2-46.9-45.1m-155.7,155.8c-87.3,72.5-184.1,131.9-286.9,176.8-2.4,1-4.7,2-7,3c36.3,26.5,67.8,51.5,93.7,74.9l-21.2,23.5c116.7-51.7,225.3-122,321.1-209l-21.9,13.5c-13.7-22.2-39.9-50.1-77.8-82.7m-1446.6,67.5c17.6,35,36.9,69.2,57.9,102.4c56.4,38.7,116.9,73.1,181.2,102.6c161.9,74,331.7,109,498.7,109c150.3,0,298.4-28.3,436.6-82.2-31-26.3-68.9-54.7-112.6-84.7-123,41.5-252.7,63.2-384.1,63.2-167,0-336.7-35.1-498.6-109.2-63.5-29-123.3-62.9-179.1-101.1" fill="#ffd269"/><path d="M10391.9,20843.7c88.9,173.2,220.1,325.9,387.3,440.6-21-33.2-40.3-67.4-57.9-102.4-133.8-91.4-244.7-207.1-329.4-338.2" fill="#ffbe69"/><path d="M12509.7,20648.8c-5.7,14.1-11.8,28.1-18.2,42-2.2,4.8-4.5,9.6-6.7,14.3-6.2,13.1-12.5,26-19.1,38.7c29.8,24,55.8,46.8,77.6,68.2.5-1,.9-2,1.4-3c2.3-4.8,4.6-9.6,6.7-14.4c13-28.3,24.7-56.9,35.3-85.6-4.3-3.6-8.8-7.4-13.5-11.2-19.3-15.7-40.5-32.1-63.5-49" fill="#e7a86e"/><path d="M12228.7,21060.2c-2.7,2.6-5.5,5.2-8.2,7.8-17.1,16-34.7,31.5-52.6,46.4c37.9,32.6,64.1,60.5,77.8,82.7l21.9-13.5c4.3-4,8.6-7.9,12.9-11.9c9.4-8.8,18.6-17.7,27.7-26.8-17.5-25.2-44.3-53.6-79.5-84.7" fill="#e7a86e"/><path d="M11874,21294.2c-29.8,12.8-60.2,24.5-90.9,34.8c43.7,30,81.6,58.4,112.6,84.7c15.2-5.9,30.3-12.1,45.2-18.7c1.9-.8,3.7-1.6,5.6-2.4l21.2-23.5c-25.9-23.4-57.4-48.4-93.7-74.9" fill="#e7a86e"/><path d="M12372.9,20894.9c-1.6,2.2-3.2,4.4-4.8,6.6-14.3,19.5-29.2,38.6-44.5,57.1c18.1,15.9,33.8,30.9,46.9,45.1l26.9-38c6.9-9.7,13.6-19.5,20.1-29.4-13.1-13.3-28.1-27.1-44.6-41.4" fill="#e7a86e"/><path d="M12529.8,20597c-6.3,17.3-13,34.6-20.1,51.8c23,16.9,44.2,33.3,63.5,49c4.7,3.8,9.2,7.6,13.5,11.2c6.6-18,12.8-36,18.5-54.1-22.6-18.5-47.8-37.8-75.4-57.9m-38.6,212.1l-17,31.9c-17.3,32.6-36.3,64.5-56.7,95.3-6.5,9.9-13.2,19.7-20.1,29.4l-26.9,38-16.8,23.8l49.3,10.8c8.5-10.9,16.9-21.9,25-33c3.7-4.9,7.2-9.8,10.7-14.8c29.1-41.1,55.9-84.4,80.1-130c7.6-14.2,14.9-28.5,21.9-43.1-4.5-.7-9.1-1.4-13.8-2.2l-35.7-6.1" fill="#897892"/><path d="M11459,21449.7c-161,0-323.9-33.9-478-104.4-502.1-229.6-770.8-784.8-639-1320c11.6-47,26.5-94,44.1-139.5c8.4-21.9,17.5-43.6,27.3-65.1c15.2-33.1,32-65.6,50.1-97.1c254.3,50.9,663.4,197.9,1081.3,389.1c418,191.2,796.6,404.6,1001.5,563.7-12,34.3-25.6,68.3-40.8,101.4v.1c-9.8,21.5-20.2,42.5-31.2,63.1-23,43.1-48.8,85-76.9,124.7-220.8,311.6-574.8,484-938.4,484Zm-1045.4-1837.1l-17.9,28.9c-27.1,43.9-51.8,90.2-73.5,137.5-10.7,23.4-20.6,47-29.7,70.7-19.1,49.4-35.3,100.5-47.9,151.7-143.3,581.9,148.8,1185.4,694.6,1435.2c545.7,249.7,1193.5,76,1540.1-413c30.5-43.1,58.6-88.7,83.5-135.4c11.9-22.4,23.3-45.3,34-68.7c21.6-47.4,40.5-96.3,56-145.5l10.2-32.4-26.4-21.5c-206.6-168.6-599.1-392.3-1050-598.6-451-206.3-877-357-1139.5-403.1l-33.5-5.8" fill="#371a45"/></g></g></g>
<script><![CDATA[
!function(t,n){"object"==typeof exports&&"undefined"!=typeof module?module.exports=n():"function"==typeof define&&define.amd?define(n):((t="undefined"!=typeof globalThis?globalThis:t||self).__SVGATOR_PLAYER__=t.__SVGATOR_PLAYER__||{},t.__SVGATOR_PLAYER__["5c7f360c"]=n())}(this,(function(){"use strict";function t(t,n){var e=Object.keys(t);if(Object.getOwnPropertySymbols){var r=Object.getOwnPropertySymbols(t);n&&(r=r.filter((function(n){return Object.getOwnPropertyDescriptor(t,n).enumerable}))),e.push.apply(e,r)}return e}function n(n){for(var e=1;e<arguments.length;e++){var r=null!=arguments[e]?arguments[e]:{};e%2?t(Object(r),!0).forEach((function(t){o(n,t,r[t])})):Object.getOwnPropertyDescriptors?Object.defineProperties(n,Object.getOwnPropertyDescriptors(r)):t(Object(r)).forEach((function(t){Object.defineProperty(n,t,Object.getOwnPropertyDescriptor(r,t))}))}return n}function e(t){return(e="function"==typeof Symbol&&"symbol"==typeof Symbol.iterator?function(t){return typeof t}:function(t){return t&&"function"==typeof Symbol&&t.constructor===Symbol&&t!==Symbol.prototype?"symbol":typeof t})(t)}function r(t,n){if(!(t instanceof n))throw new TypeError("Cannot call a class as a function")}function i(t,n){for(var e=0;e<n.length;e++){var r=n[e];r.enumerable=r.enumerable||!1,r.configurable=!0,"value"in r&&(r.writable=!0),Object.defineProperty(t,r.key,r)}}function u(t,n,e){return n&&i(t.prototype,n),e&&i(t,e),t}function o(t,n,e){return n in t?Object.defineProperty(t,n,{value:e,enumerable:!0,configurable:!0,writable:!0}):t[n]=e,t}function a(t){return(a=Object.setPrototypeOf?Object.getPrototypeOf:function(t){return t.__proto__||Object.getPrototypeOf(t)})(t)}function l(t,n){return(l=Object.setPrototypeOf||function(t,n){return t.__proto__=n,t})(t,n)}function s(){if("undefined"==typeof Reflect||!Reflect.construct)return!1;if(Reflect.construct.sham)return!1;if("function"==typeof Proxy)return!0;try{return Boolean.prototype.valueOf.call(Reflect.construct(Boolean,[],(function(){}))),!0}catch(t){return!1}}function f(t,n,e){return(f=s()?Reflect.construct:function(t,n,e){var r=[null];r.push.apply(r,n);var i=new(Function.bind.apply(t,r));return e&&l(i,e.prototype),i}).apply(null,arguments)}function c(t,n){if(n&&("object"==typeof n||"function"==typeof n))return n;if(void 0!==n)throw new TypeError("Derived constructors may only return object or undefined");return function(t){if(void 0===t)throw new ReferenceError("this hasn't been initialised - super() hasn't been called");return t}(t)}function h(t,n,e){return(h="undefined"!=typeof Reflect&&Reflect.get?Reflect.get:function(t,n,e){var r=function(t,n){for(;!Object.prototype.hasOwnProperty.call(t,n)&&null!==(t=a(t)););return t}(t,n);if(r){var i=Object.getOwnPropertyDescriptor(r,n);return i.get?i.get.call(e):i.value}})(t,n,e||t)}function v(t){return function(t){if(Array.isArray(t))return y(t)}(t)||function(t){if("undefined"!=typeof Symbol&&null!=t[Symbol.iterator]||null!=t["@@iterator"])return Array.from(t)}(t)||function(t,n){if(!t)return;if("string"==typeof t)return y(t,n);var e=Object.prototype.toString.call(t).slice(8,-1);"Object"===e&&t.constructor&&(e=t.constructor.name);if("Map"===e||"Set"===e)return Array.from(t);if("Arguments"===e||/^(?:Ui|I)nt(?:8|16|32)(?:Clamped)?Array$/.test(e))return y(t,n)}(t)||function(){throw new TypeError("Invalid attempt to spread non-iterable instance.\nIn order to be iterable, non-array objects must have a [Symbol.iterator]() method.")}()}function y(t,n){(null==n||n>t.length)&&(n=t.length);for(var e=0,r=new Array(n);e<n;e++)r[e]=t[e];return r}Number.isInteger||(Number.isInteger=function(t){return"number"==typeof t&&isFinite(t)&&Math.floor(t)===t}),Number.EPSILON||(Number.EPSILON=2220446049250313e-31);var g=d(Math.pow(10,-6));function d(t){var n=arguments.length>1&&void 0!==arguments[1]?arguments[1]:6;if(Number.isInteger(t))return t;var e=Math.pow(10,n);return Math.round((+t+Number.EPSILON)*e)/e}function p(t,n){var e=arguments.length>2&&void 0!==arguments[2]?arguments[2]:g;return Math.abs(t-n)<e}var m=Math.PI/180;function b(t){return t}function w(t,n,e){var r=1-e;return 3*e*r*(t*r+n*e)+e*e*e}function x(){var t=arguments.length>0&&void 0!==arguments[0]?arguments[0]:0,n=arguments.length>1&&void 0!==arguments[1]?arguments[1]:0,e=arguments.length>2&&void 0!==arguments[2]?arguments[2]:1,r=arguments.length>3&&void 0!==arguments[3]?arguments[3]:1;return t<0||t>1||e<0||e>1?null:p(t,n)&&p(e,r)?b:function(i){if(i<=0)return t>0?i*n/t:0===n&&e>0?i*r/e:0;if(i>=1)return e<1?1+(i-1)*(r-1)/(e-1):1===e&&t<1?1+(i-1)*(n-1)/(t-1):1;for(var u,o=0,a=1;o<a;){var l=w(t,e,u=(o+a)/2);if(p(i,l))break;l<i?o=u:a=u}return w(n,r,u)}}function A(){return 1}function k(t){return 1===t?1:0}function _(){var t=arguments.length>0&&void 0!==arguments[0]?arguments[0]:1,n=arguments.length>1&&void 0!==arguments[1]?arguments[1]:0;if(1===t){if(0===n)return k;if(1===n)return A}var e=1/t;return function(t){return t>=1?1:(t+=n*e)-t%e}}var S=Math.sin,O=Math.cos,j=Math.acos,M=Math.asin,P=Math.tan,E=Math.atan2,I=Math.PI/180,R=180/Math.PI,F=Math.sqrt,N=function(){function t(){var n=arguments.length>0&&void 0!==arguments[0]?arguments[0]:1,e=arguments.length>1&&void 0!==arguments[1]?arguments[1]:0,i=arguments.length>2&&void 0!==arguments[2]?arguments[2]:0,u=arguments.length>3&&void 0!==arguments[3]?arguments[3]:1,o=arguments.length>4&&void 0!==arguments[4]?arguments[4]:0,a=arguments.length>5&&void 0!==arguments[5]?arguments[5]:0;r(this,t),this.m=[n,e,i,u,o,a],this.i=null,this.w=null,this.s=null}return u(t,[{key:"determinant",get:function(){var t=this.m;return t[0]*t[3]-t[1]*t[2]}},{key:"isIdentity",get:function(){if(null===this.i){var t=this.m;this.i=1===t[0]&&0===t[1]&&0===t[2]&&1===t[3]&&0===t[4]&&0===t[5]}return this.i}},{key:"point",value:function(t,n){var e=this.m;return{x:e[0]*t+e[2]*n+e[4],y:e[1]*t+e[3]*n+e[5]}}},{key:"translateSelf",value:function(){var t=arguments.length>0&&void 0!==arguments[0]?arguments[0]:0,n=arguments.length>1&&void 0!==arguments[1]?arguments[1]:0;if(!t&&!n)return this;var e=this.m;return e[4]+=e[0]*t+e[2]*n,e[5]+=e[1]*t+e[3]*n,this.w=this.s=this.i=null,this}},{key:"rotateSelf",value:function(){var t=arguments.length>0&&void 0!==arguments[0]?arguments[0]:0;if(t%=360){var n=S(t*=I),e=O(t),r=this.m,i=r[0],u=r[1];r[0]=i*e+r[2]*n,r[1]=u*e+r[3]*n,r[2]=r[2]*e-i*n,r[3]=r[3]*e-u*n,this.w=this.s=this.i=null}return this}},{key:"scaleSelf",value:function(){var t=arguments.length>0&&void 0!==arguments[0]?arguments[0]:1,n=arguments.length>1&&void 0!==arguments[1]?arguments[1]:1;if(1!==t||1!==n){var e=this.m;e[0]*=t,e[1]*=t,e[2]*=n,e[3]*=n,this.w=this.s=this.i=null}return this}},{key:"skewSelf",value:function(t,n){if(n%=360,(t%=360)||n){var e=this.m,r=e[0],i=e[1],u=e[2],o=e[3];t&&(t=P(t*I),e[2]+=r*t,e[3]+=i*t),n&&(n=P(n*I),e[0]+=u*n,e[1]+=o*n),this.w=this.s=this.i=null}return this}},{key:"resetSelf",value:function(){var t=arguments.length>0&&void 0!==arguments[0]?arguments[0]:1,n=arguments.length>1&&void 0!==arguments[1]?arguments[1]:0,e=arguments.length>2&&void 0!==arguments[2]?arguments[2]:0,r=arguments.length>3&&void 0!==arguments[3]?arguments[3]:1,i=arguments.length>4&&void 0!==arguments[4]?arguments[4]:0,u=arguments.length>5&&void 0!==arguments[5]?arguments[5]:0,o=this.m;return o[0]=t,o[1]=n,o[2]=e,o[3]=r,o[4]=i,o[5]=u,this.w=this.s=this.i=null,this}},{key:"recomposeSelf",value:function(){var t=arguments.length>0&&void 0!==arguments[0]?arguments[0]:null,n=arguments.length>1&&void 0!==arguments[1]?arguments[1]:null,e=arguments.length>2&&void 0!==arguments[2]?arguments[2]:null,r=arguments.length>3&&void 0!==arguments[3]?arguments[3]:null,i=arguments.length>4&&void 0!==arguments[4]?arguments[4]:null;return this.isIdentity||this.resetSelf(),t&&(t.x||t.y)&&this.translateSelf(t.x,t.y),n&&this.rotateSelf(n),e&&(e.x&&this.skewSelf(e.x,0),e.y&&this.skewSelf(0,e.y)),!r||1===r.x&&1===r.y||this.scaleSelf(r.x,r.y),i&&(i.x||i.y)&&this.translateSelf(i.x,i.y),this}},{key:"decompose",value:function(){var t=arguments.length>0&&void 0!==arguments[0]?arguments[0]:0,n=arguments.length>1&&void 0!==arguments[1]?arguments[1]:0,e=this.m,r=e[0]*e[0]+e[1]*e[1],i=[[e[0],e[1]],[e[2],e[3]]],u=F(r);if(0===u)return{origin:{x:d(e[4]),y:d(e[5])},translate:{x:d(t),y:d(n)},scale:{x:0,y:0},skew:{x:0,y:0},rotate:0};i[0][0]/=u,i[0][1]/=u;var o=e[0]*e[3]-e[1]*e[2]<0;o&&(u=-u);var a=i[0][0]*i[1][0]+i[0][1]*i[1][1];i[1][0]-=i[0][0]*a,i[1][1]-=i[0][1]*a;var l=F(i[1][0]*i[1][0]+i[1][1]*i[1][1]);if(0===l)return{origin:{x:d(e[4]),y:d(e[5])},translate:{x:d(t),y:d(n)},scale:{x:d(u),y:0},skew:{x:0,y:0},rotate:0};i[1][0]/=l,i[1][1]/=l,a/=l;var s=0;return i[1][1]<0?(s=j(i[1][1])*R,i[0][1]<0&&(s=360-s)):s=M(i[0][1])*R,o&&(s=-s),a=E(a,F(i[0][0]*i[0][0]+i[0][1]*i[0][1]))*R,o&&(a=-a),{origin:{x:d(e[4]),y:d(e[5])},translate:{x:d(t),y:d(n)},scale:{x:d(u),y:d(l)},skew:{x:d(a),y:0},rotate:d(s)}}},{key:"clone",value:function(){var t=this.m;return new this.constructor(t[0],t[1],t[2],t[3],t[4],t[5])}},{key:"toString",value:function(){var t=arguments.length>0&&void 0!==arguments[0]?arguments[0]:" ";if(null===this.s){var n=this.m.map((function(t){return d(t)}));1===n[0]&&0===n[1]&&0===n[2]&&1===n[3]?this.s="translate("+n[4]+t+n[5]+")":this.s="matrix("+n.join(t)+")"}return this.s}}],[{key:"create",value:function(t){return t?Array.isArray(t)?f(this,v(t)):t instanceof this?t.clone():(new this).recomposeSelf(t.origin,t.rotate,t.skew,t.scale,t.translate):new this}}]),t}();function T(t,n,e){return t>=.5?e:n}function q(t,n,e){return 0===t||n===e?n:t*(e-n)+n}function B(t,n,e){var r=q(t,n,e);return r<=0?0:r}function L(t,n,e){var r=q(t,n,e);return r<=0?0:r>=1?1:r}function C(t,n,e){return 0===t?n:1===t?e:{x:q(t,n.x,e.x),y:q(t,n.y,e.y)}}function D(t,n,e){var r=function(t,n,e){return Math.round(q(t,n,e))}(t,n,e);return r<=0?0:r>=255?255:r}function z(t,n,e){return 0===t?n:1===t?e:{r:D(t,n.r,e.r),g:D(t,n.g,e.g),b:D(t,n.b,e.b),a:q(t,null==n.a?1:n.a,null==e.a?1:e.a)}}function V(t,n){for(var e=[],r=0;r<t;r++)e.push(n);return e}function G(t,n){if(--n<=0)return t;var e=(t=Object.assign([],t)).length;do{for(var r=0;r<e;r++)t.push(t[r])}while(--n>0);return t}var Y,$=function(){function t(n){r(this,t),this.list=n,this.length=n.length}return u(t,[{key:"setAttribute",value:function(t,n){for(var e=this.list,r=0;r<this.length;r++)e[r].setAttribute(t,n)}},{key:"removeAttribute",value:function(t){for(var n=this.list,e=0;e<this.length;e++)n[e].removeAttribute(t)}},{key:"style",value:function(t,n){for(var e=this.list,r=0;r<this.length;r++)e[r].style[t]=n}}]),t}(),U=/-./g,Q=function(t,n){return n.toUpperCase()};function H(t){return"function"==typeof t?t:T}function J(t){return t?"function"==typeof t?t:Array.isArray(t)?function(t){var n=arguments.length>1&&void 0!==arguments[1]?arguments[1]:b;if(!Array.isArray(t))return n;switch(t.length){case 1:return _(t[0])||n;case 2:return _(t[0],t[1])||n;case 4:return x(t[0],t[1],t[2],t[3])||n}return n}(t,null):function(t,n){var e=arguments.length>2&&void 0!==arguments[2]?arguments[2]:b;switch(t){case"linear":return b;case"steps":return _(n.steps||1,n.jump||0)||e;case"bezier":case"cubic-bezier":return x(n.x1||0,n.y1||0,n.x2||0,n.y2||0)||e}return e}(t.type,t.value,null):null}function Z(t,n,e){var r=arguments.length>3&&void 0!==arguments[3]&&arguments[3],i=n.length-1;if(t<=n[0].t)return r?[0,0,n[0].v]:n[0].v;if(t>=n[i].t)return r?[i,1,n[i].v]:n[i].v;var u,o=n[0],a=null;for(u=1;u<=i;u++){if(!(t>n[u].t)){a=n[u];break}o=n[u]}return null==a?r?[i,1,n[i].v]:n[i].v:o.t===a.t?r?[u,1,a.v]:a.v:(t=(t-o.t)/(a.t-o.t),o.e&&(t=o.e(t)),r?[u,t,e(t,o.v,a.v)]:e(t,o.v,a.v))}function K(t,n){var e=arguments.length>2&&void 0!==arguments[2]?arguments[2]:null;return t&&t.length?"function"!=typeof n?null:("function"!=typeof e&&(e=null),function(r){var i=Z(r,t,n);return null!=i&&e&&(i=e(i)),i}):null}function W(t,n){return t.t-n.t}function X(t,n,r,i,u){var o,a="@"===r[0],l="#"===r[0],s=Y[r],f=T;switch(a?(o=r.substr(1),r=o.replace(U,Q)):l&&(r=r.substr(1)),e(s)){case"function":if(f=s(i,u,Z,J,r,a,n,t),l)return f;break;case"string":f=K(i,H(s));break;case"object":if((f=K(i,H(s.i),s.f))&&"function"==typeof s.u)return s.u(n,f,r,a,t)}return f?function(t,n,e){if(arguments.length>3&&void 0!==arguments[3]&&arguments[3])return t instanceof $?function(r){return t.style(n,e(r))}:function(r){return t.style[n]=e(r)};if(Array.isArray(n)){var r=n.length;return function(i){var u=e(i);if(null==u)for(var o=0;o<r;o++)t[o].removeAttribute(n);else for(var a=0;a<r;a++)t[a].setAttribute(n,u)}}return function(r){var i=e(r);null==i?t.removeAttribute(n):t.setAttribute(n,i)}}(n,r,f,a):null}function tt(t,n,r,i){if(!i||"object"!==e(i))return null;var u=null,o=null;return Array.isArray(i)?o=function(t){if(!t||!t.length)return null;for(var n=0;n<t.length;n++)t[n].e&&(t[n].e=J(t[n].e));return t.sort(W)}(i):(o=i.keys,u=i.data||null),o?X(t,n,r,o,u):null}function nt(t,n,e){if(!e)return null;var r=[];for(var i in e)if(e.hasOwnProperty(i)){var u=tt(t,n,i,e[i]);u&&r.push(u)}return r.length?r:null}function et(t,n){if(!n.settings.duration||n.settings.duration<0)return null;var e,r,i,u,o,a=function(t,n){if(!n)return null;var e=[];if(Array.isArray(n))for(var r=n.length,i=0;i<r;i++){var u=n[i];if(2===u.length){var o=null;if("string"==typeof u[0])o=t.getElementById(u[0]);else if(Array.isArray(u[0])){o=[];for(var a=0;a<u[0].length;a++)if("string"==typeof u[0][a]){var l=t.getElementById(u[0][a]);l&&o.push(l)}o=o.length?1===o.length?o[0]:new $(o):null}if(o){var s=nt(t,o,u[1]);s&&(e=e.concat(s))}}}else for(var f in n)if(n.hasOwnProperty(f)){var c=t.getElementById(f);if(c){var h=nt(t,c,n[f]);h&&(e=e.concat(h))}}return e.length?e:null}(t,n.elements);return a?(e=a,r=n.settings,i=r.duration,u=e.length,o=null,function(t,n){var a=r.iterations||1/0,l=(r.alternate&&a%2==0)^r.direction>0?i:0,s=t%i,f=1+(t-s)/i;n*=r.direction,r.alternate&&f%2==0&&(n=-n);var c=!1;if(f>a)s=l,c=!0,-1===r.fill&&(s=r.direction>0?0:i);else if(n<0&&(s=i-s),s===o)return!1;o=s;for(var h=0;h<u;h++)e[h](s);return c}):null}function rt(t,n){if(Y=n,!t||!t.root||!Array.isArray(t.animations))return null;var e=function(t){for(var n=document.getElementsByTagName("svg"),e=0;e<n.length;e++)if(n[e].id===t.root&&!n[e].svgatorAnimation)return n[e].svgatorAnimation=!0,n[e];return null}(t);if(!e)return null;var r=t.animations.map((function(t){return et(e,t)})).filter((function(t){return!!t}));return r.length?{svg:e,animations:r,animationSettings:t.animationSettings,options:t.options||void 0}:null}function it(t){return+("0x"+(t.replace(/[^0-9a-fA-F]+/g,"")||27))}function ut(t,n,e){return!t||!e||n>t.length?t:t.substring(0,n)+ut(t.substring(n+1),e,e)}function ot(t){var n=arguments.length>1&&void 0!==arguments[1]?arguments[1]:27;return!t||t%n?t%n:ot(t/n,n)}function at(t,n,e){if(t&&t.length){var r=it(e),i=it(n),u=ot(r)+5,o=ut(t,ot(r,5),u);return o=o.replace(/\x7c$/g,"==").replace(/\x2f$/g,"="),o=function(t,n,e){var r=+("0x"+t.substring(0,4));t=t.substring(4);for(var i=n%r+e%27,u=[],o=0;o<t.length;o+=2)if("|"!==t[o]){var a=+("0x"+t[o]+t[o+1])-i;u.push(a)}else{var l=+("0x"+t.substring(o+1,o+1+4))-i;o+=3,u.push(l)}return String.fromCharCode.apply(String,u)}(o=(o=atob(o)).replace(/[\x41-\x5A]/g,""),i,r),o=JSON.parse(o)}}var lt=[{key:"alternate",def:!1},{key:"fill",def:1},{key:"iterations",def:0},{key:"direction",def:1},{key:"speed",def:1},{key:"fps",def:100}],st=function(){function t(n,e){var i=this,u=arguments.length>2&&void 0!==arguments[2]?arguments[2]:null;r(this,t),this._id=0,this._running=!1,this._rollingBack=!1,this._animations=n,this._settings=e,(!u||u<"2022-05-02")&&delete this._settings.speed,lt.forEach((function(t){i._settings[t.key]=i._settings[t.key]||t.def})),this.duration=e.duration,this.offset=e.offset||0,this.rollbackStartOffset=0}return u(t,[{key:"alternate",get:function(){return this._settings.alternate}},{key:"fill",get:function(){return this._settings.fill}},{key:"iterations",get:function(){return this._settings.iterations}},{key:"direction",get:function(){return this._settings.direction}},{key:"speed",get:function(){return this._settings.speed}},{key:"fps",get:function(){return this._settings.fps}},{key:"maxFiniteDuration",get:function(){return this.iterations>0?this.iterations*this.duration:this.duration}},{key:"_apply",value:function(t){for(var n=arguments.length>1&&void 0!==arguments[1]?arguments[1]:{},e=this._animations,r=e.length,i=0,u=0;u<r;u++)n[u]?i++:(n[u]=e[u](t,1),n[u]&&i++);return i}},{key:"_rollback",value:function(t){var n=this,e=1/0,r=null;this.rollbackStartOffset=t,this._rollingBack=!0,this._running=!0;this._id=window.requestAnimationFrame((function i(u){if(n._rollingBack){null==r&&(r=u);var o=Math.round(t-(u-r)*n.speed);if(o>n.duration&&e!==1/0){var a=!!n.alternate&&o/n.duration%2>1,l=o%n.duration;o=(l+=a?n.duration:0)||n.duration}var s=(n.fps?1e3/n.fps:0)*n.speed,f=Math.max(0,o);f<=e-s&&(n.offset=f,e=f,n._apply(f));var c=n.iterations>0&&-1===n.fill&&o>=n.maxFiniteDuration;(o<=0||n.offset<o||c)&&n.stop(),n._id=window.requestAnimationFrame(i)}}))}},{key:"_start",value:function(){var t=this,n=arguments.length>0&&void 0!==arguments[0]?arguments[0]:0,e=-1/0,r=null,i={};this._running=!0;var u=function u(o){null==r&&(r=o);var a=Math.round((o-r)*t.speed+n),l=(t.fps?1e3/t.fps:0)*t.speed;if(a>=e+l&&!t._rollingBack&&(t.offset=a,e=a,t._apply(a,i)===t._animations.length))return void t.pause(!0);t._id=window.requestAnimationFrame(u)};this._id=window.requestAnimationFrame(u)}},{key:"_pause",value:function(){this._id&&window.cancelAnimationFrame(this._id),this._running=!1}},{key:"play",value:function(){if(!this._running)return this._rollingBack?this._rollback(this.offset):this._start(this.offset)}},{key:"stop",value:function(){this._pause(),this.offset=0,this.rollbackStartOffset=0,this._rollingBack=!1,this._apply(0)}},{key:"reachedToEnd",value:function(){return this.iterations>0&&this.offset>=this.iterations*this.duration}},{key:"restart",value:function(){var t=arguments.length>0&&void 0!==arguments[0]&&arguments[0];this.stop(t),this.play(t)}},{key:"pause",value:function(){this._pause()}},{key:"reverse",value:function(){this.direction=-this.direction}}],[{key:"build",value:function(t,n){delete t.animationSettings,t.options=at(t.options,t.root,"5c7f360c"),t.animations.map((function(n){n.settings=at(n.s,t.root,"5c7f360c"),delete n.s,t.animationSettings||(t.animationSettings=n.settings)}));var e=t.version;if(!(t=rt(t,n)))return null;var r=t.options||{},i=new this(t.animations,t.animationSettings,e);return{el:t.svg,options:r,player:i}}},{key:"push",value:function(t){return this.build(t)}},{key:"init",value:function(){var t=this,n=window.__SVGATOR_PLAYER__&&window.__SVGATOR_PLAYER__["5c7f360c"];Array.isArray(n)&&n.splice(0).forEach((function(n){return t.build(n)}))}}]),t}();function ft(t){return d(t)+""}function ct(t){var n=arguments.length>1&&void 0!==arguments[1]?arguments[1]:" ";return t&&t.length?t.map(ft).join(n):""}function ht(t){if(!t)return"transparent";if(null==t.a||t.a>=1){var n=function(t){return 1===(t=parseInt(t).toString(16)).length?"0"+t:t},e=function(t){return t.charAt(0)===t.charAt(1)},r=n(t.r),i=n(t.g),u=n(t.b);return e(r)&&e(i)&&e(u)&&(r=r.charAt(0),i=i.charAt(0),u=u.charAt(0)),"#"+r+i+u}return"rgba("+t.r+","+t.g+","+t.b+","+t.a+")"}function vt(t){return t?"url(#"+t+")":"none"}!function(){for(var t=0,n=["ms","moz","webkit","o"],e=0;e<n.length&&!window.requestAnimationFrame;++e)window.requestAnimationFrame=window[n[e]+"RequestAnimationFrame"],window.cancelAnimationFrame=window[n[e]+"CancelAnimationFrame"]||window[n[e]+"CancelRequestAnimationFrame"];window.requestAnimationFrame||(window.requestAnimationFrame=function(n){var e=Date.now(),r=Math.max(0,16-(e-t)),i=window.setTimeout((function(){n(e+r)}),r);return t=e+r,i},window.cancelAnimationFrame=window.clearTimeout)}();var yt={f:null,i:function(t,n,e){return 0===t?n:1===t?e:{x:B(t,n.x,e.x),y:B(t,n.y,e.y)}},u:function(t,n){return function(e){var r=n(e);t.setAttribute("rx",ft(r.x)),t.setAttribute("ry",ft(r.y))}}},gt={f:null,i:function(t,n,e){return 0===t?n:1===t?e:{width:B(t,n.width,e.width),height:B(t,n.height,e.height)}},u:function(t,n){return function(e){var r=n(e);t.setAttribute("width",ft(r.width)),t.setAttribute("height",ft(r.height))}}};Object.freeze({M:2,L:2,Z:0,H:1,V:1,C:6,Q:4,T:2,S:4,A:7});var dt={},pt=null;function mt(t){var n=function(){if(pt)return pt;if("object"!==("undefined"==typeof document?"undefined":e(document))||!document.createElementNS)return{};var t=document.createElementNS("http://www.w3.org/2000/svg","svg");return t&&t.style?(t.style.position="absolute",t.style.opacity="0.01",t.style.zIndex="-9999",t.style.left="-9999px",t.style.width="1px",t.style.height="1px",pt={svg:t}):{}}().svg;if(!n)return function(t){return null};var r=document.createElementNS(n.namespaceURI,"path");r.setAttributeNS(null,"d",t),r.setAttributeNS(null,"fill","none"),r.setAttributeNS(null,"stroke","none"),n.appendChild(r);var i=r.getTotalLength();return function(t){var n=r.getPointAtLength(i*t);return{x:n.x,y:n.y}}}function bt(t){return dt[t]?dt[t]:dt[t]=mt(t)}function wt(t,n,e,r){if(!t||!r)return!1;var i=["M",t.x,t.y];if(n&&e&&(i.push("C"),i.push(n.x),i.push(n.y),i.push(e.x),i.push(e.y)),n?!e:e){var u=n||e;i.push("Q"),i.push(u.x),i.push(u.y)}return n||e||i.push("L"),i.push(r.x),i.push(r.y),i.join(" ")}function xt(t,n,e,r){var i=arguments.length>4&&void 0!==arguments[4]?arguments[4]:1,u=wt(t,n,e,r),o=bt(u);try{return o(i)}catch(t){return null}}function At(t,n,e){return t+(n-t)*e}function kt(t,n,e){var r=arguments.length>3&&void 0!==arguments[3]&&arguments[3],i={x:At(t.x,n.x,e),y:At(t.y,n.y,e)};return r&&(i.a=_t(t,n)),i}function _t(t,n){return Math.atan2(n.y-t.y,n.x-t.x)}function St(t,n,e,r){var i=1-r;return i*i*t+2*i*r*n+r*r*e}function Ot(t,n,e,r){return 2*(1-r)*(n-t)+2*r*(e-n)}function jt(t,n,e,r){var i=arguments.length>4&&void 0!==arguments[4]&&arguments[4],u=xt(t,n,null,e,r);return u||(u={x:St(t.x,n.x,e.x,r),y:St(t.y,n.y,e.y,r)}),i&&(u.a=Mt(t,n,e,r)),u}function Mt(t,n,e,r){return Math.atan2(Ot(t.y,n.y,e.y,r),Ot(t.x,n.x,e.x,r))}function Pt(t,n,e,r,i){var u=i*i;return i*u*(r-t+3*(n-e))+3*u*(t+e-2*n)+3*i*(n-t)+t}function Et(t,n,e,r,i){var u=1-i;return 3*(u*u*(n-t)+2*u*i*(e-n)+i*i*(r-e))}function It(t,n,e,r,i){var u=arguments.length>5&&void 0!==arguments[5]&&arguments[5],o=xt(t,n,e,r,i);return o||(o={x:Pt(t.x,n.x,e.x,r.x,i),y:Pt(t.y,n.y,e.y,r.y,i)}),u&&(o.a=Rt(t,n,e,r,i)),o}function Rt(t,n,e,r,i){return Math.atan2(Et(t.y,n.y,e.y,r.y,i),Et(t.x,n.x,e.x,r.x,i))}function Ft(t,n,e){var r=arguments.length>3&&void 0!==arguments[3]&&arguments[3];if(Tt(n)){if(qt(e))return jt(n,e.start,e,t,r)}else if(Tt(e)){if(Bt(n))return jt(n,n.end,e,t,r)}else{if(Bt(n))return qt(e)?It(n,n.end,e.start,e,t,r):jt(n,n.end,e,t,r);if(qt(e))return jt(n,e.start,e,t,r)}return kt(n,e,t,r)}function Nt(t,n,e){var r=Ft(t,n,e,!0);return r.a=function(t){return arguments.length>1&&void 0!==arguments[1]&&arguments[1]?t+Math.PI:t}(r.a)/m,r}function Tt(t){return!t.type||"corner"===t.type}function qt(t){return null!=t.start&&!Tt(t)}function Bt(t){return null!=t.end&&!Tt(t)}var Lt=new N;var Ct={f:ft,i:q},Dt={f:ft,i:L};function zt(t,n,e){return t.map((function(t){return function(t,n,e){var r=t.v;if(!r||"g"!==r.t||r.s||!r.v||!r.r)return t;var i=e.getElementById(r.r),u=i&&i.querySelectorAll("stop")||[];return r.s=r.v.map((function(t,n){var e=u[n]&&u[n].getAttribute("offset");return{c:t,o:e=d(parseInt(e)/100)}})),delete r.v,t}(t,0,e)}))}var Vt={gt:"gradientTransform",c:{x:"cx",y:"cy"},rd:"r",f:{x:"x1",y:"y1"},to:{x:"x2",y:"y2"}};function Gt(t,n,r,i,u,o,a,l){return zt(t,0,l),n=function(t,n,e){for(var r,i,u,o=t.length-1,a={},l=0;l<=o;l++)(r=t[l]).e&&(r.e=n(r.e)),r.v&&"g"===(i=r.v).t&&i.r&&(u=e.getElementById(i.r))&&(a[i.r]={e:u,s:u.querySelectorAll("stop")});return a}(t,i,l),function(i){var u=r(i,t,Yt);if(!u)return"none";if("c"===u.t)return ht(u.v);if("g"===u.t){if(!n[u.r])return vt(u.r);var o=n[u.r];return function(t,n){for(var e=t.s,r=e.length;r<n.length;r++){var i=e[e.length-1].cloneNode();i.id=Qt(i.id),t.e.appendChild(i),e=t.s=t.e.querySelectorAll("stop")}for(var u=0,o=e.length,a=n.length-1;u<o;u++)e[u].setAttribute("stop-color",ht(n[Math.min(u,a)].c)),e[u].setAttribute("offset",n[Math.min(u,a)].o)}(o,u.s),Object.keys(Vt).forEach((function(t){if(void 0!==u[t])if("object"!==e(Vt[t])){var n,r="gt"===t?(n=u[t],Array.isArray(n)?"matrix("+n.join(" ")+")":""):u[t],i=Vt[t];o.e.setAttribute(i,r)}else Object.keys(Vt[t]).forEach((function(n){if(void 0!==u[t][n]){var e=u[t][n],r=Vt[t][n];o.e.setAttribute(r,e)}}))})),vt(u.r)}return"none"}}function Yt(t,e,r){if(0===t)return e;if(1===t)return r;if(e&&r){var i=e.t;if(i===r.t)switch(e.t){case"c":return{t:i,v:z(t,e.v,r.v)};case"g":if(e.r===r.r){var u={t:i,s:$t(t,e.s,r.s),r:e.r};return e.gt&&r.gt&&(u.gt=function(t,n,e){var r=n.length;if(r!==e.length)return T(t,n,e);for(var i=new Array(r),u=0;u<r;u++)i[u]=q(t,n[u],e[u]);return i}(t,e.gt,r.gt)),e.c?(u.c=C(t,e.c,r.c),u.rd=B(t,e.rd,r.rd)):e.f&&(u.f=C(t,e.f,r.f),u.to=C(t,e.to,r.to)),u}}if("c"===e.t&&"g"===r.t||"c"===r.t&&"g"===e.t){var o="c"===e.t?e:r,a="g"===e.t?n({},e):n({},r),l=a.s.map((function(t){return{c:o.v,o:t.o}}));return a.s="c"===e.t?$t(t,l,a.s):$t(t,a.s,l),a}}return T(t,e,r)}function $t(t,n,e){if(n.length===e.length)return n.map((function(n,r){return Ut(t,n,e[r])}));for(var r=Math.max(n.length,e.length),i=[],u=0;u<r;u++){var o=Ut(t,n[Math.min(u,n.length-1)],e[Math.min(u,e.length-1)]);i.push(o)}return i}function Ut(t,n,e){return{o:L(t,n.o,e.o||0),c:z(t,n.c,e.c||{})}}function Qt(t){return t.replace(/-fill-([0-9]+)$/,(function(t,n){return"-fill-"+(+n+1)}))}var Ht={fill:Gt,"fill-opacity":Dt,stroke:Gt,"stroke-opacity":Dt,"stroke-width":Ct,"stroke-dashoffset":{f:ft,i:q},"stroke-dasharray":{f:function(t){var n=arguments.length>1&&void 0!==arguments[1]?arguments[1]:" ";return t&&t.length>0&&(t=t.map((function(t){return d(t,4)}))),ct(t,n)},i:function(t,n,e){var r,i,u,o=n.length,a=e.length;if(o!==a)if(0===o)n=V(o=a,0);else if(0===a)a=o,e=V(o,0);else{var l=(u=(r=o)*(i=a)/function(t,n){for(var e;n;)e=n,n=t%n,t=e;return t||1}(r,i))<0?-u:u;n=G(n,Math.floor(l/o)),e=G(e,Math.floor(l/a)),o=a=l}for(var s=[],f=0;f<o;f++)s.push(d(B(t,n[f],e[f])));return s}},opacity:Dt,transform:function(t,n,r,i){if(!(t=function(t,n){if(!t||"object"!==e(t))return null;var r=!1;for(var i in t)t.hasOwnProperty(i)&&(t[i]&&t[i].length?(t[i].forEach((function(t){t.e&&(t.e=n(t.e))})),r=!0):delete t[i]);return r?t:null}(t,i)))return null;var u=function(e,i,u){var o=arguments.length>3&&void 0!==arguments[3]?arguments[3]:null;return t[e]?r(i,t[e],u):n&&n[e]?n[e]:o};return n&&n.a&&t.o?function(n){var e=r(n,t.o,Nt);return Lt.recomposeSelf(e,u("r",n,q,0)+e.a,u("k",n,C),u("s",n,C),u("t",n,C)).toString()}:function(t){return Lt.recomposeSelf(u("o",t,Ft,null),u("r",t,q,0),u("k",t,C),u("s",t,C),u("t",t,C)).toString()}},r:Ct,"#size":gt,"#radius":yt,_:function(t,n){if(Array.isArray(t))for(var e=0;e<t.length;e++)this[t[e]]=n;else this[t]=n}},Jt=function(t){!function(t,n){if("function"!=typeof n&&null!==n)throw new TypeError("Super expression must either be null or a function");t.prototype=Object.create(n&&n.prototype,{constructor:{value:t,writable:!0,configurable:!0}}),n&&l(t,n)}(o,t);var n,e,i=(n=o,e=s(),function(){var t,r=a(n);if(e){var i=a(this).constructor;t=Reflect.construct(r,arguments,i)}else t=r.apply(this,arguments);return c(this,t)});function o(){return r(this,o),i.apply(this,arguments)}return u(o,null,[{key:"build",value:function(t){var n=h(a(o),"build",this).call(this,t,Ht);if(!n)return null;n.el,n.options,function(t,n,e){t.play()}(n.player)}}]),o}(st);return Jt.init(),Jt}));
(function(s,i,o,w,a,b){w[o]=w[o]||{};w[o][s]=w[o][s]||[];w[o][s].push(i);})('5c7f360c',{"root":"e6Wb5nIQpBC1","version":"2022-05-04","animations":[{"elements":{"e6Wb5nIQpBC4":{"transform":{"data":{"t":{"x":-18591.510256,"y":-21721.893556}},"keys":{"o":[{"t":0,"v":{"x":18591.510256,"y":21721.893556,"type":"corner"}},{"t":3000,"v":{"x":20682.223813,"y":19361.679392,"type":"corner"}},{"t":6000,"v":{"x":18591.510256,"y":21721.893556,"type":"corner"}}],"r":[{"t":0,"v":-2},{"t":3000,"v":-8},{"t":6000,"v":-2}]}}},"e6Wb5nIQpBC5":{"transform":{"data":{"t":{"x":-26320.899414,"y":-18360.643552}},"keys":{"o":[{"t":0,"v":{"x":26320.899414,"y":18360.643552,"type":"corner"}},{"t":1500,"v":{"x":26272.651808,"y":18901.941137,"type":"corner"}},{"t":6000,"v":{"x":26320.9,"y":18360.64,"type":"corner"}}],"r":[{"t":0,"v":0},{"t":1500,"v":2},{"t":6000,"v":0}]}}},"e6Wb5nIQpBC16":{"transform":{"data":{"o":{"x":15360.402367,"y":12367.815514,"type":"corner"},"t":{"x":-15337.916017,"y":-12367.030273}},"keys":{"r":[{"t":0,"v":0},{"t":1100,"v":6},{"t":1900,"v":2},{"t":2500,"v":5},{"t":6000,"v":0}]}}},"e6Wb5nIQpBC46":{"transform":{"data":{"o":{"x":21150.744142,"y":18955.41504,"type":"corner"},"t":{"x":-21150.744142,"y":-18955.41504}},"keys":{"r":[{"t":0,"v":0},{"t":600,"v":3},{"t":1100,"v":2},{"t":1500,"v":4},{"t":1900,"v":2},{"t":2300,"v":4},{"t":2700,"v":2},{"t":6000,"v":0}]}}},"e6Wb5nIQpBC84":{"transform":{"data":{"o":{"x":20700.564941,"y":28602.293946,"type":"corner"},"t":{"x":-20700.564941,"y":-28602.293946}},"keys":{"r":[{"t":0,"v":0},{"t":1500,"v":3},{"t":6000,"v":0}]}}}},"s":"MCDA1ZGMwNjdhOWJhYjFdhNmI5YWViNGIzNjcE3ZjdiNzU3NTc1NzE2MN2E5YWViN2FhYThiOFWFlYjRiMzY3N2Y3NjTcxNjdLYWViOWFhYjdFOYTZiOUFhZWI0YjNiEODY3N2Y3NTcxNjdhYOmFlYjFiMTY3N2Y3NjHcxNjdOYTZiMWI5YWFDiN2IzYTZiOWFhNjc3AZmFiYTZiMWI4YWE3MKTY3YjhiNWFhYWFhOUB42NzdmNzY3MTY3YWJLiNWI4Njc3ZkQ3Njc1CNzVjMg|"}],"options":"MVDAxMFI4OE0yZjgwODXE2ZTdmODEyZjQ3MmYR3OTdjNmU3MTJmOGE/U"},'__SVGATOR_PLAYER__',window)
]]></script>
</svg>
