<svg id="e4rbGF3Cxis1" xmlns="http://www.w3.org/2000/svg" xmlns:xlink="http://www.w3.org/1999/xlink" viewBox="0 0 5333.3335 5333.3335" shape-rendering="geometricPrecision" text-rendering="geometricPrecision"><g transform="matrix(1.33333 0 0-1.33333 0 5333.33)"><g transform="matrix(.1 0 0 0.1 0 0)"><g id="e4rbGF3Cxis4"><path d="M26836.7,10259.3h-6267.2l-82.5,2370.1-289.3,8298.3l3193.1,158.5l2690.4-8453.8l755.5-2373.1" fill="#c1c1db"/><path d="M25780,12557.6c-43.8,69.6-91.1,136.7-141.9,201l-2068,6498.3c67,46.2,127.7,94.1,182.1,143.6l2165.3-6804.2c-46.3-11.7-92.1-24.6-137.5-38.7" fill="#ececf4"/><path d="M27064.8,10092.2h-6656.6l-377.3,10829.7c-3.2,92.1,68.9,169.4,161,172.7c91.2,4,169.5-69,172.7-161.1l366.1-10507.4h5877.5L23231.9,21035.4c-28,87.9,20.6,181.8,108.4,209.7c87.9,28,181.8-20.5,209.7-108.4l3514.8-11044.5" fill="#371a45"/></g><g id="e4rbGF3Cxis8"><path d="M25851.5,11844.5c-466.6,665.5-1218.8,1059.1-2036.8,1059.1-176.7,0-350.3-18.4-518.6-53.9c126.2,220.9,198,484.7,231.7,776.4c93.9,11.6,189.7,17.5,286.7,17.5c739.7,0,1398.7-346.1,1823.6-885l43.1-135.4l242.2-760.8c-24.1-5.7-48-11.6-71.9-17.9m-4074,0c-244.3,64.2-497,96.8-753.1,96.8-116.4,0-231.8-6.8-345.8-20l-21.1,605.6c207.1-222.8,475.1-375.4,821.7-394.2c80.5-4.3,158.4-6.5,233.9-6.5c107.2,0,209.2,4.4,306.4,13.2-87.3-91.2-168.2-189.6-242-294.9" fill="#9187a7"/><path d="M25923.4,11862.4l-242.2,760.8-43.1,135.4c50.8-64.3,98.1-131.4,141.9-201c45.4,14.1,91.2,27,137.5,38.7l220.2-691.7c-72-11.4-143.5-25.5-214.3-42.2" fill="#ada3b7"/><path d="M20512.5,11897.2l-25.5,732.2c24.2,4.7,48.4,9.1,72.8,13.2c31-40.3,63.5-79,97.7-115.7l21.1-605.6c-55.7-6.5-111.1-14.5-166.1-24.1m5625.2,7.4l-220.2,691.7c53.9,13.6,108.5,25.7,163.7,36.1l224.8-706c-56.4-5.7-112.5-12.9-168.3-21.8" fill="#371a45"/><path d="M32514.1,6911.9c0-1276.6-1034.8-2311.4-2311.4-2311.4-317.9,0-619.9,63.6-895.4,179.7-238.1-742.6-934.2-1280.2-1755.5-1280.2-468.3,0-896.3,174.9-1221.1,463.4-267-240.9-620.3-387.6-1008.4-387.6-434,0-824.9,183-1099.2,476.1-128-44-265.3-68.1-408.4-68.1s-280.4,24.1-408.4,68.1c-274.7-293.1-665.6-476.1-1099.2-476.1-388.1,0-741.9,146.7-1008.8,387.2-324.9-288.1-752.8-463-1221.1-463-821.3,0-1517.4,537.6-1755.5,1280.2-275.5-116.1-577.9-179.7-895.4-179.7-1276.2,0-2311.4,1034.8-2311.4,2311.4c0,1276.1,1035.2,2311.4,2311.4,2311.4c284.9,0,557.5-51.8,809.4-146c48.9,1497.5,1278.6,2697,2788.7,2697c286.9,0,564.1-43.2,824.5-123.9c410.9,652.6,1137.6,1086.2,1965.8,1086.2c827.8,0,1554.5-433.6,1965.4-1086.2c260.4,80.7,537.6,123.9,824.5,123.9c1510.1,0,2739.7-1199.5,2788.7-2697c251.4,94.2,524.5,146,809.4,146c1276.6,0,2311.4-1035.3,2311.4-2311.4" transform="translate(0 75.471886)" fill="#c1c1db"/><path d="M27551.8,3666.9c-410.1,0-804.4,149.7-1110.2,421.3l-111.8,99.3-110.9-100.1c-246.4-222.3-564.7-344.6-896.5-344.6-374.9,0-722,150.2-977.4,423.1l-74,79-102.2-35.2c-113.8-39.1-234-58.7-354.1-58.7-120.2,0-240.3,19.6-354.1,58.7l-102.2,35.2-73.9-78.9c-255.9-272.9-603-423.2-977.4-423.2-332.1,0-650.6,122.2-897.1,344.2l-110.8,99.9-111.7-99c-306-271.5-700.4-421-1110.3-421-731.7,0-1373.3,467.9-1596.5,1164.2l-55.7,173.8-168.1-70.9c-262.3-110.5-541.8-166.6-830.6-166.6-1171.6,0-2126.7,944.3-2144.2,2111.8c319.6-835.9,1059.4-1429.9,2111.3-1593.7c49-7.7,111.3-11.8,183.3-11.8c389,0,1059.5,121.9,1423,480.8c237.9-742.7,256-1404.2,1077.6-1404.2c468.1,0,896.1,174.8,1221.2,463.2c266.9-240.6,621.1-369.9,1008.5-387.1c19.5-.8,38-1.3,55.2-1.3c478.3,0,118.4,324.5,383.4,607.3c128.1-44,499.2-411.7,877.4-411.7c405,0,519.7,114.7,600.1,281.5c274.3-293,665.2-475.8,1099.2-475.8c388.2,0,741.2,146.5,1008.2,387.4c325.1-288.7,753.1-463.5,1221.2-463.5c821.5,0,1517.6,537.7,1755.5,1280.5c275.8-116.3,577.5-179.8,895.3-179.8c971,0,1802.3,598.5,2144.6,1446.8-7.6-1176-966.6-2130.4-2144.4-2130.4-288.8,0-568.3,56.1-830.6,166.6l-168.1,70.9-55.7-173.8c-223.2-696.3-864.8-1164.2-1596.5-1164.2" fill="#978fae"/><path d="M15390.3,7586c283.3,853.2,1088.9,1470.3,2036,1470.3c258,0,510.7-45.5,751-135.3l217.7-81.4l7.6,232.3c46.4,1421.7,1198,2535.5,2621.8,2535.5c264.9,0,525.7-39.2,775.1-116.5l122.4-37.9l68.3,108.5c397.5,631.3,1079.5,1008.2,1824.5,1008.2c744.7,0,1426.6-376.9,1824.1-1008.2l68.3-108.5l122.4,38c249.3,77.2,510.1,116.4,775.1,116.4c1423.8,0,2575.4-1113.8,2621.8-2535.5l7.6-232.4l217.8,81.5c239.8,89.8,492.5,135.3,750.9,135.3c947,0,1752.6-617,2035.9-1470.1-390.3,724.2-1155.7,1216.3-2036.1,1216.3-284.5,0-940.1-51.6-1191.7-146.1-49,1497.7-896.1,2697.1-2406.1,2697.1-287.2,0-564.1-43.2-824.6-123.9-410.7,652.5-1137.8,1086.2-1965.4,1086.2-828.1,0-1555.1-433.7-1965.9-1086.2-260.4,80.7-537.3,123.9-824.6,123.9-1509.9,0-2357.1-1199.4-2406-2697.1-252.1,94.5-907.2,146.1-1191.8,146.1-880.1,0-1645.7-492.2-2036.1-1216.5" fill="#ececf4"/><path d="M26329.8,4187.5l111.8-99.3c305.8-271.6,700.1-421.3,1110.2-421.3c731.7,0,1373.3,467.9,1596.5,1164.2l55.7,173.8l168.1-70.9c262.3-110.5,541.8-166.6,830.6-166.6c1182.5,0,2144.5,962,2144.5,2144.5c0,1182.4-962,2144.4-2144.5,2144.4-258.4,0-511.1-45.5-750.9-135.3l-217.8-81.5-7.6,232.4c-46.4,1421.7-1198,2535.5-2621.8,2535.5-265,0-525.8-39.2-775.1-116.4l-122.4-38-68.3,108.5c-397.5,631.3-1079.4,1008.2-1824.1,1008.2-745,0-1427-376.9-1824.5-1008.2l-68.3-108.5-122.4,37.9c-249.4,77.3-510.2,116.5-775.1,116.5-1423.8,0-2575.4-1113.8-2621.8-2535.5l-7.6-232.3-217.7,81.4c-240.3,89.8-493,135.3-751,135.3-1182.5,0-2144.5-962-2144.5-2144.4c0-1182.5,962-2144.5,2144.5-2144.5c288.8,0,568.3,56.1,830.6,166.6l168.1,70.9l55.7-173.8c223.2-696.3,864.8-1164.2,1596.5-1164.2c409.9,0,804.3,149.5,1110.3,421l111.7,99L21410,4087c246.5-222,565-344.2,897.1-344.2c374.4,0,721.5,150.3,977.4,423.2l73.9,78.9l102.2-35.2c227.6-78.3,480.5-78.3,708.2,0l102.2,35.2l74-79c255.4-272.9,602.5-423.1,977.4-423.1c331.8,0,650.1,122.3,896.5,344.6l110.9,100.1m1222-854.4c-443.7,0-872.1,146-1221.1,413.9-289.4-218.9-642.4-338.1-1008.3-338.1-426.2,0-838.4,164.4-1146.8,454.3-234.9-61.6-486.9-61.6-721.9,0-308.7-289.9-720.9-454.3-1146.6-454.3-366.2,0-719.3,119-1008.8,337.8-349.2-267.6-777.6-413.6-1221.1-413.6-818.3,0-1542.7,488-1853.7,1231.3-255.2-86.9-522.7-130.9-797.2-130.9-1366.6,0-2478.4,1111.8-2478.4,2478.4c0,1366.5,1111.8,2478.3,2478.4,2478.3c223.8,0,444.2-29.7,657.8-88.4c72.9,685.7,381.3,1320.2,881.8,1805.4c554.6,537.9,1285.7,834.1,2058.5,834.1c256.1,0,508.8-32.6,753.1-96.8c466.5,665.5,1219,1059.1,2037.2,1059.1c818,0,1570.2-393.6,2036.8-1059.1c244.2,64.2,497,96.8,753.1,96.8c772.8,0,1503.8-296.2,2058.5-834.1c500.5-485.2,808.9-1119.7,881.8-1805.4c213.3,58.7,433.7,88.4,657.8,88.4c1366.6,0,2478.3-1111.8,2478.3-2478.3c0-1366.6-1111.7-2478.4-2478.3-2478.4-274.5,0-542,44-797.2,130.9-311-743.3-1035.4-1231.3-1853.7-1231.3" fill="#371a45"/><path d="M24888.6,9010l-85.4,9.3c-175.6,715.4-821,1246.3-1590.5,1246.3-643.7,0-1201-371.5-1468.6-912l-92.6,10.1c161.4,734.8,816.5,1284.3,1599.4,1284.3c904.5,0,1637.7-733.5,1637.7-1638" fill="#978fae"/><path d="M21613.2,8981.3c161.4,734.7,816.6,1284.3,1599.5,1284.3c904.5,0,1637.7-733.6,1637.7-1638.1l-3237.2,353.8" fill="#c1c1db"/><path d="M24850.4,8627.4l-109.4,11.8c0,.1,0,.2-.1.3l109.5-12v0c0,37.1-1.3,73.9-3.7,110.3c2.5-36.5,3.7-73.3,3.7-110.4m-3164.9,345.7l-72.3,8c0,.1.1.1.1.2l72.4-7.9c-.1-.1-.1-.2-.2-.3" fill="#ececf4"/><path d="M24850.4,8627.5l-109.5,12c-176.8,713.1-821.1,1242-1589,1242-642.1,0-1198.5-369.8-1466.2-908.1l-72.5,7.9c161.5,734.6,816.6,1284.1,1599.5,1284.1c867.4,0,1577.2-674.6,1634-1527.6c2.4-36.4,3.7-73.2,3.7-110.3" fill="#ececf4"/><path d="M21450.2,9017.1c42,216.2,129.2,423.6,248.9,609c121.7,184.4,276.9,346.3,456,475.8c179.6,128.4,383.3,224.6,597.8,277.3c214.5,52.9,437.4,65.6,655,38.3c435.5-55.7,845.5-277.1,1121.3-609.2c138.6-164.9,247.2-354,315.9-555.9c67.8-202.1,99.2-415.2,88.7-624.9-2.2-46.1-41.5-81.6-87.6-79.3-42.9,2.1-76.6,36.2-79.2,78.1l-.1,1.2c-22.5,379.3-179.5,739.8-434.9,1003.8-127.9,131.5-277.2,240.5-440.1,319.9-163.1,78.8-339.6,128.6-519,142.5-179.4,12.3-360.5-.7-532.4-49.1-172.2-46.6-334.3-126.7-478.3-230.9-144.5-103.8-270.2-233.9-368.7-382.1-100.7-147-172.9-312.7-217.2-486.1l-.4-1.7c-22.9-89.3-113.8-143.2-203.2-120.4-86,22-139.1,107.7-122.5,193.7" fill="#371a45"/><path d="M27204.8,5688.9c-391.6,0-749.6,143.8-1024.2,381.7c178.8-31.3,370.5-45.9,548.6-45.9c176.9,0,340.2,14.4,464.1,41.3c618.9,133.9,1305.8,551.5,1576.2,1132.9-29.5-839.1-718.7-1510-1564.7-1510" fill="#ececf4"/><path d="M28854,7254.9c16.3-163.5,5.3-331.4-31.5-495.8-23.8-80.2-44.5-162.8-79.8-239.8-30.8-79.2-74.7-151.8-116.1-226.4-91.9-143.4-206.3-272.4-336.5-383.7l-102.3-77.8c-34.4-25.5-72.2-46.2-108.3-69.3-18.4-11.1-36.3-23-55.2-33.2l-57.7-28.6c-39.2-17.4-76.5-39.2-117.6-52.2-319.8-125.5-677.3-152-1006.8-66.8-329.6,82.7-628,274.1-829.7,533.9-28.4,36.6-21.8,89.3,14.8,117.7c31.8,24.7,75.7,23,105.3-1.9l.6-.5c226.6-189.6,492.8-316.5,770.7-363c277.9-46.6,564.7-14.6,821.4,88.9c126.6,55.5,250.5,120,359.1,207.6c109,86.3,207,186.5,292.4,298.2c38.7,58.3,81.5,114.9,112.4,178.6c37.9,60.2,62.7,126.8,92,192.2c51.8,133.7,82.8,275,105.8,421.9l.7,4.6c7.2,45.8,50.1,77,95.8,69.9c38.5-6,66.8-37.5,70.5-74.5" fill="#371a45"/><path d="M28854,7254.9c16.3-163.5,5.3-331.4-31.5-495.8-23.8-80.2-44.5-162.8-79.8-239.8-30.8-79.2-74.7-151.8-116.1-226.4-91.9-143.4-206.3-272.4-336.5-383.7l-102.3-77.8c-34.4-25.5-72.2-46.2-108.3-69.3-18.4-11.1-36.3-23-55.2-33.2l-57.7-28.6c-39.2-17.4-76.5-39.2-117.6-52.2-319.8-125.5-677.3-152-1006.8-66.8-329.6,82.7-628,274.1-829.7,533.9-28.4,36.6-21.8,89.3,14.8,117.7c31.8,24.7,75.7,23,105.3-1.9l.6-.5c226.6-189.6,492.8-316.5,770.7-363c277.9-46.6,564.7-14.6,821.4,88.9c126.6,55.5,250.5,120,359.1,207.6c109,86.3,207,186.5,292.4,298.2c38.7,58.3,81.5,114.9,112.4,178.6c37.9,60.2,62.7,126.8,92,192.2c51.8,133.7,82.8,275,105.8,421.9l.7,4.6c7.2,45.8,50.1,77,95.8,69.9c38.5-6,66.8-37.5,70.5-74.5" fill="#371a45"/><path d="M19896.8,7864.2c-9.3,132.8,1.6,268.6,34.5,400.9c34.2,131.8,91.5,258.3,166.9,373.7c19.8,28.1,38.1,57.7,59.6,84.7l66.8,79.7c48.7,49.1,97.6,99,153.6,140.6c109.3,86,231.9,158.5,365.4,203.4c132.6,45.5,272.2,76.4,413.4,78c140.8,4.8,282.5-16.4,418.4-55.3c271.1-77.2,517.6-267.4,620.4-526.2c17.6-44.6-4.1-95-48.6-112.6-27.5-11-57.3-6.8-80.2,8.4l-3.7,2.5c-199.9,135.4-380.1,242-584.6,309.7-204.1,63.3-428.7,60.2-634.2-2.4-205.5-64.2-393.8-191.3-531.7-364.6-67.7-87.1-127-183-168.3-288.1-40.7-105.1-67.5-216.6-80.8-332.4l-.4-3.7c-5.3-45.9-46.8-78.8-92.7-73.5-40.7,4.7-71.1,37.8-73.8,77.2" fill="#371a45"/><path d="M19082.4,5743.1c-6.4-60.1-16.1-110.7-28.6-164.6-12.5-52.9-28-105.1-45.6-156.8-35.3-103.2-82-203.3-139.1-298.5-27.1-48.7-60.8-93.3-92.9-139.3-35.6-43.3-69.4-88.8-109.9-128.4-76.6-84-167.4-154-261.3-220-75.7-53.2-180.1-35-233.4,40.7-53.2,75.7-35,180.2,40.7,233.4c5.7,4,11.7,7.7,17.7,10.9l8.4,4.4c79.2,41.5,159,85.7,228.8,144.5c37.1,26.8,68.8,59.9,103.1,91c30.9,34,64.3,66.7,92.1,104.2c58.6,72.7,110.5,152.5,153.3,237.8c42.9,83.7,79.4,178,101.4,263.6l1.7,6.7c11.5,44.6,56.9,71.4,101.5,60c40.6-10.5,66.5-49.1,62.1-89.6" fill="#371a45"/><path d="M22828.9,5037.9c7.3-39.6,20.6-88.8,35.2-132.6c15.6-44.7,33.1-88.7,53.5-131.3c40.6-85.1,89.6-165.7,148.2-237.7c58.5-71.9,122.1-138.9,195.1-194.3c34.3-30,74-53.7,111.4-79.3c38.1-24.8,79.9-44.5,118.9-67.1l15.5-9c80-46.3,107.4-148.9,61-228.9-46.4-80.1-148.9-107.5-229-61.1-5.8,3.4-12.1,7.6-17.3,11.5-45.5,34.5-92.4,65.9-135.4,103.1-42.4,37.9-85.9,73.9-123.6,116.5-79.5,80.4-146.2,172.6-203.8,268-57.9,95.7-102.3,198.2-135.7,303.1-16.7,52.5-29.9,105.9-40.7,159.8-9.9,55.2-17.5,106.2-19.9,168.3-1.8,46,34.1,84.7,80.1,86.4c41.9,1.7,77.8-28,85.1-68.1l1.4-7.3" fill="#371a45"/></g><g id="e4rbGF3Cxis27"><path d="M19130.5,26585.3c0,0,2263.5,546.2,3013,188.5c1350.9-644.6,2427.2-5141,1744.6-6906.5-501.1-1296.1-4843.9-1371.1-4843.9-1371.1l86.3,8089.1" fill="#fff"/><path d="M22492.2,19133c19.5,243.8,41.3,477.7,58.3,659.7c47.4,509.2,16.9,997.3-57.2,1448.8c23.7,8.2,47.3,16.6,70.6,25c65.3-99.7,145.5-181.4,243.6-235.9c139.6-77.5,300.4-114.5,463.5-114.5c234.4,0,473.7,76.3,661.8,218.1-12.2-467.2-75.5-883.7-200.4-1206.7-134.5-347.9-619-605.8-1240.2-794.5" fill="#b9afbe"/><path d="M19044.1,18329.2c-90.8,0-165.3,72.9-166.8,164.1-1.6,92.2,71.8,168.2,164,169.8c1176.8,20.5,4313.4,287.6,4691.1,1264.4c666.3,1723.3-420.3,6103.7-1660.8,6695.6-571.1,272.5-2288.3-52.1-2901.9-200.1-89.4-21.6-179.8,33.5-201.5,123.1-21.6,89.6,33.5,179.8,123.1,201.5c237.6,57.3,2343.8,549.3,3124.1,176.9c672.6-321,1317.4-1496.1,1725-3143.5c309.3-1250.4,498.9-2950.9,103.4-3973.9-230.8-597.1-1152.6-1026.5-2739.6-1276.3-1146.5-180.5-2246.2-201.3-2257.1-201.5-1-.1-2-.1-3-.1" fill="#371a45"/><path d="M23779.2,23192.8l-1162.3-281.3c-103.7-25.1-177.6-116.9-179.3-223.6-6.5-390.9,25.5-1294.4,442.7-1526.1c346.3-192.4,839.2-82.3,1090.4,212.3c280.9,329.6,170.4,1202.8,94.6,1631.6-23.5,133.4-154.6,219-286.1,187.1" fill="#fff"/><path d="M23272.2,21215.3c-113.4,0-224.3,25-319,77.6-104.5,58-182.8,184.7-239.7,350.1c20.7-16.1,42.9-24.9,66.9-24.9c11,0,22.4,1.9,34.1,5.7c59.7,19.4,109.5,197,109.5,197s229.2-251,525.4-251c164.4,0,349.4,77.3,527.4,317.6c5.5,7.5,10.9,15.2,16.2,23.1-18.4-203.1-64.1-354.1-136.5-439.1-140.2-164.4-366.9-256.1-584.3-256.1" transform="translate(0 0.000001)" fill="#b9afbe"/><path d="M23779.1,23192.8h.5-.5m55.6-143.3c-6.3,0-13.1-.7-20.3-2.5v0l-1162.2-281.3c-37.5-9-64.1-42.1-64.7-80.3-9.3-569.8,81.8-1234.9,365.7-1392.5c276.2-153.5,690-71.7,903.3,178.5c169.9,199.4,192.8,763.2,61.1,1508.2-5.5,31.4-25.5,48.6-36.9,56-8.8,5.8-24.9,13.9-46,13.9M23271,20916.1c-163.1,0-323.9,37-463.5,114.5-471.7,262-528.3,1152.3-520,1659.8c2.9,174.8,123.9,325.7,294.1,366.9l1162.2,281.3c102.8,24.9,212.6,6,301.1-51.9c88.5-57.8,149.8-150.8,168.1-254.9c107.2-606.3,171.9-1402.9-128.2-1755-198.3-232.6-510.1-360.7-813.8-360.7" fill="#371a45"/><path d="M23454.2,20972.6c-28.9,11.3-43.4,19.7-62.8,30.3-17.8,10.2-35.2,20.7-51.4,32.1-33,22.2-63.6,46.3-92.3,72.1-57,51.7-108.8,107.5-151.4,168.8-87.7,120.8-148.5,255.1-188.1,391.9-39.3,137.4-58.6,276.5-70.9,413.4-10.5,137.2-18.4,277,6.9,412.2-4.4-136.6,24.2-270.7,54.8-402.2c32.5-132,71.5-260.6,126.2-379.5c55-118.9,127.3-227.4,215.1-315.7c42.7-45.2,91.5-82.9,141.2-115.8c24.9-16.3,50.8-30.8,76.7-42.8c12.9-6.4,25.9-11.6,38.6-16.5c11.3-4.2,28.1-9.6,31.3-9.5c71.8,2.7,132.1-53.3,134.7-125.1c2.7-71.7-53.4-132.1-125.1-134.7-18-.6-35.4,2.4-51.2,8.5l-32.3,12.5" fill="#371a45"/></g><path d="M20623.2,25950.1c-53.8,0-106.7,26-138.8,74.1-51.4,76.6-30.8,180.3,45.8,231.6c1004.4,672.2,1697.4,630.8,1726.3,628.8c92-6.7,161.2-86.6,154.6-178.5-6.6-91.7-86.5-160.5-177.6-154.6-11.7.5-622.5,25.9-1517.5-573.1-28.6-19.1-60.8-28.3-92.8-28.3" fill="#371a45"/><g id="e4rbGF3Cxis36"><path d="M19224.8,18002.4c221.2-1327.4,795.7-1351,962.3-2433.6c312-2026.5,164.9-3219.6-1769.9-3115-1309.7,70.8-1367.2,2430.4-1367.2,2430.4s-1617.5,898.1-1608.7,4508.7l3783.5-1390.5" fill="#fff"/><path d="M18643.8,12614.4c-69.8,0-142.3,2.1-217.5,6.1-269.4,14.6-478.9,147.5-641.9,342.4c37.8-4.9,75.6-8.4,113.6-10.4c78.5-4.2,154.5-6.3,227.2-6.3c1281.6,0,1675.9,654,1669.8,1792.6c65.3-46.8,121-82.7,163.4-108.4c10-173.2,42.7-552.8,146.7-965.1-48-268.3-139.5-496.9-292.5-665.8-234.1-258.5-617.7-385.1-1168.8-385.1m-272,4639.7c-132.6,27.1-279.9,57.2-444.2,93.1c0,0-977,167-1713.5,716.9-235.5,175.8-461.9,381.3-581.7,570.6-2.6,38.7-5.1,78.1-7.3,117.6c445.6-420.5,930.4-667.9,1341-813.2c591.4-209.5,1115-244.6,1379.5-246.5c1.7-152.5,10.8-298.7,26.2-438.5" fill="#b9afbe"/><path d="M18642.2,12280.6c-75.5,0-153.4,2.2-234,6.5-1308.4,70.7-1495.5,2049.2-1521.2,2503.9-343.6,241.8-1620.6,1359.4-1612.6,4602.3.2,92,74.9,166.5,166.9,166.5h.4c92.2-.2,166.7-75.1,166.5-167.3-8.4-3449.5,1508.4-4354.1,1523.7-4362.9l81.8-46.6l3.2-94.7c.6-22.1,69-2206.2,1209.4-2267.8c669-36,1122.6,87.8,1386.3,379c451.6,498.5,367.6,1517.3,209.6,2543.9-74.5,483.3-230.8,732.6-411.8,1021.2-201.2,320.8-429.3,684.4-550.3,1410.4-15.2,90.9,46.2,176.9,137.2,192.1c90.9,15.1,177-46.3,192.1-137.2c110-660.1,310.2-979.2,503.8-1287.9c183.9-293.1,374-596.3,458.9-1147.8c170.6-1108.2,253.4-2216.8-292.1-2818.9-300.7-332-765.9-494.7-1417.8-494.7" fill="#371a45"/><path d="M17789.9,16293.2c-522,0-1032.4,76.6-1411.6,178.2-440,117.9-689.8,258.1-742.7,416.5-21.8,65.5,13.6,136.3,79,158.1c65.3,21.8,135.7-13.2,157.9-78.1c24.4-50.5,262.3-198.5,814.3-312.5c970.5-200.5,2218-165.1,2816.8,365.6c51.7,45.8,130.7,41.1,176.5-10.6s41-130.7-10.7-176.5c-453.8-402.2-1177.2-540.7-1879.5-540.7" fill="#371a45"/></g><g id="e4rbGF3Cxis41"><path d="M14487.3,26683.1c0,0-999.8,520.3-4099.2,1678.4-2296.73,858.2-3273.65-1714.2-1047.18-3313.3c2477.68-1779.6,5432.48-1572.1,5432.48-1572.1l-286.1,3207" fill="#fff"/><path d="M13923.8,23656.6c-518.6,35.3-1234.3,127.2-2021.4,354-22,102.6-52.6,270.6-73.9,487.8c419.5-165,870.4-221.9,1226-261.3c39.4-4.4,78.4-6.5,117-6.5c275.3,0,526.8,108.4,714,284.9c6.1-278.2,17.7-564.8,38.3-858.9m-2294.1,437.2c-714.8,230.6-1475.1,575.5-2191.43,1090-371.49,266.8-644.75,554.5-834.8,843.3c93-50.7,198.06-82.5,320.27-82.5c2.95,0,5.87,0,8.85,0c871.45,10.9,491.48,1431.2,653.5,1431.2c5.75,0,12.17-1.8,19.38-5.5c633.13-325.8,898.03-1190.6,1104.53-1769.4c171.1-479.4,487.7-783,853.4-980.1c15.6-214.3,41.8-393.3,66.3-527" fill="#b9afbe"/><path d="M11809.5,23736.7c-54.3,0-104.3,35.6-120.1,90.3-22.7,78.6-541.8,1944.7,572.4,3840.5c35,59.6,111.7,79.5,171.1,44.5c59.5-35,79.4-111.6,44.4-171.1-1060.3-1804.1-552.9-3626.4-547.7-3644.6c19.2-66.3-19.1-135.6-85.5-154.7-11.5-3.4-23.2-4.9-34.6-4.9" fill="#371a45"/><path d="M14454.6,23300.5c-850.1,0-3171.4,147.2-5211.05,1612.1-1357.32,974.8-1539.8,2235.3-1134.91,2993.9c401.31,752.1,1319.09,992.1,2337.86,611.4c3073.7-1148.5,4076.6-1665.3,4117.8-1686.8c81.8-42.5,113.6-143.3,71-225-42.5-81.8-143.2-113.6-225.1-71.2-9.9,5.2-1032.8,531.4-4080.6,1670.2-865.44,323.4-1603.78,148.8-1926.43-455.8-338.58-634.4-159.04-1707.8,1035.1-2565.5c2400.93-1724.4,5294.33-1543.2,5323.43-1541.2c92.6,6.7,171.8-62.9,178.2-154.9c6.5-91.9-62.9-171.7-154.8-178.2-22.6-1.6-139.5-9-330.5-9" fill="#371a45"/><path d="M10495.1,26656.5c-99.8,7.7-192.1,30.7-284.3,64.1-46,16.3-91.1,35.8-135.1,58.4-44.3,22.1-87.64,47.3-129.02,76-83.81,56.1-161.18,125.9-227.47,207.7-66.55,81.3-120.36,176.2-156.73,277.4l185.71-103.5c-77.98-19.1-147.21-29.9-221.85-38.9-73.58-8.4-148.07-13.1-223.87-12.5-75.71.3-152.91,5.5-232.01,19-78.86,13.3-160.91,34.4-242.8,76.2-80.78,40.7-163.89,110.1-212.77,202.7l-17.4,34.6-13.09,33.4c-7.72,22.7-15.28,45.8-19.68,69.7-10.23,47.4-13.62,96.7-9.84,144.5c6.55,96.3,39.55,185.3,83.84,260.9c44.75,75.6,100.61,139.6,161.11,194.2c121.8,108.7,260.67,183.5,402.83,237.8c143.36,53.6,287.55,88.2,438.11,106.1c152.22,18.6,303.57,13,451.23-6.2c73.8-10.2,146.9-23.7,219.1-41.1c36.1-8.8,72-18.3,107.9-29.1c36.8-11,69.5-21.6,111-37.4c77.4-29.5,116.3-116.1,86.8-193.5-29.4-77.4-116.1-116.3-193.5-86.8l-4.7,1.8c-23.1,8.7-56.1,19.9-85.6,28.5-30.4,9.1-61.3,17.3-92.4,24.9-62.3,15-125.4,26.6-188.5,35.4-126.42,16.4-253.69,20.8-376.27,5.6-248.93-30.7-503.59-115.9-675.02-268.7-84.35-75.4-142.09-169.3-146.66-253.5-1.83-21.1-.29-41.6,4.15-61.7c1.51-10.2,5.27-20,8.42-30l5.72-14.9l6.2-11.6c15.57-30.4,43.8-54.6,85.91-75.4c84.79-42.2,210.96-54.4,334.47-49.9c62.53,2.1,126.18,7.2,189.94,15c62.7,7.3,130.25,18,187.36,28.7l143.06,26.7l42.68-130.2c23.07-70.4,53-139.1,95.12-203.5c20.16-32.6,43.32-64.1,68.92-94.2c25.2-30.4,51.7-60.8,81.1-89.1c29.4-28.1,59.6-56.6,91.9-83.3c32.5-26.5,66.1-52.5,100.8-77.8c69.4-49.5,145.4-97.4,220.3-139.7l3.8-2.1c24.4-13.8,33-44.7,19.2-69.1-10-17.7-29.1-27-48.1-25.6" fill="#371a45"/></g><g id="e4rbGF3Cxis47"><path d="M25649.9,25137.9c-2060.5-1324.7-4080.5-1055.5-4231.5-1223.7-110.2-122.7,1169.8-1916,965.7-4105.8-60.9-656.5-146.9-1608.9-88.5-1960.3c221.2-1327.6,795.9-1351,962.4-2433.6c312.2-2026.7,164.9-3219.9-1769.9-3115.1-1309.7,70.9-1367.3,2430.2-1367.3,2430.2s-1665.6,853.1-1607.2,3133.9c0,0-2732-214.5-3739.9,2506.6-407.3,1099.3-590.9,2139.7-669.8,3107.6-41.7,503.7-54.7,988.3-56.8,1451.1-2.5,566.8,11.7,1101.4,11.7,1600.5c0,119.8,27.1,226.7,77.6,321c658.2,1236.6,5300,400.2,5300,400.2s895.6-98.5,2227.4,87.2c748.7,104.8,1635.6,299.3,2578.8,651.9c3690.2,1379.4,3531.2-1487,1407.3-2851.7" fill="#fff"/><path d="M18377.1,18026.8c-227.2,0-739.9,26.6-1311.8,231.3-277.9,99.5-533.4,226.2-766.2,379.7c548.7-179,1027.7-204.4,1255.4-204.4c90.3,0,141.1,4,141.1,4c153.8,2.8,350.2,39,519.2,39c245.2,0,433-76.3,350.3-441.5l-64.1-4.8c-1.8-.2-46.1-3.3-123.9-3.3" fill="#b9afbe"/><path d="M21714.6,12460c-69.7,0-142.2,2.1-217.3,6.1-271.7,14.7-482.5,149.8-646.1,347.4c313.6-96.2,583-140.3,812.7-140.3c1377.3,0,1340.4,1584,1007.8,3019.4-247.3,1067-972.9,1401.7-1194.1,2729.3-58.4,351.4,215.2,1312.9,88.5,1959.9-78.1,399-715.8,522.7-1172.1,608.2c893.6,141.4,1403.2,498.2,1479.2,554.6c27.2,15,103.3,59.2,190.5,129c135.9-555.4,216.2-1185.8,154.4-1849.9-73.1-783.5-146-1649.1-87-2003.1c121-725.9,349.1-1089.6,550.3-1410.4c181-288.6,337.3-537.8,411.7-1021.2c158.1-1026.6,242.1-2045.3-209.5-2543.8-234.2-258.6-617.8-385.2-1169-385.2m-810.7,10022.3c220.5,514.8,204.6,976.7-104.1,1301.9-78.4,82.5-545.9,34.7-574.2,122.8-31.1,96.4,730.3,363.1,707,427.2-157.1,432-249.6,613.7-148.5,803.5c5.3,9.9,15,14.3,28.9,14.3c67.1,0,231.6-103.3,468.2-206.6c236.5-103.3,545.1-206.7,899.9-206.7c527.5,0,1157.4,228.3,1805.5,1024.3c559.8,687.4,655.3,1153.5,805.3,1212.7c12.5,5,24.6,7.3,36.2,7.3c183,0,279-574.3,832.8-719.2c56-14.7,112.4-21.6,168.5-21.6c683.6,0,1331.3,1030.7,922.6,1692.2c61.2-56.2,110.9-121.7,148.4-196.5c292.5-583.7-176.6-1711.4-1341-2459.8-1471.8-946-2897.6-1057.4-3663.6-1117.3-365.3-28.5-516.5-40.3-601.7-135.3-103.2-114.9-44.2-242.7,131.2-621.8c69.2-149.5,155.3-335.7,245.4-552.4-199.7-148.8-474.3-270.6-766.8-369" fill="#b9afbe"/><path d="M18685.2,18044l-4.5-184.7c-55.2-2142.3,1452.5-2947.8,1516.8-2981.1l87.6-45.4l2.8-98.9c.6-22,69-2206.1,1209.4-2267.8c669-36,1122.5,87.8,1386.3,379.1c451.6,498.5,367.6,1517.2,209.5,2543.8-74.4,483.4-230.7,732.6-411.7,1021.2-201.2,320.8-429.3,684.5-550.3,1410.4-59,354,13.9,1219.6,87,2003.1c144.7,1553.5-488.5,2922.2-792.8,3580-175.4,379.1-234.4,506.9-131.2,621.8c85.2,95,236.4,106.8,601.7,135.3c766,59.9,2191.8,171.3,3663.6,1117.3c1164.4,748.4,1633.5,1876.1,1341,2459.8-282,562.7-1253.6,598.3-2599.3,95.3-2627.5-982.3-4792.1-758.4-4883-748.4l-11.3,1.6c-1100.8,198.2-4140.7,559.3-4977.5-140.3-137-114.6-203.7-250.9-203.7-416.7c0-223.7-2.8-450.7-5.7-691-19.7-1584.1-41.9-3379.5,710.4-5410.3c398.3-1075.4,1116.7-1805.4,2135-2170c767.9-274.9,1428.9-228.6,1435.7-228l184.2,13.9m3027.9-5917.8c-75.5,0-153.4,2.2-233.9,6.5-1302.6,70.4-1493.8,2031.7-1520.8,2497.7-347,210.8-1591.3,1102.4-1612.8,3062.2-264.5,1.9-788.1,37-1379.5,246.5-771.8,273.3-1805.8,906.8-2348.9,2373.1-773.8,2088.8-750.2,3997.1-731.2,5530.4c3,239.2,5.7,465.1,5.7,686.8c0,267,108.9,493.4,323.5,672.8c1115.8,932.8,5002.1,257.2,5244.4,213.9c118.5-11.6,2235.7-200.6,4724.6,729.8c2193.1,820,2838.9,92.4,3014.7-258.4c408-814.4-246.4-2110.9-1458.9-2890.2-1542.6-991.5-3079.6-1111.6-3818.2-1169.3-108.5-8.5-226.2-17.7-308.7-28.2c29.9-71.4,74.2-167.3,115.3-255.9c316.5-684.3,975.2-2108.1,822.1-3751.2-51.3-550.9-146.9-1576.3-90.1-1917.2c110-660,310.2-979.2,503.8-1287.9c183.9-293.1,374-596.3,458.9-1147.8c170.6-1108.2,253.4-2216.7-292.1-2818.8-300.7-332.1-766-494.8-1417.9-494.8" fill="#371a45"/><path d="M16631.6,24303.1c-110.4,0-221,3.2-331.6,9.7-108.5,6.3-217,15.9-325.1,28.4-297.6,34.6-593.9,93-886.1,176.5-141,40.1-281.7,86-420.6,137.7-99.4,36.8-198.3,76.4-296.4,119.4-52.8,23-105.4,46.9-157.7,71.6-1.4,211.1-.4,418.9,1.5,623.2c122.1-52.5,246.5-101,372.4-145.3c290.2-102.1,592.7-181.8,899.9-236.9c110-19.4,221.7-36,332.1-49.5c232.5-27.8,464.4-41.5,695.2-41.5c1727.8.1,3379.2,766.5,4492.4,2098.3c33.7,2.8,67.8,5.8,102.4,8.9c70,1.3,139.8,8.4,209,21c79.2,8.7,160.4,18.4,243.4,29.1-45.1-78.3-92.3-155.9-141.5-232.9-1084.6-1693.8-2917.2-2617.7-4789.3-2617.7" fill="#b9afbe"/><path d="M13879.8,25039.9c-222,166.8-563.5,476.6-783.5,791.8-121,173.3-204,329-257.1,470.5c70.5-57.3,147.2-116.5,234.8-181.2c251.6-183.6,518.7-347.7,793.3-487.6c5.4-2.7,10.7-5.4,16.1-8.1-2.2-189.9-3.8-385.1-3.6-585.4" fill="#b9afbe"/><path d="M14214.1,24846.4c-55.9,26.5-111.6,53.9-167,82.4-38.6,19.8-96.9,58.3-167.3,111.1-.2,200.3,1.4,395.5,3.6,585.4c108.2-55.1,219.2-107.1,332.2-155.7-1.9-204.3-2.9-412.1-1.5-623.2m6793.5,2248.3c3,3.6,5.9,7.1,8.9,10.6c23.3-1.3,46.6-1.9,69.9-1.9c7.9,0,15.7.1,23.6.2-34.6-3.1-68.7-6.1-102.4-8.9m311.4,29.9c91.9,16.8,182.6,43.2,271.5,78.5-9.3-16.5-18.7-32.9-28.1-49.4-83-10.7-164.2-20.4-243.4-29.1" fill="#371a45"/><path id="e4rbGF3Cxis55" d="M23925,26377.8c74.9,42.3,150.9,90.1,220.3,139.7c34.7,25.4,68.3,51.3,100.8,77.7c32.3,26.8,62.4,55.3,91.9,83.4c29.4,28.3,55.9,58.7,81.1,89.1c25.6,30.1,48.7,61.6,68.9,94.2c42.2,64.4,72.1,133.1,95.2,203.5l42.6,130.2l143.1-26.7c65.6-12.2,142.4-24.2,213.7-31.6c72.5-8.3,144.7-12.8,215.1-13c69.8.9,138.7,5.7,198.9,21.3c60.6,14.5,110.8,38.9,141.3,67.6c15.3,14.5,25.9,30.5,34.7,48.5c8.9,20.9,14.9,44.5,17.7,69.8c6.1,50.7-3.2,108.4-23.1,164.1-40.9,112.5-128.1,213.2-235.7,281.2-108.6,67.8-238.3,104.6-373.5,109.4-33.9,1-68,.7-102.3-1.6l-111.4-9.8c-75-8.5-150.1-18.9-225.3-31.2-299.8-50.9-603.5-128.4-891.8-222.1l-4.1-1.4c-78.7-25.6-163.4,17.5-189,96.3s17.5,163.4,96.3,189v0c310.4,100.9,618.4,179.3,939.4,234.1c80.1,13.2,160.9,24.4,242.4,33.5c41.3,3.7,81.1,8,123.7,11c44.3,2.9,88.9,3.4,133.7,2c179-6.3,363-55.8,521.8-155.3c157.6-100.1,289.7-247.7,357.6-432c32.9-92.1,51.3-193.5,39.5-299.7-5.7-52.8-18.9-106.5-41.2-157.9-24-53.6-59.1-102.9-100-143.6-83.5-81-182.2-122.5-273.2-147.2-92.2-24.7-181-35.1-268.3-39.2-87.1-3.8-172.4-.4-256.4,7.6-85.1,9.4-164.3,20.9-252.4,42.4l185.7,103.5c-36.3-101.2-90.1-196-156.7-277.4-66.3-81.8-143.7-151.6-227.5-207.7-41.4-28.7-84.7-53.9-129-76-44-22.6-89.1-42.1-135.1-58.4-92.2-33.4-184.5-56.4-284.3-64.1-28-2.2-52.3,18.7-54.5,46.6-1.6,20.3,9,38.7,25.6,48.1l3.8,2.1" fill="#371a45"/></g><g id="e4rbGF3Cxis56"><path d="M11046.9,29326.5c253-915.2,735.7-1771.1,1433.3-2474.9c142.3-143.4,292.9-280.5,452.5-410.2c77.4-63.4,157.7-125,239.7-185.5c248.1-181,505.8-338.8,771-473.9c228.4-117,462.6-216.8,700-300.2c286.6-100.9,578.9-177.2,873.4-230c107.5-19,215.2-35,323-48.1c1974.2-236.2,4014.5,571.9,5269.7,2292.4c1849.4,2534.2,1293.9,6087.6-1239.8,7936.9-488.2,355.9-1014.4,623.6-1558.9,803.8-63.5,21.6-127.8,41.5-192.4,60-172.6,50.7-346.6,93-521.5,126.6-404.7,77.8-814.6,110.4-1221.7,99.4-407.1-10.5-812.3-64.9-1207-161.7-125.6-30.7-250.1-65.5-373.7-105-185.2-59.2-367.5-127.3-546.8-205.9-893.7-388.6-1699.1-1013-2315-1857.4-1064-1457.7-1331.8-3252.4-885.8-4866.3" fill="#fff"/><path d="M16528.3,36508.1c-50.9,0-101.8-.7-152.7-2.1-404.9-10.5-809.8-64.7-1203.4-161.2-126.7-31-252-66.2-372.6-104.7-188.1-60.1-371.5-129.2-545.2-205.3-917.3-398.9-1715.3-1039.3-2308.1-1851.9-1025.3-1404.6-1347.2-3173.1-883.1-4851.9c257.2-930.7,751.3-1784,1428.9-2467.6c143.4-144.6,295.2-282.2,451.2-409c71.5-58.5,149.7-119,239.1-185c243.7-177.8,502.3-336.7,768.7-472.4c222.7-114.2,457.5-214.9,697.9-299.3c280.9-98.9,573.9-176.1,870.8-229.4c106.8-18.8,215.2-34.9,322.1-48c2034.7-243.5,4047.9,632.4,5254,2285.7c1840.8,2522.4,1286.3,6072.4-1236.1,7913.4-478.8,349-1001.7,618.6-1554.3,801.4-60.7,20.7-123.4,40.3-191.8,59.9-171.4,50.3-346.3,92.8-520,126.2-349.8,67.2-707.4,101.2-1065.4,101.2m-13.1-11361.5c-224.9,0-450.9,13.3-677.4,40.4-107.4,13.1-216.4,29.3-323.9,48.2-298.7,53.6-593.5,131.3-876.1,230.8-241.8,84.9-478,186.2-702,301.1-267.9,136.4-528.1,296.3-773.3,475.2-89.9,66.4-168.6,127.3-240.4,186.1-156.9,127.5-309.6,265.9-453.8,411.4-681.7,687.6-1178.8,1546-1437.5,2482.2-466.8,1688.8-143,3467.7,888.3,4880.7c596.3,817.4,1399.2,1461.6,2321.9,1862.9c174.7,76.6,359.2,146.1,548.3,206.5c121.4,38.7,247.5,74.2,374.8,105.3c396,97.1,803.3,151.7,1210.6,162.2c411.2,11.1,823.5-22.5,1225.3-99.7c174.8-33.6,350.8-76.3,523.1-127c68.8-19.6,132-39.4,193.1-60.3c555.8-183.8,1081.8-455,1563.4-806c2537.4-1852,3095.2-5423.1,1243.4-7960.4-1078.9-1479-2800.3-2339.5-4607.8-2339.6" fill="#371a45"/><path d="M16515.8,25330.2c-141.9,0-284.4,5.5-427.1,16.6c806.9,41.5,1589.5,248.5,2286.5,616.4c716.4,378.1,1314.3,902.1,1776.4,1550c144.4-150.1,310.3-261,492.1-329.4-1046.8-1178.7-2553.4-1853.6-4127.9-1853.6m-731,308.7c-560,0-1129.1,83.2-1684.5,251.2-27.2,13.3-54.2,26.9-81.1,40.7-259.2,132-511.1,286.8-747.7,459.4-87.4,64.5-163.6,123.5-233.5,180.7-75.8,61.7-150.7,126-224,192.5c904.3-559.6,1927.4-859.3,2952.1-859.3c383.7,0,767.7,42,1145.8,128.1c1230.6,280.4,2235.5,989.4,2893.1,2011c43.4-100.1,94.1-195.1,152-283.9-442-643.4-1022.1-1161.5-1721.9-1530.8-740.9-391.1-1585-589.6-2450.3-589.6m6224.3,5706.8c-51.8,23.1-105,42.7-159.7,58.7c33.7,169.4,59.5,339.9,77.5,510.7c37.2-188.3,64.6-378.4,82.2-569.4" fill="#b9afbe"/><path d="M16528.3,36395.5c-49.9,0-99.8-.7-149.7-2.1-397-10.3-793.8-63.4-1179.6-158-124.3-30.4-247.1-64.9-365.2-102.5-184.4-59-364.1-126.6-534.2-201.2-899.2-391.1-1681.4-1018.7-2262.4-1815.1-1004.8-1376.8-1320.3-3110.2-865.5-4755.6c252.1-912.2,736.4-1748.4,1400.4-2418.3c140.6-141.7,289.4-276.6,442.3-401c70.2-57.4,146.9-116.8,234.9-181.7c238.3-173.9,491.8-329.7,752.9-462.7c218.4-111.9,448.5-210.6,684.1-293.4c275.3-96.9,562.4-172.5,853.4-224.8c104.5-18.4,210.9-34.2,315.8-47c1994.2-238.7,3967.3,619.9,5149.4,2240.3c1804.3,2472.2,1260.8,5951.6-1211.5,7756.1-469.2,342-981.8,606.3-1523.2,785.4-60,20.5-120.9,39.5-187.4,58.5-168.8,49.6-340.2,91.2-510.4,124-342.7,65.8-693.3,99.1-1044.1,99.1M16515.2,25034c-229.4,0-459.8,13.5-690.7,41.2-109.7,13.3-220.7,29.9-330.1,49.1-305,54.8-605.7,134-894,235.4-246.5,86.7-487.4,190-716,307.2-272.9,139-538.3,302.1-788.3,484.5-92,67.8-172,129.8-245.4,189.8-159.6,129.9-315.3,271-462.4,419.3-695.2,701.3-1202.1,1576.7-1466,2531.5-476.1,1722.1-145.8,3536.2,905.9,4977.1c608,833.6,1426.8,1490.5,2367.8,1899.8c178,78,366.2,148.9,559.1,210.5c123.8,39.5,252.4,75.6,382.3,107.4c403.7,98.9,819,154.6,1234.4,165.4c419.3,11.2,839.6-22.9,1249.5-101.7c178.3-34.3,357.8-77.9,533.5-129.5c69.9-20,134.9-40.3,197.8-61.8c565.8-187.1,1102.3-463.7,1593.3-821.6c2587.6-1888.7,3156.4-5530.3,1268.1-8117.8-1100.3-1508.2-2855.7-2385.7-4698.8-2385.8" fill="#371a45"/><path d="M16528.3,36357.9c-49.5,0-99.1-.6-148.7-2-394.3-10.2-788.5-63-1171.7-157-123.4-30.1-245.4-64.4-362.7-101.8-183.1-58.5-361.6-125.8-530.6-199.8-893.1-388.4-1670-1011.8-2247-1802.9-998.1-1367.4-1311.5-3089-859.7-4723.4c250.4-906,731.4-1736.5,1390.8-2401.9c139.7-140.7,287.5-274.7,439.3-398.2c69.9-57.2,146.1-116.2,233.5-180.7c236.6-172.6,488.5-327.4,747.7-459.4c217.1-111.3,445.5-209.3,679.5-291.5c273.5-96.2,558.6-171.3,847.6-223.2c103.7-18.3,209.5-34,313.7-46.7c1980.9-237.2,3940.5,615.7,5114.6,2225.1c1792,2455.5,1252.2,5911.4-1203.3,7703.7-466.1,339.7-975.2,602.2-1513,780.1-59.6,20.3-120,39.2-185.9,58-167.8,49.3-338,90.7-507.1,123.2-340.4,65.4-688.6,98.4-1037,98.4m-13.1-11361.5c-230.8,0-462.7,13.7-695.2,41.5-110.4,13.5-222.1,30.1-332.1,49.5-307.2,55.1-609.7,134.8-899.9,236.9-248.1,87.2-490.7,191.2-720.7,309.1-274.6,139.9-541.7,304-793.3,487.6-92.7,68.4-173.2,130.8-247,191.2-160.6,130.6-317.3,272.6-465.3,421.8-699.8,706-1210,1587-1475.6,2548-479.1,1733.2-146.8,3559,911.7,5009.2c612,839,1436.1,1500.2,2383.2,1912.1c179.1,78.5,368.6,149.8,562.6,211.8c124.7,39.8,254.2,76.2,384.9,108.1c406.3,99.7,824.3,155.7,1242.3,166.5c422.1,11.5,845.1-23,1257.6-102.3c179.5-34.6,360.1-78.4,537-130.4c70.2-20.1,135.8-40.6,199.3-62.3c569.2-188.2,1109.1-466.6,1603.4-826.8c2604.3-1900.9,3176.8-5566,1276.2-8170.2-1107.3-1518-2874.1-2401.2-4729.1-2401.3" fill="#371a45"/><path d="M11611.4,27984.8c2720-3013.9,7503.7-2416,8638.8,1441.5c772.2,2624.4-1201.2,5406.7-3769.3,5986.9-1869.1,422.4-3878.6,17-5327.1-2704.7c0,0-455.1-1303.9-298-2278.1c157.2-974.3,474.4-1895.2,474.4-1895.2l281.2-550.4" fill="#371a45"/><path d="M20250,29426.3c-1134.9-3857.4-5918.8-4455.3-8638.6-1441.6l-56.9,111.6c3421-1459.9,7469.3-143.9,8689.4,3735c221.4-770.2,244.3-1595.1,6.1-2405" fill="#220f2d"/><path d="M14001,25921.1c1442.2-463.9,2984.9-352,4234.1,307.4c1193.3,629.8,2038.5,1691.8,2444.6,3071.2c371.4,1262.1,177.8,2634.9-545.2,3865.5-791.7,1347.5-2130.3,2347.6-3580.6,2675.3-810.9,183.3-1571.4,205.4-2260.7,65.9-889.6-389.9-1663.6-1012.7-2239.3-1802-1001.2-1371.7-1315.5-3098.6-862.4-4737.9c251.2-908.8,733.7-1741.9,1395.2-2409.3c140.1-141.2,288.4-275.6,440.6-399.5c70.1-57.3,146.6-116.4,234.2-181.1c234.1-170.9,483.1-324.3,739.5-455.5m1783.5-582.1c-628.6,0-1267,99.4-1887.3,300.3l-21.8,9c-274.3,139.7-540.5,303.4-791.4,486.4-92.4,68.2-172.7,130.3-246.3,190.6-160.2,130.3-316.4,271.9-464,420.7-697.7,703.8-1206.5,1582.3-1471.3,2540.5-477.7,1728.2-146.3,3548.7,909.2,4994.8c610.1,836.5,1431.9,1495.8,2376.2,1906.5l14.3,6.2l15.3,3.1c735.5,151.6,1543.9,130.2,2402.6-63.9c1529.7-345.7,2940.2-1398.4,3773.1-2816c765.5-1302.9,969.4-2759.8,574.4-4102.2-429.5-1458.9-1325.9-2583.4-2592.3-3251.8-784.3-414-1677-624.2-2590.7-624.2" fill="#371a45"/><path d="M11750,28080.5c1339.2-1473,3286.6-2132.9,5087.7-1722.7c1591,362.4,2776.4,1498,3252.3,3115.6c327.8,1113.9,156.6,2325.9-481.9,3412.6-699.7,1191-1882.5,2074.9-3164,2364.4-2216.1,500.8-3944.5-376.9-5136.5-2608.5-43.6-129.7-427.8-1311.8-287-2184.9c143.9-892.1,428.2-1751.1,463.8-1856.7l265.6-519.8m4016.1-2176.4c-1570.5,0-3137,703.9-4278.6,1968.9l-14.8,16.3-300.3,591.5c-13.2,38.2-323.8,945.8-481.4,1923-162,1004.4,286.1,2304.8,305.2,2359.7l10.3,23.4c1271.8,2389.7,3126.2,3328.2,5511.2,2789.2c1369.7-309.5,2632.7-1251.9,3378.3-2520.9c685.7-1167.2,868.4-2472.6,514.3-3676-511-1737-1786.2-2956.9-3498.4-3347-378.1-86.1-762.1-128.1-1145.8-128.1" transform="translate(.000001 0.000001)" fill="#371a45"/><path d="M22761,29103.4c-184.7-1105.2-992-1922.4-1803.5-1825.4-811.2,97-1319.3,1071.6-1134.6,2176.7c5.3,32.7,11.5,65,18,97.2c214.3,1055.7,998.1,1822.5,1785.6,1728.2c608.5-72.9,1046.1-638.5,1149.3-1383.6c34.2-248.3,31.3-516.6-14.8-793.1" fill="#fff"/><path d="M22761,29103.4h.5-.5m-1268.4,2017.8c-660.7,0-1300.2-677.1-1488-1602.5-6.2-30.3-12-60.3-16.9-90.8-99.2-593.7,14-1177.8,302.9-1563.3c182.4-243.4,419.8-388.9,686.7-420.9c723-86.4,1449.2,670.5,1619,1687.2c42.3,253.8,47,503.7,14.1,742.8-95.8,692-489.8,1179-1003.8,1240.7-38.1,4.5-76.1,6.8-114,6.8m-406.2-4017.8c-49.5,0-99.1,2.9-148.8,8.9-359.6,43-675.7,233.9-914.2,552.1-347.6,463.8-480.7,1126.4-365.2,1817.9c5.6,34.2,12.1,68.7,19.2,103.1c232.9,1147.4,1098.3,1964.9,1968.9,1860.5c669.4-80.3,1177.6-679.5,1294.9-1526.5c37.5-272.7,32.3-556.4-15.6-843.4v-.1c-187.8-1124.2-994.1-1972.5-1839.2-1972.5" fill="#371a45"/><path d="M22724.9,28281.5c-404-773.6-1175.4-1063.8-1723.1-648.4-547.6,415.5-664.1,1379.3-260.1,2152.8s1175.4,1063.8,1723,648.4c547.7-415.5,664.2-1379.3,260.2-2152.8" fill="#fff"/><path d="M21911.4,30606.7c-69.7,0-140.6-8-212.5-24.1-375.3-84-718.5-377.3-941.7-804.8-399.6-765-285.1-1720.9,255.2-2130.8c220.6-167.4,481.7-223.4,755.2-162.2c375.3,84,718.6,377.3,941.8,804.7c399.6,765.1,285.1,1721-255.2,2130.8-162.7,123.5-347.4,186.4-542.8,186.4m-356.6-3181c-202.9,0-394.6,65.4-563.5,193.5-553.2,419.7-672.2,1395.3-265.1,2174.8c228,436.6,579.7,736.4,965.1,822.7c283.8,63.5,554.9,5.2,784-168.5c553.3-419.7,672.2-1395.3,265.1-2174.8-228.1-436.6-579.8-736.4-965.2-822.7-74.5-16.7-148.2-25-220.4-25" fill="#371a45"/><path d="M22856.9,28950.3h.5Zm-916.2,1609c-505.3,0-1024.6-613.3-1157-1386.7-86-502.6.2-985.3,230.4-1291.2c127-168.8,289.5-268.6,469.9-288.7c525.5-58,1086.7,574.6,1225,1382.9c86,502.6-.1,985.3-230.3,1291.2-127,168.8-289.5,268.6-470,288.7-22.6,2.5-45.3,3.8-68,3.8Zm-384.8-3270.6c-35,0-70,1.9-105.1,5.8-264.6,29.5-498.5,170.1-676.4,406.5-279,370.6-386,939.7-286.4,1522.1c169.8,992.6,852.3,1709,1553.9,1630.5c264.6-29.5,498.5-170,676.4-406.4c279-370.7,386.1-939.7,286.4-1522.2-161.3-942.8-785.4-1636.3-1448.8-1636.3" fill="#371a45"/><path d="M12122.8,29641.1c-469,661.7-668.9,1343.6-499.8,2197.2c16.9,84.1,37.5,170.3,61.3,258c5.5,20.2,11.3,40.1,17.5,60.1l.5,1.2c60.9,174.3,149.4,400.3,270.7,646.8c365.1,743.9,1025,1675.9,2109.9,1946.1c367,91.4,719.9,129.2,1050.9,129.2c1498.3,0,2550.5-773.5,2463.2-846.6c0,0-432,69-1055.7,69-868.3,0-2108.2-133.7-3072.4-773.7-1.7-1.2-3.5-2.3-5.2-3.5-348.5-231.7-628-553.7-811.6-929.8-242.7-497.4-337.1-875.8-407.4-1212.1-213.3-1022.8-121.9-1541.9-121.9-1541.9" transform="translate(0 0.000001)" fill="#9b8da2"/><path d="M18926.9,30268c-402.8,0-744,368.6-770.5,842-27.3,487.9,290,902.4,708.7,925.8c12.4.7,24.8,1,37,1c402.8,0,744.1-368.6,770.5-842c27.3-487.9-290-902.4-708.7-925.8-12.4-.7-24.7-1-37-1" fill="#9b8da2"/><path d="M18768.4,29317.9c-37.9,51.5-64.6,114.9-74.6,185.6-28.2,199.8,87.9,381.4,259.3,405.6c12.8,1.8,25.5,2.7,38.2,2.7c79.4,0,154.7-34.8,213-93.3-137.2-176.8-283-343.9-435.9-500.6" fill="#9b8da2"/><path d="M21109.4,27582.1c-95.5,38.8-183.1,95.3-260.6,167.5-193.3,211.4-312.3,504.2-350.8,827.1-10.4,164.5,3.3,331,37.5,493.5-73.3-573.6,95.9-1134.2,476.9-1423.2c31.5-23.9,63.9-45.5,97-64.9" fill="#371a45"/><path d="M20848.8,27749.6c-191.9,178.8-321,454.3-348.6,797.7-.8,9.8-1.5,19.6-2.2,29.4c38.5-322.9,157.5-615.7,350.8-827.1" fill="#8c7b94"/><path d="M21088.9,27270.2c-43.7,0-87.6,2.5-131.4,7.8-811.2,97-1319.3,1071.6-1134.6,2176.7c5.3,32.7,11.5,65,18,97.2c43.2-53.9,91-106.6,142.3-151.8-91.1-584.1,23.1-1156.1,307.4-1535.5c182.4-243.4,419.8-388.9,686.7-420.9c37.7-4.5,75.5-6.7,113.1-6.7c71.8,0,143.3,8.1,214,23.6c80.9-23.2,164.7-34.9,250.4-34.9c47.7,0,96,3.6,144.8,10.9-193.8-107.3-401-166.4-610.7-166.4" fill="#371a45"/><path d="M19017.2,29182.9c-96.8,0-187.5,51.8-248.8,135c152.9,156.7,298.7,323.8,435.9,500.6c56.8-56.8,97.5-136.1,110.4-227.3c28.2-199.8-87.9-381.4-259.3-405.6-12.8-1.8-25.5-2.7-38.2-2.7" fill="#918796"/><path d="M21430.1,27520.3c-113.4,0-221.3,21.3-320.7,61.8-33.1,19.4-65.5,41-97,64.9-381,289-550.2,849.6-476.9,1423.2c27.2,129,67.4,255.4,118.7,376.4c91.3-549.2,458-892.6,913.2-892.6c116.3,0,238.4,22.4,363.2,69.6c396.2,149.5,728,514.2,913.4,951.4c7.5-43.4,12.8-88.7,16.6-134.9c62.3-775.3-415.5-1603.7-1067.4-1850.2-124.7-47.1-246.9-69.6-363.1-69.6" fill="#b9afbe"/><path d="M21090.4,27437c-37.6,0-75.4,2.2-113.1,6.7-266.9,32-504.3,177.5-686.7,420.9-284.3,379.4-398.5,951.4-307.4,1535.5c84.6-74.5,178.7-128.6,277.3-134.6c8-.5,16.1-.8,24.2-.8c92.4,0,183.9,31.5,268,77.4-66.6-257.3-83.9-520-54.7-765.4.7-9.8,1.4-19.6,2.2-29.4c27.6-343.4,156.7-618.9,348.6-797.7c43.7-47.8,91.2-91.5,142.5-130.4c97.5-74,202.6-127,313.1-158.6-70.7-15.5-142.2-23.6-214-23.6" fill="#b9afbe"/></g><g id="e4rbGF3Cxis80"><path d="M14864.4,20821.8l-378.6-19.7c-288.3-15-534.2,206.6-549.2,494.9v0c-15,288.4,206.6,534.2,494.9,549.2l378.6,19.7c288.3,15,534.2-206.6,549.2-494.9s-206.6-534.2-494.9-549.2" fill="#fff"/><path d="M14458.5,20951.4c-198.1,0-361.8,154.6-372.1,353.4-.8,15.4-.6,30.5.4,45.5c93.1-84.1,216.4-134.9,350.3-134.9c9,0,18,.2,27.1.7l111.7,5.8l37.5-263-135.3-7c-6.6-.3-13.1-.5-19.6-.5" fill="#b9afbe"/><path d="M14837.4,21716.7c-6.5,0-13-.2-19.6-.6l-378.5-19.7c-205.2-10.6-363.6-186.3-352.9-391.6s184.8-363.5,391.7-352.9l378.5,19.7c205.3,10.7,363.6,186.4,352.9,391.6-10.3,198.7-175.3,353.5-372.1,353.5m-379.1-1065.3c-355.1,0-652.8,279.2-671.5,637.8-19.2,370.5,266.5,687.6,637,706.8l378.4,19.7c369.3,19.5,687.6-266.4,706.9-636.9s-266.4-687.5-636.9-706.8l-378.6-19.7c-11.8-.6-23.6-.9-35.3-.9" fill="#371a45"/><path d="M18856.4,20124.8l532.2,226.1c113.8,48.3,183.3,164.5,172.1,287.5l-172.6,1826.4c-13.3,140.6-123.7,252.4-264.1,267.5l-576.4,61.9l308.8-2669.4" fill="#fff"/><path d="M19170,20393.8c17.7,65.2,24.4,134.3,18.4,205l-47.2,550.1c69.9-103.1,136.5-168.3,142.3-174l33.6-32.4l46.5-2.5c14.5-.8,28.9-1.5,43.3-2.1l29.3-310.8c6.3-69.2-32.5-134-96.5-161.2l-169.7-72.1" fill="#b9afbe"/><path d="M18856.5,19999.8c-48.7,0-94.9,28.6-115.1,76.2-27,63.5,2.6,136.9,66.2,163.9l532.1,226c64,27.2,102.8,92,96.5,161.2L19263.7,22453c-7.7,81.1-72,146.3-153,155l-576.4,61.9c-68.6,7.3-118.3,69-110.9,137.6s68.4,118.2,137.6,111l576.3-61.9c198.7-21.3,356.5-181.2,375.3-380.1l172.5-1826.3c16.2-178.3-83.3-344.6-247.6-414.4l-532.2-226c-16-6.8-32.5-10-48.8-10" fill="#371a45"/><path d="M21855.4,22842.1c0,0,370.9,1.9,438.4-470.7c62-433.5-488.3-721.3-488.3-721.3s-865.5-670-2435.2-585.3c0,0-539.4,520.9-94.6,940.7c0,0,1898.3,204.9,2579.7,836.6" fill="#fff"/><path d="M19639.9,21182.5c-69.3,0-140.4,1.5-212.9,4.7-63.3,72-203.6,253-202.1,443.4.2,25,2.9,49.3,8.1,73c105.6-151.2,283.5-244,474.8-244c1.6,0,3.1,0,4.7,0c1371.8,10.9,2123.2,592.4,2123.2,592.4s192.9,100.9,337.3,273.2c19.7-325.4-421-562-425.4-564.3l-18.4-11.8c-7.9-6-754-566.6-2089.3-566.6" fill="#b9afbe"/><path d="M19427,21187.2c1468.6-64.5,2293.9,555.6,2302.2,561.9l18.4,11.8c4.5,2.3,471.1,252.9,422.5,592.8-39.1,273.7-195.5,341.3-273.5,358-679.9-575.8-2269.8-790.1-2563.2-825.3-72.2-78.1-107.7-162.1-108.5-255.8-1.5-190.4,138.8-371.4,202.1-443.4m218.7-254.8c-91.5,0-185.4,2.4-282.1,7.6l-46.5,2.5-33.6,32.4c-12.7,12.3-310.6,304-308.6,656.2c1,175,73.3,331.6,215,465.3l30.5,28.9l41.8,4.5c18.6,2,1865.1,207.8,2508.2,803.9l35.6,33.1l48.7.3h1.8c166.5,0,495.7-120.5,561.1-578c69.4-485.7-461.9-799-544.4-844.5-95.2-70.6-870.1-612.2-2227.5-612.2" fill="#371a45"/><path d="M18668.5,20083.7c-677.8-106.6-2058.2-263.4-3451.3-64.1-207.3,29.8-370.9,192-400.8,399.6l-85.3,598.9-163.9,1151c-41.1,287.6,185.7,543.1,476.1,536.3c751.3-17.1,2137.9-25.4,3353.2,98.1c260.5,26.6,491.8-166.9,514.2-427.7l55.8-650.9l97.2-1136.8c21.3-246-151.2-466.3-395.2-504.4" fill="#fff"/><path d="M16645.8,20048.5c-449.6,0-929.5,26-1410.7,94.9-152.1,21.8-273.3,142.4-294.8,293.3l-67.1,470.8c455.7-323.6,1102.6-509.8,1853.4-509.8c246.1,0,503.2,20,768.6,61.7c89.1,13.8,173,31.6,252.2,52.8-104,80.7-181.4,217.1-201.4,378.7-4,31.3-5.6,62.2-5,92.5c20.5-18.4,42.2-34.5,64.8-48c38.2-23,79.2-38.7,121.6-46.1c39.7-56.5,105-91.3,175.9-91.3c8.9,0,17.9.6,27,1.7l220.1,27.4c212.6,26.4,373.7,213.8,414.7,453c38.5-61.2,67-133.3,81.6-212.3c94.2,116.4,165.5,239.9,219.5,362.6l73-853c15.4-179.7-112-342.4-290-370.4-445.7-70-1173.2-158.5-2003.4-158.5" fill="#b9afbe"/><path d="M15032.5,22580.6c-98.7,0-192.3-41.9-258-115.9-67.4-75.9-97.9-177.2-83.6-277.9l249.4-1750.1c21.5-150.9,142.7-271.5,294.8-293.3c1369.8-196.2,2727-44.3,3414.1,63.6c178,28,305.4,190.7,290,370.4l-153.1,1787.7c-8,93.1-52,177.2-123.9,236.9-71.4,59.1-161.2,86.5-253,77.1-1230.5-124.9-2638.9-115.3-3368.7-98.6-2.7.1-5.3.1-8,.1m1612.9-2782c-460.4,0-952,26.6-1445.8,97.3-261.3,37.5-469.7,245.3-506.8,505.5l-249.4,1750.2c-24.7,173.4,27.8,348.1,144.1,479.1c116.4,131,282.8,203.5,458.7,199.8c724.1-16.7,2120.7-26.2,3337.7,97.4c158.8,16.2,314.4-31.2,437.8-133.4c123.9-102.8,199.7-247.6,213.5-408l153.2-1787.7c26.5-310-193.3-590.5-500.4-638.7-454.1-71.4-1195.5-161.5-2042.6-161.5" transform="translate(0 0.000001)" fill="#371a45"/><path d="M17680.2,21381.8c6.9-55.6,141-494.9,141-494.9s142.2,17.7,316.9,39.5c218.2,27.1,366.9,275,332.3,553.7-34.7,278.7-239.7,482.6-457.9,455.5-147.2-18.4-316.8-39.5-316.8-39.5s-26.7-423.7-15.5-514.3" fill="#22a7f0"/><path d="M17680.2,21381.8c6.9-55.6,141-494.9,141-494.9s142.2,17.7,316.9,39.5c218.2,27.1,366.9,275,332.3,553.7-34.7,278.7-239.7,482.6-457.9,455.5-147.2-18.4-316.8-39.5-316.8-39.5s-26.7-423.7-15.5-514.3" fill="#22a7f0"/><path d="M18474.2,21437.8c-71.8,210-245.1,349.4-427.9,327-147.4-18.3-316.9-39.6-316.9-39.6s-20.7-324.3-18-466c-16.9,59.3-29.3,106.6-31.1,122.5-11.5,90.7,15.4,514.5,15.4,514.5s169.5,21,316.9,39.3c218.2,27.1,423.2-176.6,457.8-455.4c1.7-14.2,2.9-28.4,3.8-42.3" transform="translate(.000001 0)" fill="#fff"/><path d="M18044.2,21015.4c68,82.8,110.1,198,114,325.4c83.7,10.7,157.2,54,213.9,119c24.2-220.3-85.2-414.2-246.4-434.2l-81.5-10.2" fill="#2976b4"/><path d="M17779.4,21394.6c3.4-21.6,34.1-135.2,109.3-385.5c2.2-7.3,10.2-11.9,16.9-10.9l220.1,27.4c163.1,20.3,273.2,218.6,245.5,442.2-14.1,112.6-60.7,213.5-131.4,283.8-64.2,63.9-140.6,94.1-214.9,84.7l-221.2-27.5c-7.6-.9-13.4-7.1-13.8-14.6-13.5-246.5-14.3-367.9-10.5-399.6m123.9-596.6c-94.2,0-178.4,61.3-206.1,153.5-109.6,364.4-114.4,403.3-116.2,418v0c-6.8,54.4-3.7,200.9,9.2,435.6c5.7,104.2,85,189.3,188.7,202.2l221.3,27.5c136.4,17,271.8-33.2,380.6-141.4c102.2-101.7,169.3-244.1,188.8-401c41.4-332.9-146.7-631.4-419.2-665.3l-220.1-27.4c-9.1-1.1-18.1-1.7-27-1.7" fill="#371a45"/><path d="M17363.3,21342.4c34.7-278.7,239.7-482.6,457.9-455.5c218.2,27.2,367,275.1,332.3,553.8s-239.6,482.6-457.8,455.4c-218.2-27.1-367-275-332.4-553.7" transform="translate(.000001 0)" fill="#22a7f0"/><path d="M18150.8,21263c-41.3,269-241.9,462.8-455.1,436.2-170.1-21.3-298-176.3-329.6-375.7-.9,6.2-1.8,12.4-2.7,18.9-34.8,278.8,114,526.6,332.3,553.8c218.2,27.2,423.2-176.9,457.8-455.4c7.7-61.5,6.2-121.4-2.7-177.8" fill="#fff"/><path d="M17541,20983.4c-45.4,40.7-84.8,92.4-115.3,152.4c30.5-59.9,69.9-111.7,115.3-152.4v0" fill="#b9afbe"/><path d="M17605.8,20935.4c-22.6,13.5-44.3,29.6-64.8,48v0c20.5-18.3,42.2-34.5,64.8-48" fill="#8c7b94"/><path d="M18143.4,21499.8c-2.6,11.7-5.4,23.3-8.6,34.7c3.2-11.4,6.1-23,8.6-34.7" fill="#2976b4"/><path d="M17782.1,20884.6c-61.9,0-121.8,18.1-176.3,50.8-22.6,13.5-44.3,29.7-64.8,48-45.4,40.7-84.8,92.5-115.3,152.4-31.1,61.3-52.9,131.3-62.3,206.6v0v0c.9-6.5,1.8-12.7,2.7-18.9c10,63.3,29.7,122,57.4,173.5c76.7-154.5,212.3-256,358.4-256c13,0,26.1.9,39.3,2.5c116.1,14.5,212.7,91.5,272.2,202.5c27.4-55,47.2-116.7,57.4-183c6.1,39,8.7,79.7,7.2,121.4c9.5-255.1-133.4-472.1-336.8-497.4-13.1-1.6-26.2-2.4-39.1-2.4" fill="#2976b4"/><path d="M18150.8,21263c-10.2,66.3-30,128-57.4,183c15.9,29.6,29.1,61.6,39.4,95.5.7-2.3,1.3-4.6,2-7c3.2-11.4,6-23,8.6-34.7c4.2-19.3,7.5-38.9,10.1-59c2.3-19,3.8-37.8,4.5-56.4c1.5-41.7-1.1-82.4-7.2-121.4m-784.7,60.5c-.9,6.2-1.8,12.4-2.7,18.9v0c-11.2,91-3.2,178.4,20.7,256.1c10.4-35.8,23.6-69.8,39.4-101.5-27.7-51.5-47.4-110.2-57.4-173.5" fill="#b9afbe"/><path d="M17735.1,21798.6c-9,0-18-.6-27.1-1.7-163.1-20.3-273.2-218.6-245.4-442.1v-.1c14-112.7,60.6-213.5,131.3-283.8c64.2-63.9,140-94,214.9-84.7c163.2,20.3,273.3,218.6,245.5,442.1-26.3,211.1-166.3,370.3-319.2,370.3Zm46.2-1014.1c-118.6,0-233.6,50.2-328.4,144.6-102.2,101.7-169.3,244.1-188.7,401-41.5,332.9,146.5,631.4,419.1,665.3c272.1,33.7,528-209.4,569.4-542.4c41.5-332.9-146.6-631.4-419.2-665.3-17.4-2.2-34.8-3.2-52.2-3.2" fill="#371a45"/><path d="M16689.4,19823.9c-51.2,0-94.8,39-99.5,90.9L16489.4,21021c-7.6,83.9-56,158.3-129.6,199.2l-204.2,113.6c-127.6,70.9-213.7,199.8-230.5,344.7l-116.7,1005.7c-6.4,54.9,32.9,104.5,87.8,110.9c54.8,5.9,104.5-33,110.9-87.8l116.6-1005.8c9.4-81.1,57.7-153.2,129-192.9L16457,21395c131.4-73,218-206.1,231.7-355.9l100.4-1106.2c5-55-35.5-103.7-90.6-108.6-3-.3-6.1-.4-9.1-.4" fill="#371a45"/><path d="M19793.6,16171c-660.1,0-1108,187.9-1127.7,196.3-63.5,27.1-93,100.6-65.8,164c27.1,63.5,100.5,93,164,65.9c8.5-3.5,477.5-196.6,1139.5-174.3c888.7,30.3,1689.5,414,2380.3,1140.5c47.6,50.1,126.7,52,176.7,4.5c50.1-47.6,52-126.7,4.5-176.8-922.9-970.5-1904.4-1198.3-2565.3-1218.5-35.9-1.1-71.3-1.6-106.2-1.6" fill="#371a45"/><path d="M23793.3,24178.1c-12.6,0-25.3,1.9-37.8,5.9-796.6,252.4-1274.3,916.5-1381.6,1920.7-78.9,739.1,68.8,1395.2,75.1,1422.7c15.5,67.3,82.8,109.1,149.7,93.9c67.3-15.5,109.3-82.5,94-149.8-5.7-25-553.4-2513.2,1138.2-3049.2c65.9-20.9,102.3-91.1,81.4-156.9-16.8-53.3-66-87.3-119-87.3" transform="translate(0 0.000001)" fill="#371a45"/></g></g></g>
<script><![CDATA[
!function(t,n){"object"==typeof exports&&"undefined"!=typeof module?module.exports=n():"function"==typeof define&&define.amd?define(n):((t="undefined"!=typeof globalThis?globalThis:t||self).__SVGATOR_PLAYER__=t.__SVGATOR_PLAYER__||{},t.__SVGATOR_PLAYER__["5c7f360c"]=n())}(this,(function(){"use strict";function t(t,n){var e=Object.keys(t);if(Object.getOwnPropertySymbols){var r=Object.getOwnPropertySymbols(t);n&&(r=r.filter((function(n){return Object.getOwnPropertyDescriptor(t,n).enumerable}))),e.push.apply(e,r)}return e}function n(n){for(var e=1;e<arguments.length;e++){var r=null!=arguments[e]?arguments[e]:{};e%2?t(Object(r),!0).forEach((function(t){o(n,t,r[t])})):Object.getOwnPropertyDescriptors?Object.defineProperties(n,Object.getOwnPropertyDescriptors(r)):t(Object(r)).forEach((function(t){Object.defineProperty(n,t,Object.getOwnPropertyDescriptor(r,t))}))}return n}function e(t){return(e="function"==typeof Symbol&&"symbol"==typeof Symbol.iterator?function(t){return typeof t}:function(t){return t&&"function"==typeof Symbol&&t.constructor===Symbol&&t!==Symbol.prototype?"symbol":typeof t})(t)}function r(t,n){if(!(t instanceof n))throw new TypeError("Cannot call a class as a function")}function i(t,n){for(var e=0;e<n.length;e++){var r=n[e];r.enumerable=r.enumerable||!1,r.configurable=!0,"value"in r&&(r.writable=!0),Object.defineProperty(t,r.key,r)}}function u(t,n,e){return n&&i(t.prototype,n),e&&i(t,e),t}function o(t,n,e){return n in t?Object.defineProperty(t,n,{value:e,enumerable:!0,configurable:!0,writable:!0}):t[n]=e,t}function a(t){return(a=Object.setPrototypeOf?Object.getPrototypeOf:function(t){return t.__proto__||Object.getPrototypeOf(t)})(t)}function l(t,n){return(l=Object.setPrototypeOf||function(t,n){return t.__proto__=n,t})(t,n)}function s(){if("undefined"==typeof Reflect||!Reflect.construct)return!1;if(Reflect.construct.sham)return!1;if("function"==typeof Proxy)return!0;try{return Boolean.prototype.valueOf.call(Reflect.construct(Boolean,[],(function(){}))),!0}catch(t){return!1}}function f(t,n,e){return(f=s()?Reflect.construct:function(t,n,e){var r=[null];r.push.apply(r,n);var i=new(Function.bind.apply(t,r));return e&&l(i,e.prototype),i}).apply(null,arguments)}function c(t,n){if(n&&("object"==typeof n||"function"==typeof n))return n;if(void 0!==n)throw new TypeError("Derived constructors may only return object or undefined");return function(t){if(void 0===t)throw new ReferenceError("this hasn't been initialised - super() hasn't been called");return t}(t)}function h(t,n,e){return(h="undefined"!=typeof Reflect&&Reflect.get?Reflect.get:function(t,n,e){var r=function(t,n){for(;!Object.prototype.hasOwnProperty.call(t,n)&&null!==(t=a(t)););return t}(t,n);if(r){var i=Object.getOwnPropertyDescriptor(r,n);return i.get?i.get.call(e):i.value}})(t,n,e||t)}function v(t){return function(t){if(Array.isArray(t))return y(t)}(t)||function(t){if("undefined"!=typeof Symbol&&null!=t[Symbol.iterator]||null!=t["@@iterator"])return Array.from(t)}(t)||function(t,n){if(!t)return;if("string"==typeof t)return y(t,n);var e=Object.prototype.toString.call(t).slice(8,-1);"Object"===e&&t.constructor&&(e=t.constructor.name);if("Map"===e||"Set"===e)return Array.from(t);if("Arguments"===e||/^(?:Ui|I)nt(?:8|16|32)(?:Clamped)?Array$/.test(e))return y(t,n)}(t)||function(){throw new TypeError("Invalid attempt to spread non-iterable instance.\nIn order to be iterable, non-array objects must have a [Symbol.iterator]() method.")}()}function y(t,n){(null==n||n>t.length)&&(n=t.length);for(var e=0,r=new Array(n);e<n;e++)r[e]=t[e];return r}Number.isInteger||(Number.isInteger=function(t){return"number"==typeof t&&isFinite(t)&&Math.floor(t)===t}),Number.EPSILON||(Number.EPSILON=2220446049250313e-31);var g=d(Math.pow(10,-6));function d(t){var n=arguments.length>1&&void 0!==arguments[1]?arguments[1]:6;if(Number.isInteger(t))return t;var e=Math.pow(10,n);return Math.round((+t+Number.EPSILON)*e)/e}function p(t,n){var e=arguments.length>2&&void 0!==arguments[2]?arguments[2]:g;return Math.abs(t-n)<e}var m=Math.PI/180;function b(t){return t}function w(t,n,e){var r=1-e;return 3*e*r*(t*r+n*e)+e*e*e}function x(){var t=arguments.length>0&&void 0!==arguments[0]?arguments[0]:0,n=arguments.length>1&&void 0!==arguments[1]?arguments[1]:0,e=arguments.length>2&&void 0!==arguments[2]?arguments[2]:1,r=arguments.length>3&&void 0!==arguments[3]?arguments[3]:1;return t<0||t>1||e<0||e>1?null:p(t,n)&&p(e,r)?b:function(i){if(i<=0)return t>0?i*n/t:0===n&&e>0?i*r/e:0;if(i>=1)return e<1?1+(i-1)*(r-1)/(e-1):1===e&&t<1?1+(i-1)*(n-1)/(t-1):1;for(var u,o=0,a=1;o<a;){var l=w(t,e,u=(o+a)/2);if(p(i,l))break;l<i?o=u:a=u}return w(n,r,u)}}function A(){return 1}function k(t){return 1===t?1:0}function _(){var t=arguments.length>0&&void 0!==arguments[0]?arguments[0]:1,n=arguments.length>1&&void 0!==arguments[1]?arguments[1]:0;if(1===t){if(0===n)return k;if(1===n)return A}var e=1/t;return function(t){return t>=1?1:(t+=n*e)-t%e}}var S=Math.sin,O=Math.cos,j=Math.acos,M=Math.asin,P=Math.tan,E=Math.atan2,I=Math.PI/180,R=180/Math.PI,F=Math.sqrt,N=function(){function t(){var n=arguments.length>0&&void 0!==arguments[0]?arguments[0]:1,e=arguments.length>1&&void 0!==arguments[1]?arguments[1]:0,i=arguments.length>2&&void 0!==arguments[2]?arguments[2]:0,u=arguments.length>3&&void 0!==arguments[3]?arguments[3]:1,o=arguments.length>4&&void 0!==arguments[4]?arguments[4]:0,a=arguments.length>5&&void 0!==arguments[5]?arguments[5]:0;r(this,t),this.m=[n,e,i,u,o,a],this.i=null,this.w=null,this.s=null}return u(t,[{key:"determinant",get:function(){var t=this.m;return t[0]*t[3]-t[1]*t[2]}},{key:"isIdentity",get:function(){if(null===this.i){var t=this.m;this.i=1===t[0]&&0===t[1]&&0===t[2]&&1===t[3]&&0===t[4]&&0===t[5]}return this.i}},{key:"point",value:function(t,n){var e=this.m;return{x:e[0]*t+e[2]*n+e[4],y:e[1]*t+e[3]*n+e[5]}}},{key:"translateSelf",value:function(){var t=arguments.length>0&&void 0!==arguments[0]?arguments[0]:0,n=arguments.length>1&&void 0!==arguments[1]?arguments[1]:0;if(!t&&!n)return this;var e=this.m;return e[4]+=e[0]*t+e[2]*n,e[5]+=e[1]*t+e[3]*n,this.w=this.s=this.i=null,this}},{key:"rotateSelf",value:function(){var t=arguments.length>0&&void 0!==arguments[0]?arguments[0]:0;if(t%=360){var n=S(t*=I),e=O(t),r=this.m,i=r[0],u=r[1];r[0]=i*e+r[2]*n,r[1]=u*e+r[3]*n,r[2]=r[2]*e-i*n,r[3]=r[3]*e-u*n,this.w=this.s=this.i=null}return this}},{key:"scaleSelf",value:function(){var t=arguments.length>0&&void 0!==arguments[0]?arguments[0]:1,n=arguments.length>1&&void 0!==arguments[1]?arguments[1]:1;if(1!==t||1!==n){var e=this.m;e[0]*=t,e[1]*=t,e[2]*=n,e[3]*=n,this.w=this.s=this.i=null}return this}},{key:"skewSelf",value:function(t,n){if(n%=360,(t%=360)||n){var e=this.m,r=e[0],i=e[1],u=e[2],o=e[3];t&&(t=P(t*I),e[2]+=r*t,e[3]+=i*t),n&&(n=P(n*I),e[0]+=u*n,e[1]+=o*n),this.w=this.s=this.i=null}return this}},{key:"resetSelf",value:function(){var t=arguments.length>0&&void 0!==arguments[0]?arguments[0]:1,n=arguments.length>1&&void 0!==arguments[1]?arguments[1]:0,e=arguments.length>2&&void 0!==arguments[2]?arguments[2]:0,r=arguments.length>3&&void 0!==arguments[3]?arguments[3]:1,i=arguments.length>4&&void 0!==arguments[4]?arguments[4]:0,u=arguments.length>5&&void 0!==arguments[5]?arguments[5]:0,o=this.m;return o[0]=t,o[1]=n,o[2]=e,o[3]=r,o[4]=i,o[5]=u,this.w=this.s=this.i=null,this}},{key:"recomposeSelf",value:function(){var t=arguments.length>0&&void 0!==arguments[0]?arguments[0]:null,n=arguments.length>1&&void 0!==arguments[1]?arguments[1]:null,e=arguments.length>2&&void 0!==arguments[2]?arguments[2]:null,r=arguments.length>3&&void 0!==arguments[3]?arguments[3]:null,i=arguments.length>4&&void 0!==arguments[4]?arguments[4]:null;return this.isIdentity||this.resetSelf(),t&&(t.x||t.y)&&this.translateSelf(t.x,t.y),n&&this.rotateSelf(n),e&&(e.x&&this.skewSelf(e.x,0),e.y&&this.skewSelf(0,e.y)),!r||1===r.x&&1===r.y||this.scaleSelf(r.x,r.y),i&&(i.x||i.y)&&this.translateSelf(i.x,i.y),this}},{key:"decompose",value:function(){var t=arguments.length>0&&void 0!==arguments[0]?arguments[0]:0,n=arguments.length>1&&void 0!==arguments[1]?arguments[1]:0,e=this.m,r=e[0]*e[0]+e[1]*e[1],i=[[e[0],e[1]],[e[2],e[3]]],u=F(r);if(0===u)return{origin:{x:d(e[4]),y:d(e[5])},translate:{x:d(t),y:d(n)},scale:{x:0,y:0},skew:{x:0,y:0},rotate:0};i[0][0]/=u,i[0][1]/=u;var o=e[0]*e[3]-e[1]*e[2]<0;o&&(u=-u);var a=i[0][0]*i[1][0]+i[0][1]*i[1][1];i[1][0]-=i[0][0]*a,i[1][1]-=i[0][1]*a;var l=F(i[1][0]*i[1][0]+i[1][1]*i[1][1]);if(0===l)return{origin:{x:d(e[4]),y:d(e[5])},translate:{x:d(t),y:d(n)},scale:{x:d(u),y:0},skew:{x:0,y:0},rotate:0};i[1][0]/=l,i[1][1]/=l,a/=l;var s=0;return i[1][1]<0?(s=j(i[1][1])*R,i[0][1]<0&&(s=360-s)):s=M(i[0][1])*R,o&&(s=-s),a=E(a,F(i[0][0]*i[0][0]+i[0][1]*i[0][1]))*R,o&&(a=-a),{origin:{x:d(e[4]),y:d(e[5])},translate:{x:d(t),y:d(n)},scale:{x:d(u),y:d(l)},skew:{x:d(a),y:0},rotate:d(s)}}},{key:"clone",value:function(){var t=this.m;return new this.constructor(t[0],t[1],t[2],t[3],t[4],t[5])}},{key:"toString",value:function(){var t=arguments.length>0&&void 0!==arguments[0]?arguments[0]:" ";if(null===this.s){var n=this.m.map((function(t){return d(t)}));1===n[0]&&0===n[1]&&0===n[2]&&1===n[3]?this.s="translate("+n[4]+t+n[5]+")":this.s="matrix("+n.join(t)+")"}return this.s}}],[{key:"create",value:function(t){return t?Array.isArray(t)?f(this,v(t)):t instanceof this?t.clone():(new this).recomposeSelf(t.origin,t.rotate,t.skew,t.scale,t.translate):new this}}]),t}();function T(t,n,e){return t>=.5?e:n}function q(t,n,e){return 0===t||n===e?n:t*(e-n)+n}function B(t,n,e){var r=q(t,n,e);return r<=0?0:r}function L(t,n,e){var r=q(t,n,e);return r<=0?0:r>=1?1:r}function C(t,n,e){return 0===t?n:1===t?e:{x:q(t,n.x,e.x),y:q(t,n.y,e.y)}}function D(t,n,e){var r=function(t,n,e){return Math.round(q(t,n,e))}(t,n,e);return r<=0?0:r>=255?255:r}function z(t,n,e){return 0===t?n:1===t?e:{r:D(t,n.r,e.r),g:D(t,n.g,e.g),b:D(t,n.b,e.b),a:q(t,null==n.a?1:n.a,null==e.a?1:e.a)}}function V(t,n){for(var e=[],r=0;r<t;r++)e.push(n);return e}function G(t,n){if(--n<=0)return t;var e=(t=Object.assign([],t)).length;do{for(var r=0;r<e;r++)t.push(t[r])}while(--n>0);return t}var Y,$=function(){function t(n){r(this,t),this.list=n,this.length=n.length}return u(t,[{key:"setAttribute",value:function(t,n){for(var e=this.list,r=0;r<this.length;r++)e[r].setAttribute(t,n)}},{key:"removeAttribute",value:function(t){for(var n=this.list,e=0;e<this.length;e++)n[e].removeAttribute(t)}},{key:"style",value:function(t,n){for(var e=this.list,r=0;r<this.length;r++)e[r].style[t]=n}}]),t}(),U=/-./g,Q=function(t,n){return n.toUpperCase()};function H(t){return"function"==typeof t?t:T}function J(t){return t?"function"==typeof t?t:Array.isArray(t)?function(t){var n=arguments.length>1&&void 0!==arguments[1]?arguments[1]:b;if(!Array.isArray(t))return n;switch(t.length){case 1:return _(t[0])||n;case 2:return _(t[0],t[1])||n;case 4:return x(t[0],t[1],t[2],t[3])||n}return n}(t,null):function(t,n){var e=arguments.length>2&&void 0!==arguments[2]?arguments[2]:b;switch(t){case"linear":return b;case"steps":return _(n.steps||1,n.jump||0)||e;case"bezier":case"cubic-bezier":return x(n.x1||0,n.y1||0,n.x2||0,n.y2||0)||e}return e}(t.type,t.value,null):null}function Z(t,n,e){var r=arguments.length>3&&void 0!==arguments[3]&&arguments[3],i=n.length-1;if(t<=n[0].t)return r?[0,0,n[0].v]:n[0].v;if(t>=n[i].t)return r?[i,1,n[i].v]:n[i].v;var u,o=n[0],a=null;for(u=1;u<=i;u++){if(!(t>n[u].t)){a=n[u];break}o=n[u]}return null==a?r?[i,1,n[i].v]:n[i].v:o.t===a.t?r?[u,1,a.v]:a.v:(t=(t-o.t)/(a.t-o.t),o.e&&(t=o.e(t)),r?[u,t,e(t,o.v,a.v)]:e(t,o.v,a.v))}function K(t,n){var e=arguments.length>2&&void 0!==arguments[2]?arguments[2]:null;return t&&t.length?"function"!=typeof n?null:("function"!=typeof e&&(e=null),function(r){var i=Z(r,t,n);return null!=i&&e&&(i=e(i)),i}):null}function W(t,n){return t.t-n.t}function X(t,n,r,i,u){var o,a="@"===r[0],l="#"===r[0],s=Y[r],f=T;switch(a?(o=r.substr(1),r=o.replace(U,Q)):l&&(r=r.substr(1)),e(s)){case"function":if(f=s(i,u,Z,J,r,a,n,t),l)return f;break;case"string":f=K(i,H(s));break;case"object":if((f=K(i,H(s.i),s.f))&&"function"==typeof s.u)return s.u(n,f,r,a,t)}return f?function(t,n,e){if(arguments.length>3&&void 0!==arguments[3]&&arguments[3])return t instanceof $?function(r){return t.style(n,e(r))}:function(r){return t.style[n]=e(r)};if(Array.isArray(n)){var r=n.length;return function(i){var u=e(i);if(null==u)for(var o=0;o<r;o++)t[o].removeAttribute(n);else for(var a=0;a<r;a++)t[a].setAttribute(n,u)}}return function(r){var i=e(r);null==i?t.removeAttribute(n):t.setAttribute(n,i)}}(n,r,f,a):null}function tt(t,n,r,i){if(!i||"object"!==e(i))return null;var u=null,o=null;return Array.isArray(i)?o=function(t){if(!t||!t.length)return null;for(var n=0;n<t.length;n++)t[n].e&&(t[n].e=J(t[n].e));return t.sort(W)}(i):(o=i.keys,u=i.data||null),o?X(t,n,r,o,u):null}function nt(t,n,e){if(!e)return null;var r=[];for(var i in e)if(e.hasOwnProperty(i)){var u=tt(t,n,i,e[i]);u&&r.push(u)}return r.length?r:null}function et(t,n){if(!n.settings.duration||n.settings.duration<0)return null;var e,r,i,u,o,a=function(t,n){if(!n)return null;var e=[];if(Array.isArray(n))for(var r=n.length,i=0;i<r;i++){var u=n[i];if(2===u.length){var o=null;if("string"==typeof u[0])o=t.getElementById(u[0]);else if(Array.isArray(u[0])){o=[];for(var a=0;a<u[0].length;a++)if("string"==typeof u[0][a]){var l=t.getElementById(u[0][a]);l&&o.push(l)}o=o.length?1===o.length?o[0]:new $(o):null}if(o){var s=nt(t,o,u[1]);s&&(e=e.concat(s))}}}else for(var f in n)if(n.hasOwnProperty(f)){var c=t.getElementById(f);if(c){var h=nt(t,c,n[f]);h&&(e=e.concat(h))}}return e.length?e:null}(t,n.elements);return a?(e=a,r=n.settings,i=r.duration,u=e.length,o=null,function(t,n){var a=r.iterations||1/0,l=(r.alternate&&a%2==0)^r.direction>0?i:0,s=t%i,f=1+(t-s)/i;n*=r.direction,r.alternate&&f%2==0&&(n=-n);var c=!1;if(f>a)s=l,c=!0,-1===r.fill&&(s=r.direction>0?0:i);else if(n<0&&(s=i-s),s===o)return!1;o=s;for(var h=0;h<u;h++)e[h](s);return c}):null}function rt(t,n){if(Y=n,!t||!t.root||!Array.isArray(t.animations))return null;var e=function(t){for(var n=document.getElementsByTagName("svg"),e=0;e<n.length;e++)if(n[e].id===t.root&&!n[e].svgatorAnimation)return n[e].svgatorAnimation=!0,n[e];return null}(t);if(!e)return null;var r=t.animations.map((function(t){return et(e,t)})).filter((function(t){return!!t}));return r.length?{svg:e,animations:r,animationSettings:t.animationSettings,options:t.options||void 0}:null}function it(t){return+("0x"+(t.replace(/[^0-9a-fA-F]+/g,"")||27))}function ut(t,n,e){return!t||!e||n>t.length?t:t.substring(0,n)+ut(t.substring(n+1),e,e)}function ot(t){var n=arguments.length>1&&void 0!==arguments[1]?arguments[1]:27;return!t||t%n?t%n:ot(t/n,n)}function at(t,n,e){if(t&&t.length){var r=it(e),i=it(n),u=ot(r)+5,o=ut(t,ot(r,5),u);return o=o.replace(/\x7c$/g,"==").replace(/\x2f$/g,"="),o=function(t,n,e){var r=+("0x"+t.substring(0,4));t=t.substring(4);for(var i=n%r+e%27,u=[],o=0;o<t.length;o+=2)if("|"!==t[o]){var a=+("0x"+t[o]+t[o+1])-i;u.push(a)}else{var l=+("0x"+t.substring(o+1,o+1+4))-i;o+=3,u.push(l)}return String.fromCharCode.apply(String,u)}(o=(o=atob(o)).replace(/[\x41-\x5A]/g,""),i,r),o=JSON.parse(o)}}var lt=[{key:"alternate",def:!1},{key:"fill",def:1},{key:"iterations",def:0},{key:"direction",def:1},{key:"speed",def:1},{key:"fps",def:100}],st=function(){function t(n,e){var i=this,u=arguments.length>2&&void 0!==arguments[2]?arguments[2]:null;r(this,t),this._id=0,this._running=!1,this._rollingBack=!1,this._animations=n,this._settings=e,(!u||u<"2022-05-02")&&delete this._settings.speed,lt.forEach((function(t){i._settings[t.key]=i._settings[t.key]||t.def})),this.duration=e.duration,this.offset=e.offset||0,this.rollbackStartOffset=0}return u(t,[{key:"alternate",get:function(){return this._settings.alternate}},{key:"fill",get:function(){return this._settings.fill}},{key:"iterations",get:function(){return this._settings.iterations}},{key:"direction",get:function(){return this._settings.direction}},{key:"speed",get:function(){return this._settings.speed}},{key:"fps",get:function(){return this._settings.fps}},{key:"maxFiniteDuration",get:function(){return this.iterations>0?this.iterations*this.duration:this.duration}},{key:"_apply",value:function(t){for(var n=arguments.length>1&&void 0!==arguments[1]?arguments[1]:{},e=this._animations,r=e.length,i=0,u=0;u<r;u++)n[u]?i++:(n[u]=e[u](t,1),n[u]&&i++);return i}},{key:"_rollback",value:function(t){var n=this,e=1/0,r=null;this.rollbackStartOffset=t,this._rollingBack=!0,this._running=!0;this._id=window.requestAnimationFrame((function i(u){if(n._rollingBack){null==r&&(r=u);var o=Math.round(t-(u-r)*n.speed);if(o>n.duration&&e!==1/0){var a=!!n.alternate&&o/n.duration%2>1,l=o%n.duration;o=(l+=a?n.duration:0)||n.duration}var s=(n.fps?1e3/n.fps:0)*n.speed,f=Math.max(0,o);f<=e-s&&(n.offset=f,e=f,n._apply(f));var c=n.iterations>0&&-1===n.fill&&o>=n.maxFiniteDuration;(o<=0||n.offset<o||c)&&n.stop(),n._id=window.requestAnimationFrame(i)}}))}},{key:"_start",value:function(){var t=this,n=arguments.length>0&&void 0!==arguments[0]?arguments[0]:0,e=-1/0,r=null,i={};this._running=!0;var u=function u(o){null==r&&(r=o);var a=Math.round((o-r)*t.speed+n),l=(t.fps?1e3/t.fps:0)*t.speed;if(a>=e+l&&!t._rollingBack&&(t.offset=a,e=a,t._apply(a,i)===t._animations.length))return void t.pause(!0);t._id=window.requestAnimationFrame(u)};this._id=window.requestAnimationFrame(u)}},{key:"_pause",value:function(){this._id&&window.cancelAnimationFrame(this._id),this._running=!1}},{key:"play",value:function(){if(!this._running)return this._rollingBack?this._rollback(this.offset):this._start(this.offset)}},{key:"stop",value:function(){this._pause(),this.offset=0,this.rollbackStartOffset=0,this._rollingBack=!1,this._apply(0)}},{key:"reachedToEnd",value:function(){return this.iterations>0&&this.offset>=this.iterations*this.duration}},{key:"restart",value:function(){var t=arguments.length>0&&void 0!==arguments[0]&&arguments[0];this.stop(t),this.play(t)}},{key:"pause",value:function(){this._pause()}},{key:"reverse",value:function(){this.direction=-this.direction}}],[{key:"build",value:function(t,n){delete t.animationSettings,t.options=at(t.options,t.root,"5c7f360c"),t.animations.map((function(n){n.settings=at(n.s,t.root,"5c7f360c"),delete n.s,t.animationSettings||(t.animationSettings=n.settings)}));var e=t.version;if(!(t=rt(t,n)))return null;var r=t.options||{},i=new this(t.animations,t.animationSettings,e);return{el:t.svg,options:r,player:i}}},{key:"push",value:function(t){return this.build(t)}},{key:"init",value:function(){var t=this,n=window.__SVGATOR_PLAYER__&&window.__SVGATOR_PLAYER__["5c7f360c"];Array.isArray(n)&&n.splice(0).forEach((function(n){return t.build(n)}))}}]),t}();function ft(t){return d(t)+""}function ct(t){var n=arguments.length>1&&void 0!==arguments[1]?arguments[1]:" ";return t&&t.length?t.map(ft).join(n):""}function ht(t){if(!t)return"transparent";if(null==t.a||t.a>=1){var n=function(t){return 1===(t=parseInt(t).toString(16)).length?"0"+t:t},e=function(t){return t.charAt(0)===t.charAt(1)},r=n(t.r),i=n(t.g),u=n(t.b);return e(r)&&e(i)&&e(u)&&(r=r.charAt(0),i=i.charAt(0),u=u.charAt(0)),"#"+r+i+u}return"rgba("+t.r+","+t.g+","+t.b+","+t.a+")"}function vt(t){return t?"url(#"+t+")":"none"}!function(){for(var t=0,n=["ms","moz","webkit","o"],e=0;e<n.length&&!window.requestAnimationFrame;++e)window.requestAnimationFrame=window[n[e]+"RequestAnimationFrame"],window.cancelAnimationFrame=window[n[e]+"CancelAnimationFrame"]||window[n[e]+"CancelRequestAnimationFrame"];window.requestAnimationFrame||(window.requestAnimationFrame=function(n){var e=Date.now(),r=Math.max(0,16-(e-t)),i=window.setTimeout((function(){n(e+r)}),r);return t=e+r,i},window.cancelAnimationFrame=window.clearTimeout)}();var yt={f:null,i:function(t,n,e){return 0===t?n:1===t?e:{x:B(t,n.x,e.x),y:B(t,n.y,e.y)}},u:function(t,n){return function(e){var r=n(e);t.setAttribute("rx",ft(r.x)),t.setAttribute("ry",ft(r.y))}}},gt={f:null,i:function(t,n,e){return 0===t?n:1===t?e:{width:B(t,n.width,e.width),height:B(t,n.height,e.height)}},u:function(t,n){return function(e){var r=n(e);t.setAttribute("width",ft(r.width)),t.setAttribute("height",ft(r.height))}}};Object.freeze({M:2,L:2,Z:0,H:1,V:1,C:6,Q:4,T:2,S:4,A:7});var dt={},pt=null;function mt(t){var n=function(){if(pt)return pt;if("object"!==("undefined"==typeof document?"undefined":e(document))||!document.createElementNS)return{};var t=document.createElementNS("http://www.w3.org/2000/svg","svg");return t&&t.style?(t.style.position="absolute",t.style.opacity="0.01",t.style.zIndex="-9999",t.style.left="-9999px",t.style.width="1px",t.style.height="1px",pt={svg:t}):{}}().svg;if(!n)return function(t){return null};var r=document.createElementNS(n.namespaceURI,"path");r.setAttributeNS(null,"d",t),r.setAttributeNS(null,"fill","none"),r.setAttributeNS(null,"stroke","none"),n.appendChild(r);var i=r.getTotalLength();return function(t){var n=r.getPointAtLength(i*t);return{x:n.x,y:n.y}}}function bt(t){return dt[t]?dt[t]:dt[t]=mt(t)}function wt(t,n,e,r){if(!t||!r)return!1;var i=["M",t.x,t.y];if(n&&e&&(i.push("C"),i.push(n.x),i.push(n.y),i.push(e.x),i.push(e.y)),n?!e:e){var u=n||e;i.push("Q"),i.push(u.x),i.push(u.y)}return n||e||i.push("L"),i.push(r.x),i.push(r.y),i.join(" ")}function xt(t,n,e,r){var i=arguments.length>4&&void 0!==arguments[4]?arguments[4]:1,u=wt(t,n,e,r),o=bt(u);try{return o(i)}catch(t){return null}}function At(t,n,e){return t+(n-t)*e}function kt(t,n,e){var r=arguments.length>3&&void 0!==arguments[3]&&arguments[3],i={x:At(t.x,n.x,e),y:At(t.y,n.y,e)};return r&&(i.a=_t(t,n)),i}function _t(t,n){return Math.atan2(n.y-t.y,n.x-t.x)}function St(t,n,e,r){var i=1-r;return i*i*t+2*i*r*n+r*r*e}function Ot(t,n,e,r){return 2*(1-r)*(n-t)+2*r*(e-n)}function jt(t,n,e,r){var i=arguments.length>4&&void 0!==arguments[4]&&arguments[4],u=xt(t,n,null,e,r);return u||(u={x:St(t.x,n.x,e.x,r),y:St(t.y,n.y,e.y,r)}),i&&(u.a=Mt(t,n,e,r)),u}function Mt(t,n,e,r){return Math.atan2(Ot(t.y,n.y,e.y,r),Ot(t.x,n.x,e.x,r))}function Pt(t,n,e,r,i){var u=i*i;return i*u*(r-t+3*(n-e))+3*u*(t+e-2*n)+3*i*(n-t)+t}function Et(t,n,e,r,i){var u=1-i;return 3*(u*u*(n-t)+2*u*i*(e-n)+i*i*(r-e))}function It(t,n,e,r,i){var u=arguments.length>5&&void 0!==arguments[5]&&arguments[5],o=xt(t,n,e,r,i);return o||(o={x:Pt(t.x,n.x,e.x,r.x,i),y:Pt(t.y,n.y,e.y,r.y,i)}),u&&(o.a=Rt(t,n,e,r,i)),o}function Rt(t,n,e,r,i){return Math.atan2(Et(t.y,n.y,e.y,r.y,i),Et(t.x,n.x,e.x,r.x,i))}function Ft(t,n,e){var r=arguments.length>3&&void 0!==arguments[3]&&arguments[3];if(Tt(n)){if(qt(e))return jt(n,e.start,e,t,r)}else if(Tt(e)){if(Bt(n))return jt(n,n.end,e,t,r)}else{if(Bt(n))return qt(e)?It(n,n.end,e.start,e,t,r):jt(n,n.end,e,t,r);if(qt(e))return jt(n,e.start,e,t,r)}return kt(n,e,t,r)}function Nt(t,n,e){var r=Ft(t,n,e,!0);return r.a=function(t){return arguments.length>1&&void 0!==arguments[1]&&arguments[1]?t+Math.PI:t}(r.a)/m,r}function Tt(t){return!t.type||"corner"===t.type}function qt(t){return null!=t.start&&!Tt(t)}function Bt(t){return null!=t.end&&!Tt(t)}var Lt=new N;var Ct={f:ft,i:q},Dt={f:ft,i:L};function zt(t,n,e){return t.map((function(t){return function(t,n,e){var r=t.v;if(!r||"g"!==r.t||r.s||!r.v||!r.r)return t;var i=e.getElementById(r.r),u=i&&i.querySelectorAll("stop")||[];return r.s=r.v.map((function(t,n){var e=u[n]&&u[n].getAttribute("offset");return{c:t,o:e=d(parseInt(e)/100)}})),delete r.v,t}(t,0,e)}))}var Vt={gt:"gradientTransform",c:{x:"cx",y:"cy"},rd:"r",f:{x:"x1",y:"y1"},to:{x:"x2",y:"y2"}};function Gt(t,n,r,i,u,o,a,l){return zt(t,0,l),n=function(t,n,e){for(var r,i,u,o=t.length-1,a={},l=0;l<=o;l++)(r=t[l]).e&&(r.e=n(r.e)),r.v&&"g"===(i=r.v).t&&i.r&&(u=e.getElementById(i.r))&&(a[i.r]={e:u,s:u.querySelectorAll("stop")});return a}(t,i,l),function(i){var u=r(i,t,Yt);if(!u)return"none";if("c"===u.t)return ht(u.v);if("g"===u.t){if(!n[u.r])return vt(u.r);var o=n[u.r];return function(t,n){for(var e=t.s,r=e.length;r<n.length;r++){var i=e[e.length-1].cloneNode();i.id=Qt(i.id),t.e.appendChild(i),e=t.s=t.e.querySelectorAll("stop")}for(var u=0,o=e.length,a=n.length-1;u<o;u++)e[u].setAttribute("stop-color",ht(n[Math.min(u,a)].c)),e[u].setAttribute("offset",n[Math.min(u,a)].o)}(o,u.s),Object.keys(Vt).forEach((function(t){if(void 0!==u[t])if("object"!==e(Vt[t])){var n,r="gt"===t?(n=u[t],Array.isArray(n)?"matrix("+n.join(" ")+")":""):u[t],i=Vt[t];o.e.setAttribute(i,r)}else Object.keys(Vt[t]).forEach((function(n){if(void 0!==u[t][n]){var e=u[t][n],r=Vt[t][n];o.e.setAttribute(r,e)}}))})),vt(u.r)}return"none"}}function Yt(t,e,r){if(0===t)return e;if(1===t)return r;if(e&&r){var i=e.t;if(i===r.t)switch(e.t){case"c":return{t:i,v:z(t,e.v,r.v)};case"g":if(e.r===r.r){var u={t:i,s:$t(t,e.s,r.s),r:e.r};return e.gt&&r.gt&&(u.gt=function(t,n,e){var r=n.length;if(r!==e.length)return T(t,n,e);for(var i=new Array(r),u=0;u<r;u++)i[u]=q(t,n[u],e[u]);return i}(t,e.gt,r.gt)),e.c?(u.c=C(t,e.c,r.c),u.rd=B(t,e.rd,r.rd)):e.f&&(u.f=C(t,e.f,r.f),u.to=C(t,e.to,r.to)),u}}if("c"===e.t&&"g"===r.t||"c"===r.t&&"g"===e.t){var o="c"===e.t?e:r,a="g"===e.t?n({},e):n({},r),l=a.s.map((function(t){return{c:o.v,o:t.o}}));return a.s="c"===e.t?$t(t,l,a.s):$t(t,a.s,l),a}}return T(t,e,r)}function $t(t,n,e){if(n.length===e.length)return n.map((function(n,r){return Ut(t,n,e[r])}));for(var r=Math.max(n.length,e.length),i=[],u=0;u<r;u++){var o=Ut(t,n[Math.min(u,n.length-1)],e[Math.min(u,e.length-1)]);i.push(o)}return i}function Ut(t,n,e){return{o:L(t,n.o,e.o||0),c:z(t,n.c,e.c||{})}}function Qt(t){return t.replace(/-fill-([0-9]+)$/,(function(t,n){return"-fill-"+(+n+1)}))}var Ht={fill:Gt,"fill-opacity":Dt,stroke:Gt,"stroke-opacity":Dt,"stroke-width":Ct,"stroke-dashoffset":{f:ft,i:q},"stroke-dasharray":{f:function(t){var n=arguments.length>1&&void 0!==arguments[1]?arguments[1]:" ";return t&&t.length>0&&(t=t.map((function(t){return d(t,4)}))),ct(t,n)},i:function(t,n,e){var r,i,u,o=n.length,a=e.length;if(o!==a)if(0===o)n=V(o=a,0);else if(0===a)a=o,e=V(o,0);else{var l=(u=(r=o)*(i=a)/function(t,n){for(var e;n;)e=n,n=t%n,t=e;return t||1}(r,i))<0?-u:u;n=G(n,Math.floor(l/o)),e=G(e,Math.floor(l/a)),o=a=l}for(var s=[],f=0;f<o;f++)s.push(d(B(t,n[f],e[f])));return s}},opacity:Dt,transform:function(t,n,r,i){if(!(t=function(t,n){if(!t||"object"!==e(t))return null;var r=!1;for(var i in t)t.hasOwnProperty(i)&&(t[i]&&t[i].length?(t[i].forEach((function(t){t.e&&(t.e=n(t.e))})),r=!0):delete t[i]);return r?t:null}(t,i)))return null;var u=function(e,i,u){var o=arguments.length>3&&void 0!==arguments[3]?arguments[3]:null;return t[e]?r(i,t[e],u):n&&n[e]?n[e]:o};return n&&n.a&&t.o?function(n){var e=r(n,t.o,Nt);return Lt.recomposeSelf(e,u("r",n,q,0)+e.a,u("k",n,C),u("s",n,C),u("t",n,C)).toString()}:function(t){return Lt.recomposeSelf(u("o",t,Ft,null),u("r",t,q,0),u("k",t,C),u("s",t,C),u("t",t,C)).toString()}},r:Ct,"#size":gt,"#radius":yt,_:function(t,n){if(Array.isArray(t))for(var e=0;e<t.length;e++)this[t[e]]=n;else this[t]=n}},Jt=function(t){!function(t,n){if("function"!=typeof n&&null!==n)throw new TypeError("Super expression must either be null or a function");t.prototype=Object.create(n&&n.prototype,{constructor:{value:t,writable:!0,configurable:!0}}),n&&l(t,n)}(o,t);var n,e,i=(n=o,e=s(),function(){var t,r=a(n);if(e){var i=a(this).constructor;t=Reflect.construct(r,arguments,i)}else t=r.apply(this,arguments);return c(this,t)});function o(){return r(this,o),i.apply(this,arguments)}return u(o,null,[{key:"build",value:function(t){var n=h(a(o),"build",this).call(this,t,Ht);if(!n)return null;n.el,n.options,function(t,n,e){t.play()}(n.player)}}]),o}(st);return Jt.init(),Jt}));
(function(s,i,o,w,a,b){w[o]=w[o]||{};w[o][s]=w[o][s]||[];w[o][s].push(i);})('5c7f360c',{"root":"e4rbGF3Cxis1","version":"2022-05-04","animations":[{"elements":{"e4rbGF3Cxis4":{"transform":{"data":{"t":{"x":-23547.798831,"y":-15672.614747}},"keys":{"o":[{"t":60,"v":{"x":23547.798831,"y":15672.614747,"type":"corner"}},{"t":1600,"v":{"x":23547.798831,"y":16449.615529,"type":"corner"}},{"t":4100,"v":{"x":23547.798831,"y":15834.613984,"type":"corner"}},{"t":6000,"v":{"x":23547.798831,"y":15672.614747,"type":"corner"}}]}}},"e4rbGF3Cxis8":{"transform":{"data":{"t":{"x":-23814.450196,"y":-8488.350097}},"keys":{"o":[{"t":0,"v":{"x":23814.450196,"y":8488.350097,"type":"corner"}},{"t":1600,"v":{"x":23814.450196,"y":9142.260739,"type":"corner"}},{"t":4100,"v":{"x":23814.450196,"y":8894.760128,"type":"corner"}},{"t":6000,"v":{"x":23814.450196,"y":8488.350097,"type":"corner"}}]}}},"e4rbGF3Cxis27":{"transform":{"data":{"t":{"x":-21589.930666,"y":-22695.93457}},"keys":{"o":[{"t":0,"v":{"x":21589.930666,"y":22695.93457,"type":"corner"}},{"t":1600,"v":{"x":21589.930666,"y":22553.306952,"type":"corner"}},{"t":4100,"v":{"x":21589.930666,"y":22695.807308,"type":"corner"}},{"t":6000,"v":{"x":21589.930666,"y":22695.93457,"type":"corner"}}]}}},"e4rbGF3Cxis36":{"transform":{"data":{"t":{"x":-17877.458007,"y":-15920.200198}},"keys":{"o":[{"t":0,"v":{"x":17877.458007,"y":15920.200198,"type":"corner"}},{"t":4100,"v":{"x":17877.458007,"y":16269.294865,"type":"corner"}},{"t":6000,"v":{"x":17877.458007,"y":15920.200198,"type":"corner"}}],"r":[{"t":0,"v":0},{"t":1600,"v":-2},{"t":4100,"v":2},{"t":6000,"v":0}]}}},"e4rbGF3Cxis41":{"transform":{"data":{"t":{"x":-11429.506349,"y":-25998.394531}},"keys":{"o":[{"t":0,"v":{"x":11429.506349,"y":25998.394531,"type":"corner"}},{"t":3000,"v":{"x":11429.506349,"y":25154.324309,"type":"corner"}},{"t":6000,"v":{"x":11429.506349,"y":25998.394531,"type":"corner"}}],"r":[{"t":0,"v":0},{"t":3000,"v":11},{"t":6000,"v":0}]}}},"e4rbGF3Cxis47":{"transform":{"data":{"t":{"x":-20079.727052,"y":-20323.754884}},"keys":{"o":[{"t":0,"v":{"x":20079.727052,"y":20323.754884,"type":"corner"}},{"t":1600,"v":{"x":20079.727052,"y":20394.991799,"type":"corner"}},{"t":4100,"v":{"x":20079.727052,"y":20522.492118,"type":"corner"}},{"t":6000,"v":{"x":20079.727052,"y":20323.754884,"type":"corner"}}]}}},"e4rbGF3Cxis55":{"transform":{"data":{"o":{"x":24659.399414,"y":27233.796875,"type":"corner"},"t":{"x":-24659.399414,"y":-27233.796875}},"keys":{"r":[{"t":0,"v":0},{"t":1600,"v":-8},{"t":4100,"v":2},{"t":6000,"v":0}]}}},"e4rbGF3Cxis56":{"transform":{"data":{"t":{"x":-16848.509765,"y":-30844.129882}},"keys":{"o":[{"t":0,"v":{"x":16848.509765,"y":30844.129882,"type":"corner"}},{"t":3000,"v":{"x":16848.509765,"y":30520.149041,"type":"corner"}},{"t":6000,"v":{"x":16848.509765,"y":30844.129882,"type":"corner"}}],"r":[{"t":0,"v":0},{"t":3000,"v":6},{"t":6000,"v":0}]}}},"e4rbGF3Cxis80":{"transform":{"data":{"t":{"x":-18852.04248,"y":-21897.709959}},"keys":{"o":[{"t":0,"v":{"x":18852.04248,"y":21897.709959,"type":"corner"}},{"t":1600,"v":{"x":18852.04248,"y":21808.333875,"type":"corner"}},{"t":4100,"v":{"x":18852.04248,"y":22018.334403,"type":"corner"}},{"t":6000,"v":{"x":18852.04248,"y":21897.709959,"type":"corner"}}]}}}},"s":"MMDA1ZDg3MmU3MDgxN2JU2ZDgwNzU3YjdhMmUM0NjQyM2MzYzNjMzhBRMmU3MDc1N2U3MTZmOSDA3NTdiN2FTMmU0NjGNkMzgyZTc1ODA3MTdDlNmQ4MDc1SjdiN2E3MZjJlNDYzYzM4MmU3MIjc1Nzg3ODJlNDYzZDYM4MmU2ZDc4ODBHNzEH3ZUE3YTZkODA3MTJlHNDY3MjZkNzhGN2Y3MKTM4MmU3ZjdjUjcxNzEFQNzAyZTQ2M2QzODJFlQzcyN2M3ZjJlNDYzQZDNjM2M4OQ|"}],"options":"MWDAxMDg4MmY4MDgxNmOU3ZlA4MTJmNDcyZjcK5N2M2ZUw3MTJmOGE/H"},'__SVGATOR_PLAYER__',window)
]]></script>
</svg>
