<svg id="eHKtEidr40l1" xmlns="http://www.w3.org/2000/svg" xmlns:xlink="http://www.w3.org/1999/xlink" viewBox="0 0 5333.3335 5333.3335" shape-rendering="geometricPrecision" text-rendering="geometricPrecision"><g transform="matrix(1.33333 0 0-1.33333 161.006294 5454.084722)"><g transform="matrix(.1 0 0 0.1 0.000001 0)"><path d="M27314.5,34429.2c0-704-3-907.2-783.6-907.2c786.5,0,783.6-173.8,783.6-930.8c0,757,2.9,930.8,783.5,930.8-786.5,0-783.5,203.2-783.5,907.2" transform="translate(-13433.996276-20226.466301)" fill="#fff"/><path d="M27314.5,34429.2c0-704-3-907.2-783.6-907.2c786.5,0,783.6-173.8,783.6-930.8c0,757,2.9,930.8,783.5,930.8-786.5,0-783.5,203.2-783.5,907.2" fill="#fff"/><path d="M27314.5,34429.2c0-704-3-907.2-783.6-907.2c786.5,0,783.6-173.8,783.6-930.8c0,757,2.9,930.8,783.5,930.8-786.5,0-783.5,203.2-783.5,907.2" fill="#fff"/><path d="M32971.3,22277.8c0-563.4-2.3-726.1-627.1-726.1c629.5,0,627.1-139.1,627.1-744.9c0,605.8,2.4,744.9,627.1,744.9-629.4,0-627.1,162.7-627.1,726.1" fill="#fff"/><path d="M34607.6,23774.3c0-426.5-1.8-549.6-474.6-549.6c476.4,0,474.6-105.3,474.6-563.8c0,458.5,1.8,563.8,474.6,563.8-476.4,0-474.6,123.1-474.6,549.6" transform="translate(.000001 0)" fill="#fff"/><path d="M27314.5,34429.2c0-704-3-907.2-783.6-907.2c786.5,0,783.6-173.8,783.6-930.8c0,757,2.9,930.8,783.5,930.8-786.5,0-783.5,203.2-783.5,907.2" transform="translate(-4377.369572-7622.660805)" fill="#fff"/><path d="M27314.5,34429.2c0-704-3-907.2-783.6-907.2c786.5,0,783.6-173.8,783.6-930.8c0,757,2.9,930.8,783.5,930.8-786.5,0-783.5,203.2-783.5,907.2" transform="translate(-7622.660804-2943.403674)" fill="#fff"/><path d="M27314.5,34429.2c0-704-3-907.2-783.6-907.2c786.5,0,783.6-173.8,783.6-930.8c0,757,2.9,930.8,783.5,930.8-786.5,0-783.5,203.2-783.5,907.2" transform="translate(-10792.480152-6415.110581)" fill="#fff"/><path d="M20200.3,34615.3c0-46.7-37.9-84.6-84.6-84.6s-84.6,37.9-84.6,84.6c0,46.8,37.9,84.7,84.6,84.7s84.6-37.9,84.6-84.7" fill="#fff"/><path d="M27057.4,11039.9c0-83.1-67.4-150.4-150.4-150.4-83.1,0-150.4,67.3-150.4,150.4c0,83,67.3,150.4,150.4,150.4c83,0,150.4-67.4,150.4-150.4" fill="#fff"/><path d="M31051.7,13030.6c0-32.8-26.6-59.5-59.4-59.5-32.9,0-59.5,26.7-59.5,59.5c0,32.9,26.6,59.5,59.5,59.5c32.8,0,59.4-26.6,59.4-59.5" fill="#fff"/><path d="M33741.8,14895.6c0-103.9-84.2-188.1-188.1-188.1s-188.1,84.2-188.1,188.1s84.2,188.1,188.1,188.1s188.1-84.2,188.1-188.1" fill="#fff"/><path d="M32779.8,24939.5c0-70.5-57.2-127.7-127.7-127.7-70.6,0-127.8,57.2-127.8,127.7c0,70.6,57.2,127.8,127.8,127.8c70.5,0,127.7-57.2,127.7-127.8" fill="#fff"/><path d="M32779.8,24939.5c0-70.5-57.2-127.7-127.7-127.7-70.6,0-127.8,57.2-127.8,127.7c0,70.6,57.2,127.8,127.8,127.8c70.5,0,127.7-57.2,127.7-127.8" fill="#fff"/><path d="M27314.5,34429.2c0-704-3-907.2-783.6-907.2c786.5,0,783.6-173.8,783.6-930.8c0,757,2.9,930.8,783.5,930.8-786.5,0-783.5,203.2-783.5,907.2" fill="#fff"/><path d="M27314.5,34429.2c0-704-3-907.2-783.6-907.2c786.5,0,783.6-173.8,783.6-930.8c0,757,2.9,930.8,783.5,930.8-786.5,0-783.5,203.2-783.5,907.2" fill="#fff"/><path d="M27314.5,34429.2c0-704-3-907.2-783.6-907.2c786.5,0,783.6-173.8,783.6-930.8c0,757,2.9,930.8,783.5,930.8-786.5,0-783.5,203.2-783.5,907.2" fill="#fff"/><path d="M32779.8,24939.5c0-70.5-57.2-127.7-127.7-127.7-70.6,0-127.8,57.2-127.8,127.7c0,70.6,57.2,127.8,127.8,127.8c70.5,0,127.7-57.2,127.7-127.8" fill="#fff"/><path d="M27314.5,34429.2c0-704-3-907.2-783.6-907.2c786.5,0,783.6-173.8,783.6-930.8c0,757,2.9,930.8,783.5,930.8-786.5,0-783.5,203.2-783.5,907.2" fill="#fff"/><path d="M27314.5,34429.2c0-704-3-907.2-783.6-907.2c786.5,0,783.6-173.8,783.6-930.8c0,757,2.9,930.8,783.5,930.8-786.5,0-783.5,203.2-783.5,907.2" fill="#fff"/><path d="M8158,25957.1c-325.46-80.8-636.55-117.1-932.28-115.8c188.81-207.8,504.33-464.2,963.36-541.4c392.82-66.2,819.32,66.5,1170.53,363.6c121.06,102.7,488.22,461.4,535.31,1001.3-139.35-84.5-294.5-166.4-472.99-246.5-364.35-163.4-799.29-346-1263.93-461.2" fill="#fbb040"/><path d="M8390.44,25283.2c-66.66,0-132.96,5.3-198.27,16.1c32.05-5.3,64.4-8.7,96.85-11.4c156.44,18.2,307.27,62.4,447.93,128.7c15.7-26.7,37.02-49.5,62-68.3-135.12-43-272.67-65.1-408.51-65.1m820.37,267.2c-10.47,23.3-25.86,44.8-43.22,63.6-.25.3-.51.6-.76.8-.09.1-.18.2-.27.3-17.33,18.6-36.87,35-58.01,49c239.23,214.7,417.31,505.9,494.89,840.2c105.09,52.5,201.57,105.9,291.48,160.5-47.09-539.9-414.25-898.6-535.31-1001.3-48.27-40.8-97.96-78.6-148.8-113.1" fill="#c98d4a"/><path d="M7308.05,25841.9v0c270.97,5.2,554.57,41.8,849.95,115.2c464.64,115.2,899.58,297.8,1263.93,461.2c1.21.6,2.42,1.1,3.63,1.6-1.21-.5-2.42-1-3.63-1.6-364.35-163.4-799.29-346-1263.93-461.2-295.38-73.4-578.98-110-849.95-115.2m2119.71,579c.05.1.12.1.18.1-.06,0-.12,0-.18-.1" fill="#c98d4a"/><path d="M8158,25957.1c-325.46-80.8-636.55-117.1-932.28-115.8c188.81-207.8,504.33-464.2,963.36-541.4c33.06-5.6,66.45-9.3,99.94-12c626.21,72.9,1162.98,562.8,1314.57,1217-58.12-29.1-117.93-58-181.66-86.6-364.35-163.4-799.29-346-1263.93-461.2" transform="translate(0 0.000001)" fill="#fbb040"/><path d="M7960.73,25356.1c-251.45,115-477.3,280.9-652.95,486.1-27.44-.5-54.88-1-82.06-.9c155.65-171.3,397.69-375.4,735.01-485.2" fill="#fddfb3"/><path d="M6945.59,26269.5c1006.91-91.4,2047.63,408.8,2612.85,682.6l68.04,32.2c63.59,29.6,154.27,71.7,234.18,118.1-35.71,144.5-92.29,290.2-174.44,433.7-363.42,634.7-974.15,760.9-1305.96,779.6-403.82,22.9-819.14-155.3-1111.24-476.4-376.53-417-513.5-1084.4-323.43-1569.8" fill="#fbb040"/><path d="M9624.32,26983.3c-4.4,33-9.66,65.3-15.76,97c55.15,38.6,95.08,98.9,101.35,165.7.03.3.05.5.07.8.01.1.03.3.04.4.03.3.06.7.08,1c.01.1.02.2.03.3.03.4.06.7.09,1.1c0,.1.01.2.01.3.03.4.06.8.09,1.2.33,4.8.49,9.6.49,14.4v0c.02,97.4-66.75,188.9-154.25,233.3v0c-.87.5-1.74.9-2.61,1.4-.02,0-.05,0-.07,0-.25.1-.5.2-.75.4-.13,0-.26.1-.4.2-.13,0-.28.1-.41.2-.25.1-.51.2-.76.3-.01,0-.01,0-.02,0-34.11,16.5-69.22,24.4-103.34,25-213.82,383.6-585.69,631.2-1012.29,785.3-18.87,1.7-37.2,3-54.62,4-.35,0-.69.1-1.03.1v0c-23.17,1.3-46.44,1.9-69.66,1.9-381.47,0-766.23-175.6-1041.58-478.3-14.16-15.7-27.97-31.7-41.44-48v0c13.47,16.3,27.28,32.3,41.44,48c275.35,302.7,660.11,478.3,1041.58,478.3c23.22,0,46.49-.6,69.66-1.9c331.81-18.7,942.54-144.9,1305.96-779.6c82.15-143.5,138.73-289.2,174.44-433.7-79.91-46.4-170.59-88.5-234.18-118.1l-2.16-1" fill="#c98d4a"/><path d="M8435.91,28311.6c-19.24,1.7-37.92,3.1-55.65,4.1-403.82,22.9-819.14-155.3-1111.24-476.4-376.53-417-513.5-1084.4-323.43-1569.8c1006.91-91.4,2047.63,408.8,2612.85,682.6l65.88,31.2c-94.41,708.1-587.01,1111.1-1188.41,1328.3" fill="#fbb040"/><path d="M6932.54,26847.3c46.49,805.1,740.54,1351.6,1480,1466-10.85.9-22.01,1.8-32.28,2.4-403.82,22.9-819.14-155.3-1111.24-476.4-376.53-417-513.5-1084.4-323.43-1569.8c33.59-3,67.22-5.3,100.86-7.1-75.4,179.9-116.6,376.3-113.91,584.9" fill="#fddfb3"/><path d="M9930.27,27477.9c94.93-2.9,193.33-41.8,234.43-126.6c22.8-47.1,25.7-98.5,7.9-148.1-8.2-23.5-20.9-46.1-37.3-67.7-91-120.9-292.46-214.7-445.73-286.4l-66.16-31.2c-591.94-286.7-1693.65-820.8-2765.62-693.2-259.84,30.8-319.03,140.7-322.88,227.2-4.21,94.2,63.71,183.1,136.64,234.3-2.46,24.6-3.34,49.3-4.71,74.1-106.37-68.9-231.73-195.4-236.74-331-7.84-210,312.22-300.5,398.52-313.3c394-58.3,829.28-29.4,1293.67,85.9c452.96,112.3,880.25,291.8,1238.42,452.6c289.33,129.7,520.2,262.2,705.79,405.5c249.9,192.1,223.1,337.8,200.3,391.3-51.1,120-233.9,184.4-368.11,192.2c11.1-21.8,21.39-43.7,31.58-65.6" fill="#fbd901"/><path d="M7192.15,26105.3c-69.95,0-139.99,2.5-210.02,7.5c70.04-5,140.01-7.4,209.98-7.4c838.8,0,1661.66,347.1,2210.05,606.3-548.4-259.2-1371.15-606.4-2210.01-606.4m-221.36,8.4c-.41,0-.8,0-1.21.1.39-.1.82-.1,1.21-.1m-10.5.8c-.35,0-.78.1-1.14.1.4,0,.75-.1,1.14-.1m-13.34,1.1c-1.83.2-3.66.3-5.49.5c1.83-.2,3.66-.3,5.49-.5m-11.99,1.1c-25.76,2.3-51.43,5-77.17,8-259.84,30.8-319.03,140.7-322.88,227.2-.13,2.9-.19,5.8-.18,8.8-.01-3,.05-5.9.18-8.8c3.85-86.5,63.04-196.4,322.88-227.2c25.71-3,51.43-5.7,77.17-8m2425.75,437.8c27.44,12.3,53.07,24.7,79.42,37.1-.69,46.3-1.39,92.7-.48,137.8c65.61,31.2,127.04,61,183.76,88.5l66.16,31.2c153.27,71.7,354.73,165.5,445.73,286.4c16.4,21.6,29.1,44.2,37.3,67.7c7.8,21.7,11.6,43.7,11.5,65.6c0,28.1-6.6,56-19.4,82.5-41.1,84.8-139.5,123.7-234.43,126.6-10.19,21.9-20.48,43.8-31.58,65.6c134.21-7.8,317.01-72.2,368.11-192.2c6.8-16,14-40.2,14.1-71.4c0-73.3-39.1-185.2-214.4-319.9-185.59-143.3-416.46-275.8-705.79-405.5m42.31,157.6c.39.1.72.3,1.11.5-.35-.2-.76-.4-1.11-.5" fill="#c9ae18"/><path d="M6857.79,26124.7c-259.84,30.8-319.03,140.7-322.88,227.2-4.21,94.2,63.71,183.1,136.64,234.3-2.46,24.6-3.34,49.3-4.71,74.1-106.37-68.9-231.73-195.4-236.74-331-7.84-210,312.22-300.5,398.52-313.3c394-58.3,829.28-29.4,1293.67,85.9c452.96,112.3,880.25,291.8,1238.42,452.6c27.44,12.3,53.07,24.7,79.42,37.1-.69,46.3-1.39,92.7-.48,137.8-619.07-294.5-1612.58-720.1-2581.86-604.7" fill="#fbd901"/><path d="M8194.3,26591.9c-4.58,0-9.17.3-13.78.7-36.16,3.4-69.44,20.5-101.36,37.9-47.01,25.6-94.14,53.1-130.32,92.6-124.74,136-26.02,389.5,156.74,416.4c8.88,1.3,17.78,1.9,26.69,1.9c34.82,0,69.68-9.1,102.9-20.5c70.43-24,139.06-59.6,187.65-115.9c48.62-56.4,74.23-136.3,52.27-207.4-21.55-69.8-83.11-119.3-145.45-157.4-41.37-25.3-87.41-48.3-135.34-48.3" fill="#c98d4a"/><path d="M8623.76,27559c-39.01,0-78.4,12.3-109.43,35.7-98.32,74-56.75,150.2-50.1,174.4c17.25,62.5,85.09,96.4,152.7,96.4c36.4,0,72.74-9.8,101.05-30.3c16.26-11.7,30.45-26.4,41.24-43.3c41.36-64.8,22.11-160.8-41.03-204.7-27.49-19-60.82-28.2-94.43-28.2" fill="#c98d4a"/><path d="M7046.03,27512.7c2.24,67.9,26.77,138.8,80.76,199.6c33.45,37.7,67.45,63.4,100.79,79-70-85-130.74-179-181.55-278.6" transform="translate(.000001 0)" fill="#2c154e"/><path d="M7250.5,27247.9c-80.14,0-146.14,55.7-180.02,133.8c75.37,156.2,178.01,296.1,300.32,417.5c144.86-54.3,221.61-294.4,61.72-458.9-63.48-65.3-126.18-92.4-182.02-92.4" fill="#c98d4a"/><path d="M7070.48,27381.7c-17.07,39.4-25.99,84.5-24.45,131c50.81,99.6,111.55,193.6,181.55,278.6c28.06,13.1,55.63,19,81.97,19c21.36,0,41.91-3.9,61.25-11.1-122.31-121.4-224.95-261.3-300.32-417.5" fill="#cab2a6"/><path d="M7126.79,27712.3c-91.11-102.6-98.13-234-55.9-330.9c75.33,156.1,177.85,296,300.09,417.4-71.55,26.9-159.66,8.8-244.19-86.5" transform="translate(0 0.000001)" fill="#c99d59"/><path d="M9220.85,27226c34.91-109.6,144.56-193.2,259.5-189.7c114.92,3.6,222.15,100,229.97,214.8c7.03,102.7-61.95,201.1-153.76,247.7-184.77,94-401.49-66.5-335.71-272.8" fill="#bc8430"/><path d="M9473.33,27036.2c-112.35,0-218.28,82.5-252.48,189.8-.15.4-.3.9-.45,1.4.15-.5.3-1,.45-1.4c34.2-107.3,140.13-189.8,252.48-189.8c2.34,0,4.67.1,7.02.1.41,0,.81.1,1.22.1-.41,0-.82-.1-1.22-.1-2.35,0-4.68-.1-7.02-.1m8.73.2c.21,0,.44,0,.65,0-.21,0-.43,0-.65,0m1.4,0c.09.1.17.1.26.1-.09,0-.17,0-.26-.1" fill="#c98d4a"/><path d="M9473.33,27036.2c-112.35,0-218.28,82.5-252.48,189.8-.15.4-.3.9-.45,1.4-51.37,164.1,76.05,298.7,223.34,298.7c1.51,0,3.05,0,4.56,0v0v0v0v0c73.47-131.8,128.25-279.5,160.19-445.1-36.75-25.8-79.92-42.4-124.77-44.5-.09,0-.17,0-.26-.1-.25,0-.5,0-.75,0-.21,0-.44,0-.65,0-.17,0-.33,0-.49,0-.41,0-.81-.1-1.22-.1-2.35,0-4.68-.1-7.02-.1" fill="#966a3d"/><path d="M9709.91,27246c.02.3.05.5.07.8-.02-.3-.04-.5-.07-.8m.11,1.2c.03.4.06.7.08,1-.02-.3-.05-.7-.08-1m.11,1.3c.03.4.06.7.09,1.1-.03-.4-.06-.7-.09-1.1m.1,1.4c.03.4.06.8.09,1.2.33,4.8.49,9.6.49,14.4v0c0-4.8-.16-9.6-.49-14.4-.03-.4-.06-.8-.09-1.2m-153.67,248.9c-.87.5-1.74.9-2.61,1.4.87-.5,1.74-.9,2.61-1.4m-2.68,1.4c-.25.1-.5.2-.75.4.25-.2.5-.3.75-.4m-1.15.6c-.13,0-.28.1-.41.2.13-.1.28-.2.41-.2m-1.17.5c-.01,0-.01,0-.02,0c.01,0,.01,0,.02,0" fill="#815a58"/><path d="M9608.49,27081v0v0c-31.94,165.6-86.72,313.3-160.19,445.1c34.09-.6,69.16-8.4,103.24-24.8.01,0,.01,0,.02,0c.26-.1.51-.2.76-.3.13-.1.28-.2.41-.2.14-.1.27-.2.4-.2.25-.2.5-.3.75-.4.03,0,.05,0,.07,0c.87-.5,1.74-.9,2.61-1.4v0c87.5-44.4,154.27-135.9,154.25-233.3c0-4.8-.16-9.6-.49-14.4-.03-.4-.06-.8-.09-1.2c0-.1-.01-.2-.01-.3-.03-.4-.06-.7-.09-1.1-.01-.1-.02-.2-.03-.3-.02-.3-.05-.6-.08-1-.01-.1-.03-.3-.04-.4-.02-.3-.05-.5-.07-.8-6.28-66.7-46.42-126.4-101.42-165" fill="#785548"/><path d="M8151.07,25209.2c-160.37,29.2-303.57,78.8-431.27,140.3-9.96,20.9-15.5,43.5-11.05,66.3c2.7,14,8.65,26.7,16.9,37.9c121.68-62.4,259.73-113.9,414.86-144.9c11.24-31.7,14.73-66.4,10.56-99.6" fill="#2c154e"/><path d="M8140.51,25308.8c-155.13,31-293.18,82.5-414.86,144.9.06.1.12.2.17.3c72.46-37.2,150.72-70.5,234.91-97.9-75.08,34.4-147.87,73.2-217.72,116.3c16.95,14.7,38.26,25,60.21,29.6c11.68,2.5,23.47,3.6,35.3,3.6c32.99,0,66.22-8.5,97.54-19.7c77.87-28,152.28-76,191.83-148.7c4.95-9.1,9.15-18.6,12.62-28.4" fill="#c98d4a"/><path d="M7960.73,25356.1c-84.19,27.4-162.45,60.7-234.91,97.9c4.97,6.7,10.77,12.9,17.19,18.4c69.85-43.1,142.64-81.9,217.72-116.3" fill="#cab2a6"/><path d="M7708.75,25415.8c-4.45-22.8,1.09-45.4,11.05-66.3c127.7-61.5,270.9-111.1,431.26-140.3c3.02,23.9,1.64,48.5-3.36,72.4-141.93,48.4-278.1,112.6-404.72,190.7-17.18-14.8-29.88-34.1-34.23-56.5" fill="#c99d59"/><path d="M9167.59,25614c-77.64,84-200.24,123.8-312.44,101.4-22.29-4.5-44.33-11.3-64.07-22.7-79.93-45.9-102.01-158.2-69.31-244.4c31.56-83.3,113.51-136.5,202.3-155.7c101.07,39.4,198.41,88.8,291.05,147.1c3.53,15.4,9.8,28.7,9.98,46.6.5,47.8-25.04,92.6-57.51,127.7" fill="#bc8430"/><path d="M8924.07,25292.6c-.34,0-.68.1-1.02.2.34-.1.68-.2,1.02-.2c101.07,39.4,198.41,88.8,291.05,147.1c3.53,15.4,9.8,28.7,9.98,46.6.01.4.01.8.01,1.1v0c0-.3,0-.7-.01-1.1-.18-17.9-6.45-31.2-9.98-46.6-92.64-58.3-189.98-107.7-291.05-147.1m-1.1.2c-.3.1-.61.1-.91.2.3-.1.6-.1.91-.2m-1.1.2c-.28.1-.56.2-.85.2.29,0,.57-.1.85-.2m-.99.3c-.29,0-.59.1-.88.2.3-.1.59-.2.88-.2m-1.02.2c-1.35.3-2.69.6-4.04,1c1.34-.4,2.69-.7,4.04-1m-4.21,1c-.28.1-.55.1-.82.2.27-.1.55-.1.82-.2m-1.07.3c-.23,0-.45.1-.68.1.22,0,.45-.1.68-.1m-1.06.2c-.19.1-.4.1-.6.2.2-.1.4-.1.6-.2m-.98.3c-.17,0-.34,0-.52.1.17-.1.35-.1.52-.1m-1.02.2c-.04,0-.09,0-.13.1.04-.1.08-.1.13-.1" fill="#231155"/><path d="M9166.83,25614.8c-.09.1-.18.2-.27.3.09-.1.18-.2.27-.3" transform="translate(.000001 0)" fill="#815a58"/><path d="M8924.07,25292.6c-.34,0-.68.1-1.02.2-.03,0-.06,0-.08,0-.31.1-.61.1-.91.2-.06,0-.13,0-.19,0-.28.1-.56.2-.85.2-.05,0-.09.1-.14.1-.29,0-.58.1-.88.2-.05,0-.09,0-.14,0-1.35.3-2.7.6-4.04,1-.06,0-.12,0-.17,0-.27.1-.55.1-.82.2-.08,0-.17,0-.25.1-.23,0-.46.1-.68.1-.13.1-.25.1-.38.1-.2.1-.4.1-.6.2-.13,0-.25,0-.38.1-.17,0-.35,0-.52.1-.16,0-.33.1-.5.1-.05,0-.09,0-.13.1-72.06,18.4-138.05,59.5-174.28,121.1c134.38,63.3,259.29,146.9,371.08,247.1v0v0c21.17-14,41.01-30.1,58.37-48.7.09-.1.18-.2.27-.3.25-.2.51-.5.76-.8c32.21-34.8,57.61-79.2,57.52-126.6c0-.3,0-.7-.01-1.1-.18-17.9-6.45-31.2-9.98-46.6-92.64-58.3-189.98-107.7-291.05-147.1" fill="#785548"/><path d="M8722.3,25446.9c-.18.5-.35.9-.53,1.4-9.71,25.6-14.59,53.5-14.56,81.3-.03-27.8,4.85-55.7,14.56-81.3.18-.5.35-.9.53-1.4m132.85,268.5c2.27.4,4.55.8,6.83,1.3-2.29-.5-4.56-.9-6.83-1.3m7.63,1.4c.04,0,.09,0,.13,0-.04,0-.09,0-.13,0" fill="#c98d4a"/><path d="M8737.11,25416.7c-5.64,9.6-10.69,19.6-14.81,30.2-.18.5-.35.9-.53,1.4-9.71,25.6-14.59,53.5-14.56,81.3.07,65.7,27.67,130.8,83.87,163.1c19.74,11.4,41.78,18.2,64.07,22.7v0c2.27.4,4.54.8,6.83,1.3.27,0,.53,0,.8.1.04,0,.09,0,.13,0c18.14,3.2,36.5,4.7,54.86,4.7c67.17,0,134.34-20.5,190.42-57.7-111.79-100.2-236.7-183.8-371.08-247.1v0v0v0v0" fill="#966a3d"/><path d="M6700.39,26406c7.05-31.7,17.09-62,26.13-92.8-25.3,13.5-41.94,28.8-42.66,45.4-.75,14.9,6.56,31.2,16.53,47.4Zm3566.41,945.3c22.8-53.5,49.6-199.2-200.3-391.3-185.59-143.3-416.46-275.8-705.79-405.5-358.17-160.8-785.46-340.3-1238.42-452.7-464.39-115.2-899.67-144.1-1293.67-85.8-86.29,12.8-406.36,103.3-398.52,313.3c5.01,135.6,130.37,262.1,236.75,331c1.37-24.8,2.25-49.5,4.7-74.1-72.93-51.2-140.85-140.1-136.63-234.3c3.83-86.5,63.02-196.4,322.87-227.2c1071.97-127.6,2173.68,406.4,2765.62,693.2l66.16,31.2c153.27,71.7,354.73,165.5,445.83,286.4c16.3,21.6,29,44.2,37.2,67.7c17.8,49.6,14.9,101-7.9,148.1-41.1,84.8-139.5,123.7-234.43,126.6-10.19,21.9-20.48,43.8-31.58,65.6c134.21-7.8,317.01-72.2,368.11-192.2Zm-907.18-1687.8c-351.22-297.1-777.72-429.8-1170.55-363.6-459.02,77.2-774.54,333.6-963.35,541.4c295.73-1.3,606.82,35,932.28,115.8c464.64,115.2,899.59,297.8,1263.93,461.2c178.49,80.1,333.64,162,472.99,246.5-47.1-539.9-414.26-898.6-535.3-1001.3Zm640.31,1648.7c13.77-6.8,25.27-15.1,30.57-25.9c5.4-11.4,6-21,1.6-33.2-1.7-5.2-6.3-10.7-9.3-16-7.6,25-14,50.1-22.87,75.1Zm-2730.91,527.1c292.11,321.1,707.42,499.3,1111.24,476.4c331.81-18.7,942.55-144.9,1305.96-779.6c82.15-143.5,138.73-289.2,174.45-433.7-79.93-46.4-170.6-88.5-234.19-118.1l-68.03-32.2c-565.23-273.8-1605.95-774-2612.86-682.6-190.06,485.4-53.1,1152.8,323.43,1569.8Zm1122.24,671.2c-462.02,26-935.37-175.9-1266.43-540.1-282.2-309.8-442.34-731.4-460.11-1142.1-152.13-71.3-374.62-255.8-383.56-493.4-11.98-317.1,375.39-444.2,525.54-466.4c49.96-7.4,102.39-9.2,153.53-13.9c178.52-236.3,567.51-641.2,1196.7-747.1c449.34-75.7,933.54,72.9,1328.73,407.2c103.41,87.7,195.35,185.5,274.69,290.8c221.04,293.4,341.15,644.4,336.25,992.8c20.1,14.6,41.8,28.8,61,43.5c75.8,58.5,131.6,115.5,172.4,169.6c137.6,182.7,102.1,332.5,74,398.4-86.6,202.9-386.9,300.5-584.1,280.2-412.42,663.9-1067.76,800-1428.64,820.5" fill="#371a45"/><path d="M32971.3,22277.8c0-563.4-2.3-726.1-627.1-726.1c629.5,0,627.1-139.1,627.1-744.9c0,605.8,2.4,744.9,627.1,744.9-629.4,0-627.1,162.7-627.1,726.1" fill="#fff"/><path d="M34607.6,23774.3c0-426.5-1.8-549.6-474.6-549.6c476.4,0,474.6-105.3,474.6-563.8c0,458.5,1.8,563.8,474.6,563.8-476.4,0-474.6,123.1-474.6,549.6" transform="translate(.000001 0)" fill="#fff"/><path d="M8130.16,20740.2c0-563.5-2.36-726.1-627.09-726.1c629.45,0,627.09-139.1,627.09-745c0,605.9,2.36,745,627.08,745-629.44,0-627.08,162.6-627.08,726.1" fill="#fff"/><path d="M9678.24,23053.8c0-426.4-1.78-549.5-474.61-549.5c476.4,0,474.61-105.3,474.61-563.9c0,458.6,1.79,563.9,474.56,563.9-476.34,0-474.56,123.1-474.56,549.5" fill="#fff"/><path d="M27314.5,34429.2c0-704-3-907.2-783.6-907.2c786.5,0,783.6-173.8,783.6-930.8c0,757,2.9,930.8,783.5,930.8-786.5,0-783.5,203.2-783.5,907.2" transform="translate(-4377.369572-7622.660805)" fill="#fff"/><path d="M27314.5,34429.2c0-704-3-907.2-783.6-907.2c786.5,0,783.6-173.8,783.6-930.8c0,757,2.9,930.8,783.5,930.8-786.5,0-783.5,203.2-783.5,907.2" transform="translate(-7622.660804-2943.403674)" fill="#fff"/><path d="M27314.5,34429.2c0-704-3-907.2-783.6-907.2c786.5,0,783.6-173.8,783.6-930.8c0,757,2.9,930.8,783.5,930.8-786.5,0-783.5,203.2-783.5,907.2" transform="translate(-10792.480152-6415.110581)" fill="#fff"/><path d="M20200.3,34615.3c0-46.7-37.9-84.6-84.6-84.6s-84.6,37.9-84.6,84.6c0,46.8,37.9,84.7,84.6,84.7s84.6-37.9,84.6-84.7" fill="#fff"/><path d="M15037.7,32504.2c0-80.5-65.3-145.8-145.8-145.8s-145.8,65.3-145.8,145.8s65.3,145.7,145.8,145.7s145.8-65.2,145.8-145.7" transform="translate(0 0.000001)" fill="#fff"/><path d="M10011.3,30710.4c0-74-59.95-134-133.96-134s-134.01,60-134.01,134s60,134,134.01,134s133.96-60,133.96-134" fill="#fff"/><path d="M11657,27903.4c0-92.2-74.7-166.9-166.9-166.9s-166.9,74.7-166.9,166.9s74.7,166.9,166.9,166.9s166.9-74.7,166.9-166.9" fill="#fff"/><path d="M11822.2,24342.6c0-59.9-48.6-108.4-108.5-108.4s-108.4,48.5-108.4,108.4s48.5,108.5,108.4,108.5s108.5-48.6,108.5-108.5" fill="#fff"/><path d="M7885.29,14221.2c0-59-47.89-106.9-106.95-106.9-59.07,0-106.96,47.9-106.96,106.9c0,59.1,47.89,107,106.96,107c59.06,0,106.95-47.9,106.95-107" fill="#fff"/><path d="M6177.5,10915.3c0-102.7-83.22-185.9-185.9-185.9-102.67,0-185.91,83.2-185.91,185.9s83.24,185.9,185.91,185.9c102.68,0,185.9-83.2,185.9-185.9" fill="#fff"/><path d="M13881.9,5466.4c0-92.9-75.4-168.3-168.3-168.3s-168.3,75.4-168.3,168.3c0,93,75.4,168.3,168.3,168.3s168.3-75.3,168.3-168.3" fill="#fff"/><path d="M15982.3,7127.3c0-79.3-64.3-143.6-143.7-143.6-79.3,0-143.6,64.3-143.6,143.6s64.3,143.7,143.6,143.7c79.4,0,143.7-64.4,143.7-143.7" fill="#fff"/><path d="M17037,4959.4c0-119.4-96.8-216.2-216.3-216.2-119.4,0-216.3,96.8-216.3,216.2c0,119.5,96.9,216.3,216.3,216.3c119.5,0,216.3-96.8,216.3-216.3" fill="#fff"/><path d="M27057.4,11039.9c0-83.1-67.4-150.4-150.4-150.4-83.1,0-150.4,67.3-150.4,150.4c0,83,67.3,150.4,150.4,150.4c83,0,150.4-67.4,150.4-150.4" fill="#fff"/><path d="M25634.3,4938.1c0-77.5-62.8-140.3-140.3-140.3-77.6,0-140.4,62.8-140.4,140.3s62.8,140.4,140.4,140.4c77.5,0,140.3-62.9,140.3-140.4" fill="#fff"/><path d="M31051.7,13030.6c0-32.8-26.6-59.5-59.4-59.5-32.9,0-59.5,26.7-59.5,59.5c0,32.9,26.6,59.5,59.5,59.5c32.8,0,59.4-26.6,59.4-59.5" fill="#fff"/><path d="M33741.8,14895.6c0-103.9-84.2-188.1-188.1-188.1s-188.1,84.2-188.1,188.1s84.2,188.1,188.1,188.1s188.1-84.2,188.1-188.1" fill="#fff"/><path d="M32779.8,24939.5c0-70.5-57.2-127.7-127.7-127.7-70.6,0-127.8,57.2-127.8,127.7c0,70.6,57.2,127.8,127.8,127.8c70.5,0,127.7-57.2,127.7-127.8" fill="#fff"/><path d="M32779.8,24939.5c0-70.5-57.2-127.7-127.7-127.7-70.6,0-127.8,57.2-127.8,127.7c0,70.6,57.2,127.8,127.8,127.8c70.5,0,127.7-57.2,127.7-127.8" fill="#fff"/><path d="M35589.4,20854.4c0-51.8-42-93.8-93.7-93.8-51.8,0-93.8,42-93.8,93.8s42,93.8,93.8,93.8c51.7,0,93.7-42,93.7-93.8" transform="translate(.000001 0)" fill="#fff"/><path d="M27314.5,34429.2c0-704-3-907.2-783.6-907.2c786.5,0,783.6-173.8,783.6-930.8c0,757,2.9,930.8,783.5,930.8-786.5,0-783.5,203.2-783.5,907.2" fill="#fff"/><path d="M27314.5,34429.2c0-704-3-907.2-783.6-907.2c786.5,0,783.6-173.8,783.6-930.8c0,757,2.9,930.8,783.5,930.8-786.5,0-783.5,203.2-783.5,907.2" fill="#fff"/><path d="M27314.5,34429.2c0-704-3-907.2-783.6-907.2c786.5,0,783.6-173.8,783.6-930.8c0,757,2.9,930.8,783.5,930.8-786.5,0-783.5,203.2-783.5,907.2" fill="#fff"/><path d="M32779.8,24939.5c0-70.5-57.2-127.7-127.7-127.7-70.6,0-127.8,57.2-127.8,127.7c0,70.6,57.2,127.8,127.8,127.8c70.5,0,127.7-57.2,127.7-127.8" fill="#fff"/><path d="M27314.5,34429.2c0-704-3-907.2-783.6-907.2c786.5,0,783.6-173.8,783.6-930.8c0,757,2.9,930.8,783.5,930.8-786.5,0-783.5,203.2-783.5,907.2" fill="#fff"/><path d="M27314.5,34429.2c0-704-3-907.2-783.6-907.2c786.5,0,783.6-173.8,783.6-930.8c0,757,2.9,930.8,783.5,930.8-786.5,0-783.5,203.2-783.5,907.2" fill="#fff"/></g></g><path d="M32779.8,24939.5c0-70.5-57.2-127.7-127.7-127.7-70.6,0-127.8,57.2-127.8,127.7c0,70.6,57.2,127.8,127.8,127.8c70.5,0,127.7-57.2,127.7-127.8" fill="#fff"/></svg>
