<svg id="ezIUlwgvMro1" xmlns="http://www.w3.org/2000/svg" xmlns:xlink="http://www.w3.org/1999/xlink" viewBox="0 0 5333.3335 5333.3335" shape-rendering="geometricPrecision" text-rendering="geometricPrecision"><g transform="matrix(1.33333 0 0-1.33333 0 5333.33)"><g transform="matrix(.1 0 0 0.1 0 0)"><g transform="matrix(13.831098 0 0 13.663619-378330.945777-135880.458061)"><path d="M30183.4,11165.9c761-140.8,1263.9-871.8,1123.2-1632.9s-871.8-1264-1632.9-1123.2c-761,140.7-1263.9,871.7-1123.2,1632.8s871.8,1264,1632.9,1123.3" fill="#ffb533"/><path d="M31223.3,10098.3c-123.1,392.1-381.7,654.9-774.9,797.1-33.1,56.1-91.3,98.8-162.8,112.1-15.1,2.8-30.2,4.1-45,4.1-42.7,0-83.3-11.2-118.1-31-104,18.2-203.8,27.1-299.4,27.1-425.4,0-767.1-177.2-1017.3-504.1c241.2,377.3,663.6,615.8,1122.2,615.8c80,0,161.2-7.2,242.7-22.3c532.7-98.5,933-503.3,1052.6-998.8" fill="#ffd385"/><path d="M30170.7,11097.1c-722,133.5-1418-345.3-1551.5-1067.2s345.3-1417.9,1067.3-1551.4c721.9-133.5,1417.9,345.2,1551.4,1067.2c133.5,721.9-345.3,1417.9-1067.2,1551.4M29661.1,8341c-797.8,147.5-1326.8,916.6-1179.3,1714.3s916.5,1326.8,1714.3,1179.2c797.7-147.5,1326.7-916.5,1179.2-1714.2-147.5-797.8-916.5-1326.8-1714.2-1179.3" fill="#371a45"/><path d="M30350.9,10045.1c129.7-23.9,214.3-156.4,188.6-295.2-17.6-95.6-113.7-183.4-170.7-200.9-90.8-27-202.5,31.8-202.5,31.8-77.4,56.1-115.5,156.6-97.1,256c25.7,138.9,152,232.3,281.7,208.3" fill="#ffa233"/><path d="M30356.1,9545.7v0c.1.1.1.1.1.1l-.1-.1m17.7,4.9c57.5,20.9,148.6,106.5,165.7,199.3c3.1,16.8,4.6,33.5,4.6,49.9c0-16.4-1.5-33.1-4.6-49.9-17.3-93.7-80.5-169.6-165.7-199.3" fill="#cc9140"/><path d="M30356.1,9545.7c195.2,178.2,105.3,373.2-22.7,404.9-13.1,3.2-25.8,4.8-38,4.8-151.6,0-227-237.1-129.1-374.6-64.4,46.7-101.6,124.1-101.7,206.1c0,16.5,1.5,33.2,4.6,49.9c22.9,124.2,126.5,212.1,240.9,212.1c13.5,0,27.1-1.2,40.8-3.8c114-21,193.2-125.9,193.2-245.3c0-16.4-1.5-33.1-4.6-49.9-17.1-92.8-108.2-178.4-165.7-199.3-1.6-.5-3.3-1.1-5-1.6v0v0l-12.6-3.2c0,0,0,0-.1-.1" transform="translate(.000001 0)" fill="#cc8240"/><path d="M30350.9,10045.1c129.7-23.9,214.3-156.4,188.6-295.2-17.6-95.6-83-172.6-170.7-201c0,0,104.5,57.2,132.4,208.1c21.8,117.6-48.8,229.7-157.4,249.8-108.5,20.1-214.5-59.4-236.3-177.1-29.3-158.4,58.8-248.9,58.8-248.9-77.4,56.1-115.5,156.6-97.1,256c25.7,138.9,152,232.3,281.7,208.3" fill="#371a45"/><path d="M30996.6,10195.7c44.2-1.4,84.9-24.4,114.5-64.8c28.4-38.9,42.2-89.6,41.6-142.9-1.5-118.3-111.6-143-111.6-143-24.8-7.8-79.2-2.7-118.1,9.5c0,0-94.4,23.4-94.9,143.5-.2,53.2,19.5,103,50.3,140.1c31.9,38.5,73.9,58.9,118.2,57.6" fill="#ffa233"/><path d="M31041.1,9845c93.2,130,28.2,253.7-38.7,263.4-2.8.4-5.5.6-8.2.6-77.5,0-143-159.2-71.2-254.5c0,0-94.4,23.4-94.9,143.5c0,.4,0,.8,0,1.2.1,52.8,19.7,102,50.3,138.9c30.9,37.3,71.3,57.6,114.1,57.6c1.4,0,2.7,0,4.1,0c44.2-1.4,84.9-24.4,114.5-64.8c27.8-38,41.6-87.2,41.6-139.1c0-1.3,0-2.5,0-3.8-1.5-118.3-111.6-143-111.6-143" fill="#cc8240"/><path d="M30996.6,10195.7c44.2-1.4,84.9-24.4,114.5-64.8c28.4-38.9,42.2-89.6,41.6-142.9-1.5-118.3-111.6-143-111.6-143c42.9,26.9,70.7,82.1,72.6,144.2c1.4,44.6-10.7,86.8-34.1,118.7-22.3,30.5-52.2,47.8-84.2,48.8s-62.9-14.5-87-43.5c-25.3-30.5-39.9-71.8-41.3-116.4-1.7-57.1,19.7-111.6,55.9-142.3c0,0-94.5,23.4-94.9,143.5-.2,53.2,19.5,103,50.3,140.1c31.9,38.5,73.9,58.9,118.2,57.6" fill="#371a45"/><path d="M30630.6,9164.9c34.7,17,72.2,18.5,105.6,4.4c68-28.8,97-114.5,64.6-191-17.6-41.5-50.3-73.6-89.8-88.1-52.5-17.9-92.3,1.4-92.3,1.4-68,28.7-96.9,114.4-64.5,191c15.5,36.6,42.6,65.9,76.4,82.3" fill="#ffa233"/><path d="M30603.1,9090.9c11.7,16.9,26.9,30.4,44.6,39c13.5,6.6,27.6,9.9,41.3,9.9c11,0,21.9-2.1,32-6.4c1.2-.5,2.3-1,3.4-1.6-38.8-15.3-79.3-28.9-121.3-40.9" fill="#cc8240"/><path d="M30630.6,9164.9c34.7,17,72.2,18.5,105.6,4.4c68-28.8,97-114.5,64.6-191-17.6-41.5-50.3-73.6-89.8-88.1c39.5,14.5,125.8,193.9,10,243.2-22.8,9.7-48.9,8.4-73.3-3.5-25.3-12.3-45.5-34.7-57.6-62.5-45.5-104.9,28.6-175.8,28.6-175.8-68,28.7-96.9,114.4-64.5,191c15.5,36.6,42.6,65.9,76.4,82.3" fill="#371a45"/><path d="M29882.5,9106c126.2-23.3,211-138.6,189.1-257-16.3-88.1-87-155.9-180.1-172.7c0,0-85.1-17.5-160,25.3-86,49.1-134.5,140-117.5,232c21.9,118.4,142.3,195.8,268.5,172.4" transform="translate(.000001 0)" fill="#ffa233"/><path d="M29935.6,9046.6c-45.7,5.2-92.4,11.9-140,20.3c13.5,2.8,27.5,4.3,41.8,4.3c12.5,0,25.2-1.2,38-3.5c21.7-4,41.9-11.3,60.2-21.1" fill="#cc8240"/><path d="M29882.5,9106c126.2-23.3,211-138.6,189.1-257-16.3-88.1-87-155.9-180.1-172.7c0,0,118.9,49.2,141.7,179.8c17.1,97.4-52.8,192.2-157.8,211.6s-205-43.9-223-141.2c-26.3-141.8,79.1-224.9,79.1-224.9-87.3,46.8-134.5,140-117.5,232c21.9,118.4,142.3,195.8,268.5,172.4" transform="translate(.000001 0)" fill="#371a45"/><path d="M30285.6,11007.5c126.2-23.4,211-138.7,189.1-257.1-16.3-88.1-87-155.9-180.1-172.7c0,0-85-17.5-160,25.3-85.9,49.2-134.5,140-117.4,232c21.8,118.4,142.3,195.8,268.4,172.5" fill="#ffa233"/><path d="M30134.6,10603c-87.3,46.8-134.5,140-117.4,232-17.1-92,31.5-182.8,117.4-232v0" transform="translate(.000001 0)" fill="#cc9140"/><path d="M30294.6,10577.7c0,0,88.8,50.8,99.5,161.9c4.8,50.2-21.5,150.7-126.5,170.1-12,2.2-23.3,3.2-34.1,3.2-83.9,0-132.2-62.6-146.5-118.5-28.6-111.7,47.6-191.4,47.6-191.4-85.9,49.2-134.5,140-117.4,232v0c19.2,104.2,114.8,176.6,223.4,176.6c14.8,0,29.9-1.3,45-4.1c112.9-20.9,192.7-115.4,192.6-219.8c0-12.3-1.2-24.8-3.5-37.3-16.3-88.1-87-155.9-180.1-172.7" fill="#cc8240"/><path d="M30285.6,11007.5c126.2-23.4,211-138.7,189.1-257.1-16.3-88.1-87-155.9-180.1-172.7c0,0,118.9,49.2,141.8,179.8c17,97.5-52.8,192.2-157.9,211.6-105,19.4-205-43.9-223-141.2-26.2-141.8,79.1-224.9,79.1-224.9-87.3,46.8-134.5,140-117.4,232c21.8,118.4,142.3,195.8,268.4,172.5" fill="#371a45"/><path d="M29296.6,9790.7c102.9-19.1,170.1-124,149.8-233.9-15.5-83.9-79-150.1-158-164.8c0,0-59.4-17.1-133,27.5-56.7,48.7-97.3,124.7-82.2,206.3c20.3,109.9,120.6,183.9,223.4,164.9" fill="#ffa233"/><path d="M29155.4,9419.5c-65,43.8-97.3,124.7-82.2,206.3-15.1-81.6,25.5-157.6,82.2-206.3v0" fill="#cc9140"/><path d="M29288.4,9392c0,0,63.3,31.6,88.7,140.6c14.9,63.8-15.2,153.5-97,168.6-7.9,1.5-15.5,2.1-22.8,2.1-68.4,0-111-59.9-121.8-104.9-29.3-122.8,19.9-178.9,19.9-178.9-56.7,48.7-97.3,124.7-82.2,206.3v0c18.2,98.3,100.3,167.9,191,167.9c10.7,0,21.6-1,32.4-3c90.5-16.8,153.3-99.8,153.4-194.3c0-13.1-1.2-26.3-3.6-39.6-15.5-83.9-79-150.1-158-164.8" fill="#cc8240"/><path d="M29296.6,9790.7c102.9-19.1,170.1-124,149.8-233.9-15.5-83.9-79-150.1-158-164.8c0,0,98.3,51.9,119.6,171.9c15.9,88.9-36.7,173.3-118.4,188.4-81.8,15.1-159.5-45.2-178.1-133.6-27.5-131.1,43.9-199.2,43.9-199.2-65,43.8-97.3,124.7-82.2,206.3c20.3,109.9,120.6,183.9,223.4,164.9" fill="#371a45"/><path d="M29161.9,10610.1c118.8-45.4,173.2-192.7,121.4-328.2-71.3-155.7-197-133.6-197-133.6-58-6-129.9,21.8-163.8,51.8c0,0-122.3,79.6-70,246.5c51.9,135.6,190.7,208.9,309.4,163.5" fill="#ffa233"/><path d="M29102.7,10147.2c-10.3,0-16.4,1.1-16.4,1.1c70.3,15.7,107.5,93.1,122.4,131.8c30.6,79.5,31.8,204.3-79.4,246-13,4.9-26.2,7.1-39.5,7.1-80.7,0-161.2-82-175.8-145.7-5.6-24.4-43.6-129,8.5-187.4c0,0-83.1,54.1-83,166.5c0,24,3.8,50.7,13,80c41.5,108.3,138.5,176.9,236.4,176.9c24.6,0,49.2-4.3,73-13.4c88.2-33.7,140.9-123.5,141-223c.1-34.5-6.2-70.3-19.6-105.2-55.6-121.3-144.2-134.7-180.6-134.7" fill="#cc8240"/><path d="M29161.9,10610.1c118.8-45.4,173.2-192.7,121.4-328.2-71.3-155.7-197-133.6-197-133.6c70.3,15.7,131.8,72.3,160.6,147.5c44.1,115.5-.2,240.1-98.9,277.9-98.8,37.8-214.9-25.6-259-141-31.7-82.9-18.6-174.2,33.5-232.6c0,0-122.3,79.6-70,246.5c51.9,135.6,190.7,208.9,309.4,163.5" fill="#371a45"/><path d="M28870.5,9364.8c37.2-.6,74.5-15.3,105-41.3c30.5-26.1,50.8-60.5,57.2-97.2c6.7-38-2.3-73.7-25.2-100.6-19.9-23.3-48.8-37.6-81.6-40.3c0,0-62.5-11.7-118.7,40.8-29.4,27.4-50.9,60.6-57.3,97.2-6.7,38,2.3,73.7,25.2,100.6c23,26.9,56.9,41.4,95.4,40.8" fill="#ffa233"/><path d="M29930,8464.1c-79.8,0-160.8,7.3-242.1,22.3-718.7,132.9-1193.7,823.3-1060.8,1542c59.2-443.5,409.8-806.9,1095.2-947.6-55.3-30.5-96.4-82.8-108.3-147.2v0c-2.3-12.6-3.4-25.2-3.4-37.7.1-78.9,45.5-153.9,120.9-194.3v0v0v0v0v0v0v0v0c41.2-23.6,85.5-28.9,117-28.9c25.8,0,43,3.6,43,3.6v0v0v0v0c93.1,16.8,163.8,84.6,180.1,172.7c2.3,12.5,3.4,24.9,3.4,37.3v0c.1,57.7-24.2,112.3-65.1,153.2c53.3-4.2,105.2-6.2,155.8-6.2c139.6,0,268.8,15.5,386.4,44.1-7.6-19.6-11.2-39.7-11.2-59.2v0c0-55.3,28.7-105.9,77.8-126.6v0v0v0v0v0v0v0v0c0,0,18.6-9,47-9c13.3,0,28.6,1.9,45.3,7.6v0v0v0v0c39.5,14.5,72.2,46.6,89.8,88.1c9,21.2,13.2,43.1,13.3,64.4v0c0,42.2-16.7,81.6-46.5,107.1c207.3,91.1,364.3,230.1,462.4,397.4-117.9-637.4-674.2-1083.1-1300-1083.1m-1122.8,662.1v0c38.8-36.3,80.8-41.9,102.9-41.9c9.9,0,15.8,1.1,15.8,1.1v0v0c32.8,2.7,61.7,17,81.6,40.3c17.9,21,27.3,47.4,27.4,76.1c0,8-.7,16.2-2.2,24.5-6.4,36.7-26.7,71.1-57.2,97.2-30.5,26-67.8,40.7-105,41.3-.7,0-1.5,0-2.3,0-37.6,0-70.6-14.4-93.1-40.8-17.9-21-27.3-47.4-27.4-76.1c0-8,.7-16.2,2.2-24.5c6.4-36.6,26.7-71.1,57.3-97.2v0v0v0" fill="#cc9140"/><path d="M30665.7,8882.6c-28.4,0-47,9-47,9v0c0,0-35.8,60.6-6.1,151c11,33.3,44.6,56.6,77.3,56.6c20.1,0,39.8-8.8,53.7-29.4c29.3-43.6,17.7-117.5-7.1-156.1-9-12.1-17.9-20.6-25.3-23.4c0,0-.1-.1-.2-.1v0c-16.7-5.7-32-7.6-45.3-7.6" fill="#cc8240"/><path d="M30711,8890.2c.1,0,.2.1.2.1s-.1-.1-.2-.1v0m-92.3,1.4v0c0,0-74.1,70.9-28.6,175.8c3.6,8.4,8,16.2,13,23.5c42,12,82.5,25.6,121.3,40.9c89.8-41.6,50.9-165.1,12.1-218.1c24.8,38.6,36.4,112.5,7.1,156.1-13.9,20.6-33.6,29.4-53.7,29.4-32.7,0-66.3-23.3-77.3-56.6-29.7-90.4,6.1-151,6.1-151" fill="#a3684a"/><path d="M30711,8890.2v0v0c.1,0,.2.1.2.1c7.4,2.8,16.3,11.3,25.3,23.4c38.8,53,77.7,176.5-12.1,218.1c14.7,5.8,29,11.8,43.2,18c29.8-25.5,46.5-64.9,46.5-107.1-.1-21.3-4.3-43.2-13.3-64.4-17.6-41.5-50.3-73.6-89.8-88.1m-92.3,1.4c-49.1,20.7-77.8,71.3-77.8,126.6c0,19.5,3.6,39.6,11.2,59.2c17.3,4.3,34.2,8.7,51,13.5-5-7.3-9.4-15.1-13-23.5-45.5-104.9,28.6-175.8,28.6-175.8v0v0" fill="#2c154e"/><path d="M29848.5,8672.7c-31.5,0-75.8,5.3-117,28.9v0c0,0-76.3,79.6-47.7,191.3c14.3,56,62.7,118.6,146.6,118.6c10.7,0,22.1-1,34-3.2c105-19.5,131.3-119.9,126.5-170.2-10.6-111-99.4-161.8-99.4-161.8v0c0,0-17.2-3.6-43-3.6" fill="#cc8240"/><path d="M29891.5,8676.3c0,0,88.8,50.8,99.4,161.8c4.8,50.3-21.5,150.7-126.5,170.2-11.9,2.2-23.3,3.2-34,3.2-83.9,0-132.3-62.6-146.6-118.6-28.6-111.7,47.7-191.3,47.7-191.3v0c0,0-105.4,83.1-79.1,224.9c13.3,71.9,71.4,125.3,143.2,140.4c47.6-8.4,94.3-15.1,140-20.3c70-37.6,111.2-113.2,97.6-190.5-22.8-130.6-141.7-179.8-141.7-179.8v0" fill="#a3684a"/><path d="M29891.5,8676.3v0v0c0,0,118.9,49.2,141.7,179.8c13.6,77.3-27.6,152.9-97.6,190.5c25.1-2.8,49.8-5.2,74.3-7.1c40.9-40.9,65.2-95.5,65.1-153.2c0-12.4-1.1-24.8-3.4-37.3-16.3-88.1-87-155.9-180.1-172.7m-160,25.3c-75.4,40.4-120.8,115.4-120.9,194.3c0,12.5,1.1,25.1,3.4,37.7c11.9,64.4,53,116.7,108.3,147.2c16.7-3.4,33.6-6.7,50.7-9.9c7.5-1.4,15.1-2.7,22.6-4-71.8-15.1-129.9-68.5-143.2-140.4-26.3-141.8,79.1-224.9,79.1-224.9v0v0" fill="#2c154e"/><path d="M28910.1,9084.3c-22.1,0-64.1,5.6-102.9,41.9v0c0,0-42.6,103.3,11.8,147.4c16.9,13.7,34.9,19.5,52.3,19.5c45.2,0,86.6-39.3,94.7-82.7c15.2-81.8-40.1-125-40.1-125v0c0,0-5.9-1.1-15.8-1.1" fill="#cc8240"/><path d="M28807.2,9126.2c-30.6,26.1-50.9,60.6-57.3,97.2-1.5,8.3-2.2,16.5-2.2,24.5c0-8,.7-16.2,2.2-24.5c6.4-36.6,27.9-69.8,57.3-97.2v0" fill="#a3744a"/><path d="M28925.9,9085.4c0,0,55.3,43.2,40.1,125-8.1,43.4-49.5,82.7-94.7,82.7-17.4,0-35.4-5.8-52.3-19.5-54.4-44.1-11.8-147.4-11.8-147.4-29.4,27.4-50.9,60.6-57.3,97.2-1.5,8.3-2.2,16.5-2.2,24.5.1,28.7,9.5,55.1,27.4,76.1c22.5,26.4,55.5,40.8,93.1,40.8.8,0,1.6,0,2.3,0c37.2-.6,74.5-15.3,105-41.3c30.5-26.1,50.8-60.5,57.2-97.2c1.5-8.3,2.2-16.5,2.2-24.5-.1-28.7-9.5-55.1-27.4-76.1-19.9-23.3-48.8-37.6-81.6-40.3" fill="#a3684a"/><path d="M28870.5,9364.8c37.2-.6,74.5-15.3,105-41.3s50.8-60.6,57.2-97.2c6.7-38-2.3-73.7-25.2-100.6-19.9-23.3-48.8-37.6-81.6-40.3c0,0,83.4,30.4,68.4,134.2-4,27.8-20.5,54.1-44.1,74.2-23.7,20.2-52.1,31.6-80.3,32-26.7.4-50.2-8.9-65.1-27.1-64.3-78.7,2.3-172.5,2.3-172.5-30.5,26.1-50.8,60.6-57.2,97.2-6.7,38,2.3,73.7,25.2,100.6c23,26.9,56.9,41.4,95.4,40.8" fill="#371a45"/></g></g></g></svg>
