<?xml version="1.0" standalone="no"?><svg xmlns="http://www.w3.org/2000/svg" viewBox="0 0 1440 320"><path fill="#121418" fill-opacity="1" d="M0,256L18.5,234.7C36.9,213,74,171,111,154.7C147.7,139,185,149,222,149.3C258.5,149,295,139,332,117.3C369.2,96,406,64,443,74.7C480,85,517,139,554,149.3C590.8,160,628,128,665,133.3C701.5,139,738,181,775,170.7C812.3,160,849,96,886,69.3C923.1,43,960,53,997,53.3C1033.8,53,1071,43,1108,37.3C1144.6,32,1182,32,1218,26.7C1255.4,21,1292,11,1329,10.7C1366.2,11,1403,21,1422,26.7L1440,32L1440,320L1421.5,320C1403.1,320,1366,320,1329,320C1292.3,320,1255,320,1218,320C1181.5,320,1145,320,1108,320C1070.8,320,1034,320,997,320C960,320,923,320,886,320C849.2,320,812,320,775,320C738.5,320,702,320,665,320C627.7,320,591,320,554,320C516.9,320,480,320,443,320C406.2,320,369,320,332,320C295.4,320,258,320,222,320C184.6,320,148,320,111,320C73.8,320,37,320,18,320L0,320Z"></path></svg>