<?xml version="1.0" standalone="no"?><svg xmlns="http://www.w3.org/2000/svg" viewBox="0 0 1440 320">
  <style>
    path {
          position: absolute;
    bottom: 0;
    }
  </style>


<path fill="#fff" fill-opacity="1" d="M0,96L14.1,117.3C28.2,139,56,181,85,208C112.9,235,141,245,169,213.3C197.6,181,226,107,254,90.7C282.4,75,311,117,339,149.3C367.1,181,395,203,424,208C451.8,213,480,203,508,192C536.5,181,565,171,593,154.7C621.2,139,649,117,678,106.7C705.9,96,734,96,762,101.3C790.6,107,819,117,847,133.3C875.3,149,904,171,932,154.7C960,139,988,85,1016,90.7C1044.7,96,1073,160,1101,165.3C1129.4,171,1158,117,1186,101.3C1214.1,85,1242,107,1271,133.3C1298.8,160,1327,192,1355,202.7C1383.5,213,1412,203,1426,197.3L1440,192L1440,320L1425.9,320C1411.8,320,1384,320,1355,320C1327.1,320,1299,320,1271,320C1242.4,320,1214,320,1186,320C1157.6,320,1129,320,1101,320C1072.9,320,1045,320,1016,320C988.2,320,960,320,932,320C903.5,320,875,320,847,320C818.8,320,791,320,762,320C734.1,320,706,320,678,320C649.4,320,621,320,593,320C564.7,320,536,320,508,320C480,320,452,320,424,320C395.3,320,367,320,339,320C310.6,320,282,320,254,320C225.9,320,198,320,169,320C141.2,320,113,320,85,320C56.5,320,28,320,14,320L0,320Z"></path></svg>